<?xml version="1.0"?>
<svg xmlns="http://www.w3.org/2000/svg" width="217" height="354" viewBox="0 0 217 354" fill="none">
<g clip-path="url(#clip0_150_47)">
<path d="M10.9028 31.066C10.9028 19.965 19.9478 10.915 31.0548 10.915H186.286C197.555 10.915 206.599 19.965 206.599 31.066V323.417C206.599 334.522 197.555 343.567 186.286 343.567H31.0548C19.9488 343.567 10.9028 334.522 10.9028 323.417V31.066Z" fill="white"/>
<path d="M19.2661 65.5601V31.0661C19.2661 24.5811 24.5691 19.2891 31.0551 19.2891H186.286C192.944 19.2891 198.237 24.5811 198.237 31.0661V65.5601H19.2661Z" fill="#00109F"/>
<path d="M198.226 73.9331H19.2661V280.567H198.226V73.9331Z" fill="#00109F"/>
<path d="M160.496 48.6627C161.18 49.6827 162.721 50.8807 163.738 51.3907C166.646 52.9307 169.217 53.4397 171.938 53.4397C176.21 53.4397 178.77 51.5577 178.77 48.8317C178.77 45.5767 175.517 45.0667 170.572 44.3957C164.259 43.5387 160.843 40.6307 160.843 35.5127C161.005 30.3877 165.8 26.4497 172.794 26.4497C177.565 26.4497 180.82 27.4807 182.87 28.5007V35.1657C182.186 33.9717 180.645 33.1147 179.118 32.4377C177.055 31.7477 175.007 31.4067 172.794 31.4067C169.378 31.4067 167.327 32.7737 167.327 34.4927C167.327 37.3827 170.061 37.7297 176.038 38.9287C182.013 40.1207 185.602 42.6877 185.429 47.9737C185.256 54.1177 180.472 58.2217 171.938 58.2217C168.173 58.2217 163.402 57.5337 160.496 56.0037V48.6627Z" fill="white"/>
<path d="M54.4491 36.3642C54.4491 39.4392 51.8901 40.6312 47.9641 40.6312H40.7951V31.9172H47.9641C51.8901 31.9172 54.4491 33.1152 54.4491 36.3642ZM58.8841 50.0242C57.3551 47.1242 56.1621 44.9062 53.9391 43.8752C58.7221 42.8552 61.1081 40.1222 61.1081 36.0232C61.1081 32.0972 59.3941 29.0272 56.1631 27.8292C54.1141 26.9722 51.5411 26.9722 47.6161 26.9722H31.9121C33.4521 27.9922 34.2981 31.0662 34.2981 33.8052V51.0492C34.2981 53.6082 33.4511 56.8562 31.9121 57.7142H43.1681C41.6401 56.8562 40.7951 53.6082 40.7951 51.0492V45.5762H45.5661C47.9641 45.5762 49.3291 46.4332 50.3491 48.3212C52.0511 51.0492 53.2571 54.8062 55.3061 57.7142H64.3501C61.6291 55.8372 60.2511 52.9302 58.8841 50.0242Z" fill="white"/>
<path d="M82.7991 58.5647C87.0601 58.5647 90.6621 57.3647 93.3841 54.9687C96.6381 52.2467 98.8491 48.1407 98.8491 42.3387C98.8491 36.7107 96.6381 32.4377 93.3841 29.6987C90.6621 27.4807 87.0601 26.2827 82.7991 26.2827C78.5251 26.2827 74.9461 27.4807 72.2021 29.6987C68.9711 32.4377 66.7471 36.7107 66.7471 42.3387C66.7471 48.1407 68.9711 52.2467 72.2021 54.9687C74.9461 57.3647 78.6991 58.5647 82.7991 58.5647ZM76.3131 50.5387C74.4381 48.8307 73.5811 46.1027 73.5811 42.3387C73.5811 38.7487 74.4381 36.0227 76.3131 34.1457C77.8421 32.6047 80.0661 31.5867 82.7991 31.5867C85.5311 31.5867 87.7551 32.6047 89.2841 34.1457C91.1721 36.0217 92.1901 38.7487 92.1901 42.3387C92.1901 46.1037 91.1711 48.8307 89.2841 50.5387C87.7541 52.0787 85.5311 53.0977 82.7991 53.0977C80.0661 53.0977 77.8421 52.0787 76.3131 50.5387Z" fill="white"/>
<path d="M127.201 49.8492C125.486 52.0782 121.908 52.7572 117.982 52.7572H112.005V33.8052C112.005 31.2402 112.852 27.9912 114.218 26.9722H103.124C104.651 27.9922 105.52 31.2412 105.52 33.8052V51.0492C105.52 53.7872 104.651 56.6832 103.124 57.7142H126.169L127.201 49.8492Z" fill="white"/>
<path d="M155.029 49.8492C153.316 52.0782 149.737 52.9302 145.811 52.7572H139.662V33.8052C139.662 31.2402 140.508 27.9912 142.058 26.9722H130.953C132.481 27.9922 133.349 31.2412 133.349 33.8052V51.0492C133.349 53.7872 132.481 56.8562 130.953 57.8752H153.826L155.029 49.8492Z" fill="white"/>
<path d="M216.849 31.0659C216.849 14.1629 203.183 0.50293 186.287 0.50293H31.055C14.147 0.50293 0.480957 14.1629 0.480957 31.0659V323.417C0.480957 340.337 14.147 353.991 31.055 353.991H186.286C203.182 353.991 216.849 340.337 216.849 323.417V31.0659ZM10.903 31.0659C10.903 19.9649 19.948 10.9149 31.055 10.9149H186.286C197.555 10.9149 206.599 19.9649 206.599 31.0659V323.417C206.599 334.522 197.555 343.567 186.286 343.567H31.055C19.949 343.567 10.903 334.522 10.903 323.417V31.0659Z" fill="#00109F"/>
<path d="M19.2661 288.928V323.416C19.2661 329.924 24.5691 335.205 31.0551 335.205H186.286C192.944 335.205 198.237 329.924 198.237 323.416V288.928H19.2661Z" fill="#00109F"/>
<path d="M95.9429 247.606V201.666C100.379 201.503 104.652 201.329 108.926 200.981C107.385 197.391 105.845 193.813 103.969 190.397C101.409 190.732 98.6889 190.732 95.9429 190.907V181.352C89.9659 182.717 83.4819 183.737 76.8229 184.421V247.606C76.8229 261.596 70.3259 265.36 66.4009 267.92H106.355C102.615 265.36 95.9429 261.596 95.9429 247.606Z" fill="white"/>
<path d="M188.845 267.758C185.603 264.677 181.491 259.895 179.454 250.514C175.7 233.258 167.837 208.497 151.277 190.049C167.502 181.178 177.403 167.165 177.403 149.933C177.565 137.628 171.253 124.657 159.985 116.973C155.203 113.886 149.573 111.668 142.904 110.301C145.3 115.427 146.83 120.893 147.176 126.365C154.171 131.82 157.936 140.193 157.936 150.267C157.936 163.076 151.45 178.097 128.741 185.786C130.604 189.365 132.48 193.129 134.021 196.708C135.225 196.373 136.417 196.035 137.622 195.688C148.207 207.987 156.731 227.282 159.29 245.209C161.179 258.191 156.569 264.677 153.501 267.758H188.845Z" fill="white"/>
<path d="M61.2808 170.247V98.53H88.4268C98.3388 98.698 105.683 100.748 111.486 104.836C119.163 110.301 123.275 119.012 123.275 129.434C123.275 147.014 111.138 169.389 61.2808 170.247ZM149.054 247.086C145.636 244.017 141.55 239.232 139.661 229.842C135.908 212.598 128.391 188.347 113.372 171.091C114.044 170.756 114.565 170.581 115.236 170.246C132.319 161.535 142.741 147.014 142.741 129.255C142.904 116.793 136.581 103.985 125.323 96.3C116.44 90.325 104.49 87.939 89.2838 87.939H31.7378C35.6638 90.498 42.1498 94.251 42.1498 108.252V226.773C42.1498 240.936 35.6638 244.527 31.7378 247.086H71.6928C67.9398 244.526 61.2808 240.936 61.2808 226.773V180.831C75.2828 180.831 88.4268 179.118 99.5218 176.222C109.609 188.348 117.125 207.132 119.511 224.376C121.213 237.37 116.778 244.018 113.708 247.087H149.054V247.086Z" fill="white"/>
<path d="M95.9429 160.008V119.533H117.461C115.934 115.086 113.188 111.501 109.447 108.762H66.3999C70.3259 111.326 76.8219 114.917 76.8219 129.086V164.779C83.9919 163.76 90.4759 162.232 95.9429 160.008Z" fill="white"/>
<path d="M135.052 312.159C135.052 317.95 138.469 322.397 144.445 322.397C148.717 322.397 152.643 321.204 154.347 319.155L153.316 325.825C151.787 326.497 149.054 327.354 144.619 327.354C135.053 327.354 128.392 321.713 128.392 312.159C128.392 307.041 130.443 303.103 133.512 300.544C136.245 298.147 139.997 296.78 144.618 296.78C149.054 296.78 151.786 297.636 153.315 298.493V304.817C151.45 302.768 148.716 301.737 144.444 301.737C138.469 301.737 135.052 306.184 135.052 312.159Z" fill="white"/>
<path d="M53.4182 306.346C53.4182 309.252 51.0332 310.445 47.2802 310.445H40.4482V302.258H47.2802C51.0332 302.258 53.4182 303.276 53.4182 306.346ZM57.6922 319.328C56.3252 316.595 55.1312 314.371 53.0822 313.526C57.5292 312.669 59.7412 309.935 59.9152 306.184C59.9152 302.258 58.2112 299.35 55.1312 298.146C53.2562 297.463 50.6952 297.463 46.9322 297.463H32.0752C33.4522 298.32 34.2992 301.227 34.2992 303.947V320.358C34.2992 322.743 33.4522 325.824 32.0752 326.843H42.6602C41.3052 325.823 40.4482 322.742 40.4482 320.358V315.054H44.8842C47.2802 315.054 48.6352 316.074 49.6782 317.786C51.2062 320.357 52.4002 323.925 54.2752 326.668L62.9952 326.843C60.2512 324.806 59.0692 322.223 57.6922 319.328Z" fill="white"/>
<path d="M80.4131 327.528C84.5011 327.528 87.9171 326.335 90.4761 324.11C93.5451 321.551 95.7811 317.614 95.7811 312.159C95.7811 306.694 93.5461 302.768 90.4761 300.022C87.9171 297.983 84.5011 296.78 80.4131 296.78C76.4751 296.78 73.0591 297.983 70.5001 300.022C67.4301 302.768 65.2061 306.694 65.2061 312.159C65.2061 317.614 67.4301 321.552 70.5001 324.11C73.0601 326.335 76.4761 327.528 80.4131 327.528ZM74.2521 319.849C72.5501 318.296 71.6931 315.737 71.6931 312.159C71.6931 308.569 72.5501 306.021 74.2521 304.296C75.7931 302.769 77.8421 301.911 80.5761 301.911C83.1351 301.911 85.1841 302.768 86.7251 304.296C88.4271 306.022 89.2851 308.569 89.2851 312.159C89.2851 315.737 88.4281 318.297 86.7251 319.849C85.1841 321.377 83.1351 322.397 80.5761 322.397C77.8421 322.397 75.7931 321.378 74.2521 319.849Z" fill="white"/>
<path d="M118.653 297.463C119.349 297.983 119.684 298.492 119.511 299.165C119.511 299.859 119.162 300.879 118.491 301.91L112.677 310.271L106.875 301.736C106.192 300.716 105.521 299.698 105.683 298.83C105.845 298.32 106.031 297.81 106.703 297.463H94.9229C96.9619 298.32 97.9919 299.859 99.5219 302.083L109.099 315.564V320.358C109.099 322.743 108.242 325.824 106.875 326.669H117.46C116.093 325.824 115.236 322.743 115.236 320.358V315.564L123.956 303.275C125.323 301.573 127.2 298.492 129.249 297.462L118.653 297.463Z" fill="white"/>
<path d="M175.354 322.061H167.837V314.036H179.118L179.789 309.589H167.837V302.259H174.497C178.26 302.259 181.33 302.419 182.87 303.948V297.464H159.475C160.842 298.493 161.688 301.574 161.688 303.948V320.359C161.688 322.907 160.842 325.825 159.475 326.844H183.043L184.061 319.662C182.349 321.887 179.119 322.061 175.354 322.061Z" fill="white"/>
</g>
<defs>
<clipPath id="clip0_150_47">
<rect width="217" height="354" fill="white"/>
</clipPath>
</defs>
</svg>
