<?xml version="1.0" encoding="utf-8"?>
<svg xmlns="http://www.w3.org/2000/svg" id="Capa_1" x="0px" y="0px" viewBox="-39.184 11.262 201.315 48.938" style="enable-background:new 0 0 214 70;">
  <style type="text/css"> .st0{fill:#E60023;} .st1{fill:#FFFFFF;} </style>
  <g transform="matrix(1, 0, 0, 1, -44.778999, 1.356)">
    <path class="st0" d="M85,27.4h6.3v20H85V27.4z"/>
    <path class="st0" d="M92.7,27.4h6.1v2.7H99c1.6-2.2,3.3-3.3,6.1-3.3s6.9,3.1,6.9,7.4v12.9h-6.3V35.6c0-2.2-1-3.5-3.1-3.5 c-2.2,0-3.5,1.8-3.5,4.1v11h-6.3L92.7,27.4L92.7,27.4z"/>
    <circle class="st0" cx="88.1" cy="22.1" r="3.7"/>
    <path class="st0" d="M156.5,27.2h-0.6c-2.4,0-4.1,1-5.5,3.3h-0.2v-3.1h-6.1v20h6.3v-9c0-4.1,2.4-6.1,5.9-5.7L156.5,27.2z"/>
    <path class="st0" d="M187.5,34.8c-2.5-0.4-4.7-0.6-4.7-2.2s1.2-1.8,2.7-1.8c1.6,0,2.9,0.6,3.1,2.4h5.9c-0.4-3.9-3.3-6.5-9-6.5 s-8.6,2.2-8.6,6.5s3.7,5.7,7.1,6.3c3.3,0.6,5.1,0.6,5.1,2.4s-1.2,2-3.1,2c-2,0-3.1-0.8-3.5-2.4h-5.9c0.4,4.1,4.1,6.7,9.6,6.7 s9-2.2,9-6.7C195.1,37,191,35.4,187.5,34.8z"/>
    <path class="st0" d="M166.7,43.3c-2.5,0-4.1-1.8-4.5-4.3h14.3c0-4.1-1.2-7.4-3.5-9.6s-3.9-2.5-6.9-2.5c-6.1,0-10.2,4.5-10.2,10.6 S160.1,48,166.5,48c2.5,0,4.5-0.6,6.3-1.8c1.7-1.1,2.8-2.8,3.3-4.7h-6.3C169.5,42.7,168.3,43.3,166.7,43.3z M166.3,31.3 c2.2,0,3.5,1.6,3.7,3.9h-7.8C162.6,32.9,163.8,31.3,166.3,31.3z"/>
    <path class="st0" d="M206.3,42.7h-1c-1.4,0-2.2-0.4-2.2-2v-9.4h3.3v-3.9h-3.3v-6.3h-6.3v6.3h-2v3.9h2v10.8c0,4.3,2.5,5.5,6.3,5.5 h3.1L206.3,42.7L206.3,42.7z"/>
    <path class="st0" d="M123.2,42.7h-0.8c-1.4,0-2.2-0.4-2.2-2v-9.4h2.9v-3.9h-2.9v-6.3H114v6.3h-2v3.9h2.2v10.8 c0,4.3,2.5,5.5,6.3,5.5h2.9L123.2,42.7z"/>
    <path class="st0" d="M123,37.4c0-5.9,4.1-10.6,10.2-10.6c2.7,0,5.1,1,6.9,2.5c1.8,1.6,3.5,5.7,3.5,9.6h-14.5c0.4,2.7,2,4.3,4.5,4.3 s2.7-0.8,3.3-2h6.3c-0.5,1.9-1.7,3.6-3.3,4.7c-1.8,1.2-3.7,1.8-6.3,1.8C126.9,48,123,43.3,123,37.4z M137.1,35.2 c-0.2-2.4-1.8-3.9-3.7-3.9c-2,0-3.7,1.6-4.1,3.9H137.1z"/>
    <path class="st0" d="M62.7,19.6h11c3.3,0,5.9,1,7.6,2.5C83,23.7,84,26.2,84,29c0,5.3-3.7,9-9.4,9h-5.5v9.2h-6.5V19.6H62.7z M73.8,32.7c2.5,0,3.9-1.6,3.9-3.7c0-2.2-1.4-3.5-3.9-3.5h-4.7v7.3h4.7V32.7z"/>
    <circle class="st1" cx="30.1" cy="34.2" r="23.9"/>
    <path class="st0" d="M30.1,10.3c-13.2-0.1-24,10.6-24,23.8c0,10,6.1,18.9,15.4,22.4c-0.2-2-0.4-4.7,0-6.9l2.7-12 c-0.5-1.1-0.8-2.3-0.8-3.5c0-3.3,2-5.9,4.3-5.9s2.9,1.6,2.9,3.3c0,1.8-1.4,5.1-2,8s1.2,4.3,3.5,4.3s7.4-4.5,7.4-11s-4.1-9.8-10-9.8 s-10.6,5.3-10.6,10.6c0,2,0.8,4.3,1.8,5.5c0.1,0.2,0.2,0.4,0.2,0.6l-0.6,2.7c-0.2,0.4-0.4,0.6-0.8,0.4c-2.9-1.4-4.9-5.7-4.9-9.2 c0-7.4,5.5-14.5,15.9-14.5S45.2,25,45.2,32.8S40.1,48,33.1,48c-2.4,0-4.7-1.2-5.5-2.7L26,51c-0.6,2.2-2,4.7-2.9,6.3 c12.7,3.7,26-3.5,29.7-16.2s-3.5-26-16.2-29.7C34.5,10.7,32.3,10.4,30.1,10.3z"/>
  </g>
</svg>
