<?xml version="1.0" encoding="utf-8"?>
<svg xmlns="http://www.w3.org/2000/svg" xmlns:xlink="http://www.w3.org/1999/xlink" id="Index" x="0px" y="0px" viewBox="0 0 566.9 566.9" style="enable-background:new 0 0 566.9 566.9;" xml:space="preserve">
<style type="text/css">
	.st0{fill-rule:evenodd;clip-rule:evenodd;fill:#67A0D5;}
</style>
<path class="st0" d="M454.7,196.6h-45.1L346.4,370h45.1L454.7,196.6L454.7,196.6z M283.2,566.6c-2.8,0-5.6-0.1-8.4-0.1l57.9-159.1  h79.6c14,0,29.4-10.7,34.1-23.9l62.8-172.5c10.3-28.3-5.9-51.3-36-51.3H362.8l-92.7,254.8h0l-52.6,144.4C92.8,529.2,0,417.1,0,283.3  C0,153.3,87.5,43.8,206.8,10.5l-54.3,149.1h0L62.3,407.3h60l76.7-210.5h45.1l-76.7,210.5l60,0L299,210.9  c10.3-28.3-5.9-51.3-35.9-51.3h-50.5L270.5,0.3C274.8,0.1,279,0,283.2,0c156.5,0,283.3,126.8,283.3,283.3  C566.5,439.7,439.7,566.6,283.2,566.6z"/>
</svg>
