<?xml version="1.0" encoding="utf-8"?>
<svg xmlns:cc="http://creativecommons.org/ns#" xmlns:dc="http://purl.org/dc/elements/1.1/" xmlns:inkscape="http://www.inkscape.org/namespaces/inkscape" xmlns:rdf="http://www.w3.org/1999/02/22-rdf-syntax-ns#" xmlns:sodipodi="http://sodipodi.sourceforge.net/DTD/sodipodi-0.dtd" xmlns:svg="http://www.w3.org/2000/svg" xmlns="http://www.w3.org/2000/svg" xmlns:xlink="http://www.w3.org/1999/xlink" id="logosvg.com" x="0px" y="0px" viewBox="0 0 400 48.3" style="enable-background:new 0 0 400 48.3;" xml:space="preserve">
<style type="text/css">
	.st0{fill:#001884;}
	.st1{fill:#439CD6;}
</style>
<path id="viacom" class="st0" d="M259.1,24v-0.1c0-6.4,2.3-14,6.2-18.3V1h-13.9l-11.3,18.3  L228.8,1H215v47.3h12.8V21.2l12,18.5h0.3l12.1-18.5v27.2h13.1v-5.9C261.5,38.1,259.1,30.6,259.1,24L259.1,24z M199.3,24.7v-0.1  c0-6.9-4.9-12.8-12.1-12.8c-7.2,0-12,5.8-12,12.7v0.1c0,6.8,4.9,12.8,12.2,12.8C194.5,37.3,199.3,31.5,199.3,24.7L199.3,24.7z   M161.7,24.7v-0.1c0-13.6,11-24.6,25.6-24.6s25.4,10.9,25.4,24.5v0.1c0,13.6-11,24.6-25.6,24.6C172.5,49.2,161.7,38.3,161.7,24.7  L161.7,24.7z M118.1,24.7v-0.1C118.1,10.8,128.7,0,143,0c9.7,0,15.9,4.1,20.1,9.8l-9.9,7.7c-2.7-3.3-5.8-5.5-10.3-5.5  c-6.6,0-11.3,5.7-11.3,12.6v0.1c0,7.1,4.7,12.7,11.3,12.7c4.9,0,7.8-2.3,10.7-5.7l9.9,7c-4.5,6.2-10.5,10.7-20.9,10.7  C129,49.2,118.1,38.9,118.1,24.7L118.1,24.7z M101.2,29.5L96,16.1l-5.3,13.4H101.2z M89.7,0.6h12.7l20.2,47.7h-14.1l-3.4-8.5H86.8  l-3.4,8.5H69.7L89.7,0.6z M54.3,0.9h13.1v47.3H54.3V0.9z M1.5,0.9h14.6l10.8,30l10.8-30H52L32.8,48.6H20.7L1.5,0.9"/>
<path id="cbs" class="st1" d="M265.2,24.7v-0.1c0-13.8,10.5-24.6,24.9-24.6c9.7,0,15.9,4.1,20.1,9.8l-9.9,7.7  c-2.7-3.3-5.8-5.5-10.4-5.5c-6.6,0-11.3,5.7-11.3,12.6v0.1c0,7.1,4.7,12.7,11.3,12.7c4.9,0,7.8-2.3,10.7-5.7l9.9,7  c-4.5,6.2-10.5,10.7-20.9,10.7C276.1,49.2,265.2,38.9,265.2,24.7 M336.3,29h-10v8.7h10.2c4.1,0,6.3-1.6,6.3-4.3v-0.1  C342.7,30.7,340.7,29,336.3,29L336.3,29z M340.8,15.5c0-2.6-2.1-4.1-6-4.1h-8.6v8.3h8.3C338.5,19.7,340.8,18.3,340.8,15.5  L340.8,15.5L340.8,15.5z M313.5,0.9h24.3c6,0,10.1,1.5,12.9,4.2c2,2.1,3.1,4.8,3,7.7v0.1c0,5.5-3.1,8.7-7.3,10.5  c5.7,1.9,9.4,5.1,9.4,11.6v0.1c0,8.1-6.6,13.1-17.9,13.1h-24.4V0.9 M357.1,41.2l7.3-8.7c4.7,3.7,9.9,5.7,15.4,5.7  c3.6,0,5.5-1.2,5.5-3.3v-0.1c0-2-1.6-3-8-4.6c-10.1-2.3-17.9-5.1-17.9-14.8v-0.1c0-8.8,7-15.1,18.3-15.1c8,0,14.3,2.2,19.5,6.3  l-6.6,9.3c-4.3-3.1-9.1-4.7-13.3-4.7c-3.2,0-4.7,1.3-4.7,3v0.1c0,2.2,1.6,3.1,8.3,4.6c10.8,2.4,17.6,5.9,17.6,14.7v0.1  c0,9.7-7.6,15.4-19.1,15.4C370.9,49.1,363,46.4,357.1,41.2"/>
</svg>
