<?xml version="1.0" encoding="utf-8"?>
<svg xmlns="http://www.w3.org/2000/svg" xmlns:xlink="http://www.w3.org/1999/xlink" id="Layer_1" x="0px" y="0px" viewBox="0 0 535.1 114.5" style="enable-background:new 0 0 535.1 114.5;" xml:space="preserve">
<style type="text/css">
	.Arched_x0020_Green{fill:url(#SVGID_1_);stroke:#FFFFFF;stroke-width:0.25;stroke-miterlimit:1;}
	.st0{fill:#00527D;}
	.st1{fill:#009BDB;}
</style>
<linearGradient id="SVGID_1_" gradientUnits="userSpaceOnUse" x1="-128.4692" y1="363.3938" x2="-127.7621" y2="362.6867">
	<stop offset="0" style="stop-color:#64A13C"/>
	<stop offset="0.9831" style="stop-color:#283918"/>
</linearGradient>
<g>
	<g>
		<path class="st0" d="M125.9,112.3l2-2.4c1.4,1.1,2.8,1.9,4.6,1.9c1.4,0,2.2-0.6,2.2-1.5v0c0-0.9-0.5-1.3-3.1-2    c-3.1-0.8-5.1-1.7-5.1-4.7v0c0-2.8,2.2-4.6,5.4-4.6c2.2,0,4.2,0.7,5.7,2l-1.8,2.6c-1.4-0.9-2.7-1.5-4-1.5s-2,0.6-2,1.3v0    c0,1,0.7,1.3,3.3,2c3.1,0.8,4.9,1.9,4.9,4.6v0c0,3.1-2.3,4.8-5.7,4.8C130.1,114.7,127.7,113.9,125.9,112.3z"/>
		<path class="st0" d="M151.7,99h3.1l6.6,15.5h-3.5l-1.4-3.5H150l-1.4,3.5h-3.5L151.7,99z M155.3,108.1l-2-5l-2,5H155.3z"/>
		<path class="st0" d="M171.2,102.2h-4.7v-3.1h12.8v3.1h-4.7v12.3h-3.4V102.2z"/>
		<path class="st0" d="M187.6,99.1h11.6v3h-8.3v3.1h7.3v3h-7.3v3.2h8.4v3h-11.7V99.1z"/>
		<path class="st0" d="M208,99.1h3.4v12.3h7.7v3.1H208V99.1z"/>
		<path class="st0" d="M227.4,99.1h3.4v12.3h7.7v3.1h-11.1V99.1z"/>
		<path class="st0" d="M246.9,99.1h3.4v15.4h-3.4V99.1z"/>
		<path class="st0" d="M263.4,102.2h-4.7v-3.1h12.8v3.1h-4.7v12.3h-3.4V102.2z"/>
		<path class="st0" d="M279.8,99.1h11.6v3h-8.3v3.1h7.3v3h-7.3v3.2h8.4v3h-11.7V99.1z"/>
		<path class="st0" d="M312.6,99.1h7c2,0,3.5,0.6,4.5,1.6c0.9,0.9,1.3,2.1,1.3,3.5v0c0,2.5-1.3,4.1-3.3,4.8l3.8,5.5h-4l-3.3-4.9h0    H316v4.9h-3.4V99.1z M319.5,106.6c1.7,0,2.6-0.9,2.6-2.2v0c0-1.5-1-2.2-2.7-2.2H316v4.4H319.5z"/>
		<path class="st0" d="M339.6,99h3.1l6.6,15.5h-3.5l-1.4-3.5h-6.5l-1.4,3.5H333L339.6,99z M343.1,108.1l-2-5l-2,5H343.1z"/>
		<path class="st0" d="M357.4,99.1h6c4.8,0,8.2,3.3,8.2,7.7v0c0,4.3-3.3,7.7-8.2,7.7h-6V99.1z M363.4,111.5c2.8,0,4.6-1.9,4.6-4.6v0    c0-2.7-1.9-4.6-4.6-4.6h-2.6v9.3H363.4z"/>
		<path class="st0" d="M380.5,99.1h3.4v15.4h-3.4V99.1z"/>
		<path class="st0" d="M392.8,106.9L392.8,106.9c0-4.4,3.5-8,8.2-8c4.8,0,8.2,3.5,8.2,7.9v0c0,4.4-3.5,8-8.2,8    C396.2,114.8,392.8,111.2,392.8,106.9z M405.6,106.9L405.6,106.9c0-2.7-1.9-4.9-4.7-4.9c-2.7,0-4.6,2.2-4.6,4.8v0    c0,2.6,1.9,4.8,4.7,4.8S405.6,109.5,405.6,106.9z"/>
	</g>
	<g>
		<g>
			<path class="st1" d="M512,7.6L512,7.6c8.7,12.7,13.3,27.6,13.3,43c0,15.5-4.6,30.4-13.4,43.1c-1.5,2.2-1,5.3,1.3,6.8     c2.2,1.5,5.3,1,6.8-1.3c9.9-14.4,15.1-31.2,15.1-48.7c0-17.4-5.2-34.2-15-48.6c-1.5-2.2-4.6-2.8-6.8-1.3     C511.1,2.4,510.5,5.4,512,7.6"/>
			<path class="st1" d="M496.5,87.2L496.5,87.2c2.2,1.6,5.2,1.2,6.8-1c7.7-10.3,11.8-22.5,11.8-35.4c0-13-4.1-25.3-12-35.7     c-1.6-2.2-4.7-2.6-6.8-0.9c-2.2,1.6-2.6,4.7-0.9,6.8l0,0c6.5,8.6,10,18.9,10,29.7c0,10.8-3.4,21-9.8,29.5     C494,82.5,494.4,85.6,496.5,87.2"/>
			<path class="st1" d="M479.2,75.3L479.2,75.3c2.1,1.7,5.2,1.4,6.9-0.8c5.4-6.8,8.4-15.3,8.4-24c0-8.6-2.8-16.8-8.1-23.6     c-1.7-2.1-4.7-2.5-6.9-0.8c-2.1,1.7-2.5,4.7-0.8,6.9l0,0c4,5,6,11.1,6,17.5c0,6.6-2.2,12.7-6.3,17.8l0,0     C476.7,70.5,477.1,73.6,479.2,75.3"/>
		</g>
		<g>
			<path class="st1" d="M23.1,93.8C14.4,81.1,9.8,66.2,9.8,50.7c0-15.5,4.6-30.3,13.3-43c1.5-2.2,1-5.3-1.3-6.8     c-2.2-1.5-5.3-1-6.8,1.3C5.2,16.5,0,33.3,0,50.7C0,68.2,5.2,85,15.1,99.4l0,0c1.5,2.2,4.6,2.8,6.8,1.3     C24.1,99.1,24.7,96.1,23.1,93.8C23.1,93.8,24.7,96.1,23.1,93.8C23.1,93.8,24.7,96.1,23.1,93.8L23.1,93.8z"/>
			<path class="st1" d="M39.7,21.1c1.6-2.1,1.2-5.2-0.9-6.8c-2.1-1.6-5.2-1.2-6.8,0.9l0,0c-7.8,10.3-12,22.6-12,35.7     c0,12.9,4.1,25.1,11.8,35.4c1.6,2.2,4.7,2.6,6.8,1c2.2-1.6,2.6-4.7,1-6.8c-6.4-8.6-9.8-18.8-9.8-29.5     C29.7,40,33.1,29.7,39.7,21.1L39.7,21.1L39.7,21.1L39.7,21.1L39.7,21.1z"/>
			<path class="st1" d="M40.6,50.6c0,8.7,3,17.2,8.4,24c1.7,2.1,4.8,2.4,6.9,0.8c2.1-1.7,2.4-4.8,0.7-6.9     c-4.1-5.1-6.3-11.3-6.3-17.8c0-6.4,2.1-12.5,6-17.5l0,0c1.7-2.1,1.3-5.2-0.8-6.9c-2.1-1.7-5.2-1.3-6.9,0.8     C43.4,33.8,40.6,41.9,40.6,50.6C40.6,50.6,40.6,41.9,40.6,50.6C40.6,50.6,40.6,41.9,40.6,50.6L40.6,50.6z"/>
		</g>
	</g>
	<g>
		<path class="st0" d="M87.8,61.4c0,2.3,0.9,4,2.4,5.2c1.4,1.1,3.3,1.7,5.5,1.7c3.4,0,7.1-1.1,7.1-5.1c0-9-34.6-1.8-34.6-23.7    c0-14.4,15-18.6,26.7-18.6c12.3,0,26.7,2.8,28,17.8h-20.4c-0.2-1.8-1-3.1-2.2-4.1c-1.2-1-2.8-1.4-4.5-1.4c-3.9,0-6.4,1.2-6.4,4    c0,7.9,35.7,2.6,35.7,23.7c0,11.7-9.7,19.7-30.4,19.7c-12.9,0-27.1-4-28.3-19.2H87.8z"/>
		<path class="st0" d="M128.9,21h18.2v8.7h-18.2V21z M128.9,79.3V33.4h18.2v45.9H128.9z"/>
		<path class="st0" d="M151.9,33.4h16.5v9.3h0.2c2.5-7.2,7-10.6,14.1-10.6c0.8,0,1.6,0.2,2.4,0.3v18.2c-1.2-0.2-2.5-0.5-3.8-0.5    c-7.4,0-11.2,3.5-11.2,13.4v15.8h-18.2V33.4z"/>
		<path class="st0" d="M189,21h18.2v8.7H189V21z M189,79.3V33.4h18.2v45.9H189z"/>
		<path class="st0" d="M261.5,79.3h-16.9v-6.7c-4.5,6.3-9,8.1-16.5,8.1c-10,0-16.4-6.1-16.4-19.2V33.4h18.2v24.8    c0,6.3,2.2,8.3,6.6,8.3c5.2,0,6.9-3.9,6.9-11V33.4h18.2V79.3z"/>
		<path class="st0" d="M280.8,65c0,1.8,0.7,3.2,1.9,4.2c1.1,0.9,2.7,1.4,4.5,1.4c2.8,0,5.8-0.9,5.8-4.1c0-7.3-28.1-1.5-28.1-19.2    c0-11.7,12.2-15.1,21.7-15.1c10,0,21.7,2.3,22.8,14.4h-16.5c-0.2-1.5-0.8-2.5-1.8-3.3c-1-0.8-2.3-1.1-3.7-1.1    c-3.2,0-5.2,1-5.2,3.2c0,6.4,29,2.1,29,19.3c0,9.5-7.9,16-24.7,16c-10.5,0-22.1-3.2-23-15.6H280.8z"/>
		<path class="st0" d="M328.8,49.4l-18.6-26.9h24.9l7.1,14.1l7.5-14.1h24.6L355,49.3L374.5,79h-25l-8-16.2L333.4,79h-24.8    L328.8,49.4z"/>
		<path class="st0" d="M375.9,22.5h20.6v8.4c2.8-4.3,7.9-10,16-10c9.3,0,15,4.3,17.7,10.3c4.8-6.8,9.1-10.3,17.3-10.3    c14.2,0,21.2,9.3,21.2,24.7V79h-22.4V50.2c0-8.3-0.5-11.6-6.5-11.6c-6.3,0-6.2,5.7-6.2,12.5V79h-22.4V50.2    c0-8.3-0.5-11.5-6.5-11.6c-6.2-0.2-6.3,5.7-6.3,12.5V79h-22.4V22.5z"/>
	</g>
	<path class="st0" d="M462.4,17.4h-2v-1h5v1h-2v5.2h-1.1V17.4z"/>
	<path class="st0" d="M466.6,16.4h1.2l1.9,2.9l1.9-2.9h1.2v6.2h-1.1v-4.4l-1.9,2.9h0l-1.9-2.9v4.4h-1.1V16.4z"/>
</g>
</svg>
