<svg xmlns="http://www.w3.org/2000/svg" xmlns:xlink="http://www.w3.org/1999/xlink" width="97" height="43" viewBox="0 0 97 43">
  <defs>
    <clipPath id="clip-path">
      <rect id="Rectangle_11208" data-name="Rectangle 11208" width="97" height="43" transform="translate(-0.256 0.344)"/>
    </clipPath>
  </defs>
  <g id="Artboard_10" data-name="Artboard – 10" transform="translate(0.256 -0.344)" clip-path="url(#clip-path)">
    <g id="disney" transform="translate(15.859 8.581)">
      <path id="Path_111137" data-name="Path 111137" d="M35.447,60.612a1.966,1.966,0,0,1,1.2.478A1.634,1.634,0,0,1,37,62.812a7.023,7.023,0,0,1-4.185,3.252,4.723,4.723,0,0,1-2.583-.1c-.359.215-.662.911-1.1.622-.634-.5-.085-1.271-.452-1.821-.076-.114-.266-.121-.362-.307-.5-1.1.121-2.152.813-2.989,1.156-1.29,4.473-2.727,6.314-.861Zm-3.85.861a3.174,3.174,0,0,0-1.769.861c-.395.46-.646.908-.406,1.387.837-.622,1.244-1.483,2.176-2.01C31.6,61.616,31.741,61.544,31.6,61.472Zm3.9.24c-1.651-.144-2.894,1.1-4.066,2.3-.072.191-.5.406-.167.622A5.427,5.427,0,0,0,35.5,63.267a1.059,1.059,0,0,0,.407-1.148.845.845,0,0,0-.407-.407Zm14.3,7.126c.765,1.865,1.411,4.807,0,6.6-.383.431-1.05.827-1.482.5-1.579-1.267-2.248-3.085-3.228-4.711-.143-.072-.143.121-.215.191-.358,1.65.311,3.8-.813,5.093a.861.861,0,0,1-.98-.574c-.551-1.7.023-3.468.166-5.165a5.74,5.74,0,0,1,1.22-2.511c1.2.478,1.769,1.818,2.464,2.8a24.193,24.193,0,0,0,1.482,2.248c.5-.215.255-.871.24-1.267a31.175,31.175,0,0,0-1.029-4.473c-.023-.383-.238-1.028.167-1.267A4.786,4.786,0,0,1,49.8,68.838Zm-7.222-.574a.993.993,0,0,1-.528.86c-2.3.358-4.854.143-7.007.86-.071.263.239.311.406.383,1.841.287,3.779.358,5.572.813.948.242,1.293,1.363,1.363,2.3a2.443,2.443,0,0,1-.957,2.128,6.486,6.486,0,0,1-6.266.048,2.421,2.421,0,0,1-1.387-1.769,1.43,1.43,0,0,1,.694-1.315,6.311,6.311,0,0,1,5.332.574c.095.478-.421.454-.67.622-1.651.957-2.893-1.075-4.424-.335-.215.143-.371.544-.121.67,1.889.837,3.994.239,5.857-.287.215-.071.478-.287.5-.5-.071-.765-.933-.933-1.482-1.148a35.935,35.935,0,0,0-5.165-.574,1.262,1.262,0,0,1-.86-.574,1.946,1.946,0,0,1,.239-1.842c2.224-1.961,5.6-1.794,8.418-1.267.191.07.407.142.479.357Zm-10.45.908a58.379,58.379,0,0,1,.287,6.839c-.048.311-.406.383-.646.5a1.2,1.2,0,0,1-1.028-.215c-.551-.885-.358-2.08-.406-3.156a21.308,21.308,0,0,1,.525-5.118c.091-.229.358-.431.574-.287a1.484,1.484,0,0,1,.693,1.436Zm26.569-.335c.115.194.236.492,0,.622-1.076.478-2.535.263-3.779.406a1.252,1.252,0,0,0-.479,1.2c.121.071.227.181.36.167.765.048,1.912-.358,2.416.358.121.213-.017,1.01-.358,1.028-.933.121-2.467-.117-2.917.121-.574.383-.525,1.124-.742,1.722.407.263.833-.006,1.315-.072a7.673,7.673,0,0,1,2.75-.215c.167.311.407.646.239,1.028-1.508,1.2-3.452,2.421-5.524,1.556a2.209,2.209,0,0,1-.86-2.534c.167-.718.908-1.411.454-2.176a.569.569,0,0,1,.407-.693c.789,0,.621-.98,1.028-1.435-.454-.5-1.6-.478-1.482-1.482a5.834,5.834,0,0,1,1.841-.287,14.483,14.483,0,0,1,4.425-.287c.285.057.668.62.907.979ZM24.541,63.384c2.207,1.806,5.07,4.881,4.712,8.42-.431,2.8-3.4,4.9-5.907,5.572a16.7,16.7,0,0,1-7.988.072c-.167.454-.335,1-.86,1.2a1.123,1.123,0,0,1-1.028-.167c-.741-.694-.143-2.033-1.22-2.464A11.066,11.066,0,0,1,6.8,71.229a1.285,1.285,0,0,1,.287-1.2,13.1,13.1,0,0,1,5.812-2.248c.121.048.071-.121.167-.167a17.077,17.077,0,0,1,.622-4.185.373.373,0,0,1,.525-.121c1.315,1.005.693,2.894,1.267,4.256,2.511.121,5.022.239,7.007,1.651a2.177,2.177,0,0,1,.622,2.2,1.829,1.829,0,0,1-1.556,1.075c-.431,0-1.244.04-1.2-.286s1.463-.867,1.028-1.316c-.625-.646-3.751-1.028-5.688-1.267-.239-.048-.458.024-.458.287a28.686,28.686,0,0,0,.121,5.572.429.429,0,0,0,.287.286c3.42.551,7.029.239,9.709-1.722a4.1,4.1,0,0,0,1.435-3.97c-1.075-4.326-5.6-6.933-9.3-8.607A26.158,26.158,0,0,0,5.6,59.3c-.681.05-1.762.285-1.769.525s1.224.165,1.076.622-1.4.185-1.769.071-.335-.646-.239-.98c.931-1.649,3.535-1.781,4.711-1.841a26.533,26.533,0,0,1,16.93,5.693ZM12.824,69.794A14.86,14.86,0,0,0,7.9,70.56c-.311.121-.694.454-.454.861a7.918,7.918,0,0,0,2.343,2.01,9.024,9.024,0,0,0,2.942,1.244,27.756,27.756,0,0,0,.215-4.686C12.848,69.938,12.944,69.843,12.824,69.794Zm49.431-2.176c-.072,2.08-2.01,3.371-2.01,5.453.071.071.121.167.215.121,1.556-1.7,3.085-4.113,5.357-4.83a1.627,1.627,0,0,1,1.363.861,5.225,5.225,0,0,1-.5,5.237,6.353,6.353,0,0,1-5.356,2.582,30.672,30.672,0,0,0-1.939,7.222c-.191.5-.646.048-.932-.048-1.939-1.531-.347-5.582-.215-6.1s.646-1.732,1.029-2.75c-.908-1.626-.335-3.587.406-5.094a10.157,10.157,0,0,1,2.3-2.774.323.323,0,0,1,.286.121ZM66.106,70.2c-.287-.048-.407.335-.646.407a13.331,13.331,0,0,0-2.75,3.97,4.053,4.053,0,0,0,2.01-.646,3.5,3.5,0,0,0,1.722-3.156c-.048-.216-.24-.383-.335-.574Z" transform="translate(-2.836 -57.688)"/>
    </g>
  </g>
</svg>
