<svg xmlns="http://www.w3.org/2000/svg" xmlns:xlink="http://www.w3.org/1999/xlink" width="97" height="43" viewBox="0 0 97 43">
  <defs>
    <clipPath id="clip-path">
      <rect id="Rectangle_11203" data-name="Rectangle 11203" width="97" height="43" transform="translate(-0.088)"/>
    </clipPath>
  </defs>
  <g id="Artboard_3" data-name="Artboard – 3" transform="translate(0.088)" clip-path="url(#clip-path)">
    <g id="american-express" transform="translate(16.975 10.893)">
      <path id="Path_35" data-name="Path 35" d="M242.072,187.692a2,2,0,0,0-.821-.1H239.2v1.641h2.052a2,2,0,0,0,.821-.1.8.8,0,0,0,.308-.718.57.57,0,0,0-.308-.718Z" transform="translate(-208.526 -184.611)"/>
      <path id="Path_36" data-name="Path 36" d="M55.5,164.4v1.231l-.616-1.231H50.064v1.231l-.616-1.231H42.883a6.246,6.246,0,0,0-2.872.616V164.4H35.394v.616a2.958,2.958,0,0,0-1.949-.616H16.926L15.8,166.96,14.67,164.4H9.438v1.231L8.823,164.4H4.412l-2.052,4.822L0,174.552H5.232l.616-1.641H7.284l.616,1.641h5.95v-1.229l.513,1.231h2.975l.513-1.231v1.231H32.11v-2.666h.206c.205,0,.205,0,.205.308v2.257h7.387v-.616a6.146,6.146,0,0,0,2.77.616h3.078l.616-1.642h1.436l.616,1.642h5.949v-1.539l.923,1.539h4.822V164.4Zm-34.677,8.617H19.082V167.37l-2.464,5.642H15.079l-2.464-5.642v5.642H9.129l-.718-1.539H4.924l-.616,1.641H2.359l3.078-7.284H8l2.872,6.874v-6.873h2.77l2.257,4.924,2.052-4.924h2.872ZM27.8,167.37h-4V168.7h3.9v1.436H23.8v1.436h4v1.539H22.056v-7.283H27.8Zm7.694,2.975a2.567,2.567,0,0,1,.308,1.333v1.436H34.06v-.923a2.444,2.444,0,0,0-.308-1.436c-.308-.308-.616-.308-1.231-.308H30.674v2.666H28.931v-7.282h3.9a3.931,3.931,0,0,1,2.052.308,1.748,1.748,0,0,1,.821,1.641,1.87,1.87,0,0,1-1.223,1.839,2.01,2.01,0,0,1,1.018.726Zm3.078,2.666H36.83v-7.283h1.744Zm20.21,0H56.321l-3.283-5.437v5.437H49.55l-.616-1.539H45.343l-.616,1.641H42.778a3.085,3.085,0,0,1-3.388-3.591,4.205,4.205,0,0,1,.923-2.872,3.234,3.234,0,0,1,2.565-.821H44.52v1.539H42.879a1.892,1.892,0,0,0-1.333.41,2.409,2.409,0,0,0-.513,1.641,2.232,2.232,0,0,0,.513,1.744,1.635,1.635,0,0,0,1.231.41H43.5l2.359-5.642H48.42l2.872,6.874v-6.872h2.565l2.975,5.027v-5.027h1.744v7.079Z" transform="translate(0 -164.392)"/>
      <g id="Group_5" data-name="Group 5" transform="translate(25.853 2.671)">
        <path id="Path_37" data-name="Path 37" d="M358.4,188.072h2.359l-1.129-2.872Z" transform="translate(-338.292 -185.2)"/>
        <path id="Path_38" data-name="Path 38" d="M204.266,283.048V277.2l-2.666,2.872Z" transform="translate(-201.6 -265.402)"/>
      </g>
      <path id="Path_39" data-name="Path 39" d="M136.8,282.8v1.333h3.8v1.436h-3.8v1.539h4.206l1.949-2.154-1.846-2.154Z" transform="translate(-119.257 -267.613)"/>
      <path id="SVGCleanerId_0" d="M238.154,282.793H236v1.846h2.257c.616,0,1.026-.308,1.026-.923A1.035,1.035,0,0,0,238.154,282.793Z" transform="translate(-205.736 -267.606)"/>
      <path id="Path_40" data-name="Path 40" d="M161.059,265.008v-4.617H156.75a3.366,3.366,0,0,0-2.154.616v-.616h-4.719a3.255,3.255,0,0,0-2.052.616v-.616h-8.308v.616a3.965,3.965,0,0,0-2.257-.616h-5.542v.616a3.893,3.893,0,0,0-2.359-.616H123.2l-1.436,1.539-1.333-1.539H111.2v10.054h9.028l1.436-1.539L123,270.445h5.54v-2.359h.719a6.241,6.241,0,0,0,2.359-.308v2.77h4.617v-2.666h.205c.308,0,.308,0,.308.308v2.359H150.7a4.022,4.022,0,0,0,2.359-.616v.616h4.411a4.618,4.618,0,0,0,2.464-.513h0a3.492,3.492,0,0,0,1.641-3.078A3.929,3.929,0,0,0,161.059,265.008Zm-31.8,1.641H127.2v2.464h-3.283l-2.067-2.358-2.141,2.358h-6.77v-7.286h6.874l2.052,2.359,2.154-2.359h5.437c1.333,0,2.872.41,2.872,2.359-.1,2.052-1.538,2.462-3.076,2.462Zm10.26-.41a2.328,2.328,0,0,1,.308,1.333v1.436h-1.745v-.923a2.291,2.291,0,0,0-.308-1.436c-.205-.308-.616-.308-1.231-.308h-1.846v2.666h-1.744v-7.282h3.9a4.129,4.129,0,0,1,2.052.308,1.815,1.815,0,0,1,.923,1.641,2.042,2.042,0,0,1-1.231,1.949,1.755,1.755,0,0,1,.925.616Zm7.079-2.975h-4V264.6h3.9v1.436h-3.9v1.436h4v1.539H140.85v-7.284h5.745Zm4.309,5.745h-3.283v-1.539H150.9a.866.866,0,0,0,.718-.205.744.744,0,0,0,0-1.026.867.867,0,0,0-.616-.205c-1.642-.1-3.591,0-3.591-2.257,0-1.026.616-2.154,2.464-2.154h3.385v1.744h-3.18a1.521,1.521,0,0,0-.718.1c-.205.1-.205.308-.205.513,0,.308.205.41.41.513a1.3,1.3,0,0,0,.616.1h.923a2.611,2.611,0,0,1,1.949.616,2.124,2.124,0,0,1,.513,1.539c0,1.539-.928,2.257-2.671,2.257Zm8.823-.718a2.992,2.992,0,0,1-2.154.718H154.29v-1.539h3.283a.866.866,0,0,0,.718-.205.744.744,0,0,0,0-1.026.867.867,0,0,0-.616-.205c-1.641-.1-3.591,0-3.591-2.257,0-1.026.616-2.154,2.464-2.154h3.386v1.744h-3.078a1.521,1.521,0,0,0-.718.1c-.205.1-.205.308-.205.513,0,.308.1.41.41.513a1.3,1.3,0,0,0,.616.1h.923a2.611,2.611,0,0,1,1.949.616.538.538,0,0,1,.137.177,2.883,2.883,0,0,1,.376,1.362,2.088,2.088,0,0,1-.619,1.539Z" transform="translate(-96.94 -248.077)"/>
      <path id="SVGCleanerId_1" d="M298.073,283.692a2,2,0,0,0-.821-.1H295.2v1.641h2.052a2,2,0,0,0,.821-.1.8.8,0,0,0,.308-.718A.57.57,0,0,0,298.073,283.692Z" transform="translate(-257.344 -268.301)"/>
      <g id="Group_7" data-name="Group 7" transform="translate(30.264 15.182)">
        <path id="SVGCleanerId_0_1_" d="M238.154,282.793H236v1.846h2.257c.616,0,1.026-.308,1.026-.923A1.035,1.035,0,0,0,238.154,282.793Z" transform="translate(-236 -282.788)"/>
      </g>
      <g id="Group_8" data-name="Group 8" transform="translate(37.856 15.282)">
        <path id="SVGCleanerId_1_1_" d="M298.073,283.692a2,2,0,0,0-.821-.1H295.2v1.641h2.052a2,2,0,0,0,.821-.1.8.8,0,0,0,.308-.718A.57.57,0,0,0,298.073,283.692Z" transform="translate(-295.2 -283.583)"/>
      </g>
      <g id="Group_9" data-name="Group 9" transform="translate(0 0.003)">
        <path id="Path_44" data-name="Path 44" d="M128.579,264.665l-1.538-1.569v1.744h-3.385L121.6,262.48l-2.257,2.359h-6.771v-7.181h6.874l2.256,2.351.925-1.223-2.569-2.879h-9.036l.013,10.368h9.026l1.539-1.539,1.333,1.539,5.655.007Z" transform="translate(-96.776 -243.911)"/>
        <path id="Path_45" data-name="Path 45" d="M21.031,174.454,19.7,173.017h-.616V172.4l-1.539-1.539-1.026,2.154H15.081l-2.464-5.642v5.642H9.129l-.718-1.539H4.924l-.718,1.539H2.359l3.078-7.181H8l2.872,6.874v-6.873h1.539L10.977,164.4H9.438v1.231L8.927,164.4H4.412l-2.052,4.822L0,174.454H5.335l.616-1.539H7.387l.718,1.539H13.85v-1.231l.513,1.231h2.975l.513-1.231v1.231Z" transform="translate(0 -164.4)"/>
        <path id="Path_46" data-name="Path 46" d="M116.041,194.841,114.4,193.2l1.231,2.666Z" transform="translate(-99.73 -189.507)"/>
      </g>
      <g id="Group_10" data-name="Group 10" transform="translate(10.157 0.103)">
        <path id="Path_47" data-name="Path 47" d="M215.62,267.849a3.753,3.753,0,0,0,1.642-2.77l-1.436-1.436a3.036,3.036,0,0,1,.205,1.026,2.088,2.088,0,0,1-.616,1.539,2.992,2.992,0,0,1-2.154.718h-3.283v-1.539h3.283a.866.866,0,0,0,.718-.205.744.744,0,0,0,0-1.026.867.867,0,0,0-.616-.205c-1.641-.1-3.591,0-3.591-2.257,0-1.026.616-1.949,2.154-2.154l-1-.975a2.648,2.648,0,0,1-.537.275V258h-4.72a3.255,3.255,0,0,0-2.052.616V258H195.2v.616a3.965,3.965,0,0,0-2.257-.616h-5.54v.616a3.892,3.892,0,0,0-2.359-.616h-6.155l-1.436,1.539L176.344,258h-1.3l3.033,3.078,1.539-1.642h5.437c1.333,0,2.872.41,2.872,2.359,0,2.052-1.436,2.464-2.975,2.464h-2.052V265.8l1.539,1.539V265.8h.513a6.24,6.24,0,0,0,2.359-.308v2.772h4.617v-2.666h.205c.308,0,.308,0,.308.308v2.358h13.952a4.023,4.023,0,0,0,2.359-.616v.616h4.409a4.07,4.07,0,0,0,2.464-.41ZM195.2,264.155a2.328,2.328,0,0,1,.308,1.333v1.439h-1.746V266a2.291,2.291,0,0,0-.308-1.436c-.205-.308-.616-.308-1.231-.308h-1.846v2.666h-1.744v-7.282h3.9a4.128,4.128,0,0,1,2.052.308,1.815,1.815,0,0,1,.923,1.641,2.042,2.042,0,0,1-1.231,1.949A1.754,1.754,0,0,1,195.2,264.155Zm7.079-2.975h-4v1.333h3.9v1.436h-3.9v1.436h4v1.539h-5.745v-7.284h5.745Zm4.309,5.747h-3.283v-1.539h3.283a.866.866,0,0,0,.718-.205.744.744,0,0,0,0-1.026.867.867,0,0,0-.616-.205c-1.641-.1-3.591,0-3.591-2.257,0-1.026.616-2.154,2.464-2.154h3.385v1.744h-3.18a1.521,1.521,0,0,0-.718.1c-.205.1-.205.308-.205.513,0,.308.205.41.41.513a1.3,1.3,0,0,0,.616.1h.923a2.611,2.611,0,0,1,1.949.616,2.124,2.124,0,0,1,.513,1.539C209.259,266.207,208.336,266.927,206.592,266.927Z" transform="translate(-162.786 -246.096)"/>
        <path id="Path_48" data-name="Path 48" d="M459.2,284.2c0,.308.1.41.41.513a1.3,1.3,0,0,0,.616.1h.923a3.417,3.417,0,0,1,1.528.242l-1.63-1.475h-.923a1.521,1.521,0,0,0-.718.1.784.784,0,0,0-.205.515Z" transform="translate(-410.469 -268.4)"/>
        <path id="Path_49" data-name="Path 49" d="M431.2,240.4l.205.308h.1Z" transform="translate(-386.06 -230.753)"/>
        <path id="Path_50" data-name="Path 50" d="M387.2,196.4l1.646,4.271V198.13Z" transform="translate(-347.702 -192.396)"/>
        <path id="Path_51" data-name="Path 51" d="M101.154,172.582h.205c.205,0,.205,0,.205.308v2.257h7.387v-.616a6.146,6.146,0,0,0,2.77.616H114.8l.616-1.642h1.436l.616,1.642h5.95v-1.024l-1.341-1.4v1.091h-3.583l-.513-1.642h-3.591l-.616,1.642h-1.949a3.085,3.085,0,0,1-3.388-3.591,4.205,4.205,0,0,1,.923-2.872,3.234,3.234,0,0,1,2.565-.821h1.641v1.539h-1.641a1.892,1.892,0,0,0-1.333.41,2.409,2.409,0,0,0-.513,1.641,2.232,2.232,0,0,0,.513,1.744,1.635,1.635,0,0,0,1.231.41h.718l2.359-5.642h1.026L114.49,165.2h-2.666a6.246,6.246,0,0,0-2.872.616V165.2h-4.515v.616a2.958,2.958,0,0,0-1.949-.616H85.971l-1.129,2.565L83.714,165.2H79.2l1.515,1.333H82.69l1.742,3.9.5,1.038,1.963-4.936h2.872v7.284H88.023l.1-5.736-1.844,4.2,2.975,2.975h11.8Zm4.719-6.054h1.744v7.284h-1.744Zm-9.028,1.539h-4V169.4h3.9v1.436h-3.9v1.436h4v1.539H91.1v-7.284h5.745Zm2.872,5.642H97.974v-7.283h3.9a3.931,3.931,0,0,1,2.052.308,1.748,1.748,0,0,1,.821,1.641,2.042,2.042,0,0,1-1.231,1.949,1.343,1.343,0,0,1,.821.616,2.567,2.567,0,0,1,.308,1.333v1.436H102.9v-.923a2.444,2.444,0,0,0-.308-1.436c-.1-.205-.41-.205-1.026-.205H99.719v2.565Z" transform="translate(-79.2 -165.192)"/>
      </g>
      <path id="Path_20482" data-name="Path 20482" d="M43.2,188.072h2.257L44.329,185.2Z" transform="translate(-37.66 -182.599)"/>
    </g>
  </g>
</svg>
