<svg xmlns="http://www.w3.org/2000/svg" xmlns:xlink="http://www.w3.org/1999/xlink" width="97" height="43" viewBox="0 0 97 43">
  <defs>
    <clipPath id="clip-path">
      <rect id="Rectangle_11205" data-name="Rectangle 11205" width="97" height="43"/>
    </clipPath>
  </defs>
  <g id="Artboard_1" data-name="Artboard – 1" clip-path="url(#clip-path)">
    <g id="axa" transform="translate(26.803 12.1)">
      <path id="Path_39" data-name="Path 39" d="M-763.3,1280.834l3.224-4.342s.3,1.39.525,2.272c.2.811.559,2.07.559,2.07Zm-10.879,10.848,2.343.009,6.307-8.241h7.349l1.157,3.115-4.155,5.114h3.674l1.492-2.295a7,7,0,0,1,.525,1.02,7.085,7.085,0,0,1,.267,1.384h3.98l1.512-2.042a7.049,7.049,0,0,1,.5,1.121c.164.525.263.92.263.92h4.834l-.657-1.118-1.811-5.134,1.581-2.1h7l2.4,7.138a1.309,1.309,0,0,1,.066.658,3.149,3.149,0,0,0-.066.559h5.066a8.049,8.049,0,0,1-.525-1.085c-.337-.866-5.393-17.634-5.393-17.634l-.066-.889h-4.148s-.168.468-.3.759c-.987,2.2-6.61,9.21-6.61,9.21l-.56-2.107,6.285-7.828h-4.05l-.034.46-3.483,4.7-1.417-4.506v-.657h-4.7l2.962,8.716-1.285,1.679-2.958-9.574v-.821h-4.177a3.823,3.823,0,0,1-.394,1.15c-.541,1.247-10.111,13.545-12.774,16.956v1.358Zm21.224-6.244,1.346-1.682.889,2.569-1.468,1.8-.765-2.692Zm9.869-4.6,3.226-4.342s.3,1.391.525,2.272c.2.811.559,2.07.559,2.07Z" transform="translate(774.183 -1272.182)" fill-rule="evenodd"/>
    </g>
  </g>
</svg>
