<?xml version="1.0"?>
<svg xmlns="http://www.w3.org/2000/svg" width="92" height="24" viewBox="0 0 92 24" fill="none">
  <g clip-path="url(#clip0_1108_27500)">
    <path d="M10.1359 0H0V24L10.1359 0Z" fill="#FA0C00"/>
    <path d="M17.2673 0H27.39V24L17.2673 0Z" fill="#FA0C00"/>
    <path d="M13.7012 8.84546L20.1526 23.9999H15.9199L13.9918 19.1751H9.27051L13.7012 8.84546Z" fill="#FA0C00"/>
    <path d="M43.926 15.2623L45.1211 18.6554C45.1608 18.7404 45.2202 18.7796 45.3258 18.7796H47.6238C47.7492 18.7796 47.769 18.7208 47.7492 18.5966L43.0015 5.54072C42.9817 5.43612 42.9619 5.4165 42.8562 5.4165H40.0037C39.9244 5.4165 39.8782 5.47534 39.8782 5.56033C39.8386 6.2468 39.7792 6.456 39.6933 6.65867L35.4607 18.577C35.4409 18.7208 35.4871 18.7796 35.6059 18.7796H37.6595C37.785 18.7796 37.8444 18.7404 37.8906 18.6162L39.0198 15.2623H43.926ZM39.6735 13.046C40.2942 11.1893 41.113 8.80959 41.4432 7.44974H41.463C41.8724 8.87496 42.8364 11.6993 43.2723 13.046H39.6735Z" fill="#FA0C00"/>
    <path d="M53.853 18.9823C55.0878 18.9823 56.4018 18.76 57.7357 18.1913C57.8413 18.152 57.8611 18.1063 57.8611 18.0082C57.8215 17.6421 57.7753 17.1125 57.7753 16.7072V4.41626C57.7753 4.33781 57.7753 4.29858 57.6763 4.29858H55.4378C55.3519 4.29858 55.3123 4.33781 55.3123 4.44241V8.60695C54.9623 8.56772 54.718 8.54811 54.4275 8.54811C50.8155 8.54811 48.5969 10.9082 48.5969 13.8567C48.5969 17.276 50.875 18.9823 53.853 18.9823ZM55.3123 16.7072C54.9425 16.8249 54.5331 16.8706 54.1171 16.8706C52.4795 16.8706 51.1391 15.9554 51.1391 13.7325C51.1391 11.7647 52.5192 10.601 54.3482 10.601C54.718 10.601 55.0416 10.6402 55.3123 10.7448V16.7072Z" fill="#FA0C00"/>
    <path d="M65.0021 8.5481C61.9184 8.5481 60.01 10.8886 60.01 13.7783C60.01 16.3607 61.5288 18.9823 64.9558 18.9823C67.8546 18.9823 69.8884 16.8706 69.8884 13.7129C69.8884 10.9278 68.165 8.5481 65.0021 8.5481ZM64.8766 10.6009C66.6198 10.6009 67.3594 12.085 67.3594 13.7783C67.3594 15.8704 66.2699 16.9098 65.0021 16.9098C63.4371 16.9098 62.5126 15.6088 62.5126 13.7325C62.5126 11.8039 63.4965 10.6009 64.8766 10.6009Z" fill="#FA0C00"/>
    <path d="M72.2031 4.29858C72.1172 4.29858 72.0578 4.33781 72.0578 4.44241V18.3547C72.0578 18.4135 72.1172 18.5182 72.2031 18.5378C73.1869 18.8385 74.217 18.9823 75.2802 18.9823C78.3242 18.9823 81.2825 17.1125 81.2825 13.3468C81.2825 10.6206 79.3939 8.54811 76.4357 8.54811C75.7556 8.54811 75.1217 8.65271 74.567 8.83577L74.5406 4.46203C74.5406 4.3182 74.501 4.29858 74.3557 4.29858H72.2031ZM78.7534 13.5952C78.7534 15.8508 77.1951 16.9099 75.5113 16.9099C75.1613 16.9099 74.8509 16.8902 74.567 16.8053V10.869C74.8906 10.7448 75.2802 10.6402 75.9999 10.6402C77.6243 10.6402 78.7534 11.6601 78.7534 13.5952Z" fill="#FA0C00"/>
    <path d="M89.6361 14.3274C90.6397 14.3274 91.4651 14.3078 91.7491 14.2425C91.8547 14.2228 91.8943 14.1836 91.9142 14.0986C91.9736 13.8763 92 13.4122 92 12.8434C92 10.9082 90.8246 8.5481 87.7872 8.5481C84.6837 8.5481 82.9602 11.052 82.9602 13.8763C82.9602 16.3803 84.2941 18.9823 88.0315 18.9823C89.4314 18.9823 90.336 18.76 91.1152 18.3939C91.1944 18.3547 91.234 18.2893 91.234 18.1716V16.4784C91.234 16.3803 91.1746 16.3607 91.1152 16.3999C90.336 16.7268 89.4908 16.8902 88.5663 16.8902C86.4731 16.8902 85.5223 15.7461 85.4628 14.3274H89.6361ZM85.4628 12.5753C85.6279 11.5816 86.2618 10.5029 87.6815 10.5029C89.2465 10.5029 89.6559 11.8039 89.6559 12.3923C89.6559 12.4119 89.6559 12.4969 89.6559 12.5557C89.57 12.5753 89.3059 12.5753 88.5267 12.5753H85.4628Z" fill="#FA0C00"/>
  </g>
  <defs>
    <clipPath id="clip0_1108_27500">
      <rect width="92" height="24" fill="white"/>
    </clipPath>
  </defs>
</svg>
