<?xml version="1.0" encoding="utf-8"?>
<svg xmlns:cc="http://creativecommons.org/ns#" xmlns:dc="http://purl.org/dc/elements/1.1/" xmlns:inkscape="http://www.inkscape.org/namespaces/inkscape" xmlns:rdf="http://www.w3.org/1999/02/22-rdf-syntax-ns#" xmlns:sodipodi="http://sodipodi.sourceforge.net/DTD/sodipodi-0.dtd" xmlns:svg="http://www.w3.org/2000/svg" xmlns="http://www.w3.org/2000/svg" xmlns:xlink="http://www.w3.org/1999/xlink" id="logosvg.com" x="0px" y="0px" viewBox="0 0 274 171" style="enable-background:new 0 0 274 171;" xml:space="preserve">
<style type="text/css">
	.st0{fill:#589AD4;}
	.st1{fill:#FFFFFF;}
	.st2{fill-rule:evenodd;clip-rule:evenodd;fill:#FFFFFF;}
</style>
<g>
	<path class="st0" d="M116.5,18.6c7.9-8.2,18.8-13.3,31-13.3c16.1,0,30.2,9,37.7,22.3c6.5-2.9,13.7-4.5,21.3-4.5   c29.1,0,52.7,23.8,52.7,53.1c0,29.3-23.6,53.1-52.7,53.1c-3.6,0-7-0.4-10.4-1c-6.6,11.8-19.2,19.7-33.6,19.7   c-6,0-11.8-1.4-16.8-3.9C139,160,123.4,171,105.2,171c-18.9,0-35-12-41.2-28.8c-2.7,0.6-5.5,0.9-8.4,0.9   c-22.5,0-40.8-18.4-40.8-41.2c0-15.3,8.2-28.6,20.4-35.7c-2.5-5.8-3.9-12.1-3.9-18.8C31.3,21.2,52.6,0,78.8,0   C94.2,0,107.8,7.3,116.5,18.6"/>
	<path class="st1" d="M50.2,88.7c-0.2,0.4,0.1,0.5,0.1,0.6c0.5,0.3,0.9,0.6,1.4,0.8c2.5,1.3,4.8,1.7,7.3,1.7c5,0,8.1-2.7,8.1-7v-0.1   c0-4-3.5-5.4-6.8-6.5l-0.4-0.1c-2.5-0.8-4.6-1.5-4.6-3.1v-0.1c0-1.4,1.3-2.4,3.2-2.4c2.2,0,4.7,0.7,6.4,1.6c0,0,0.5,0.3,0.7-0.2   c0.1-0.3,0.9-2.5,1-2.7c0.1-0.3-0.1-0.5-0.2-0.6c-1.9-1.1-4.5-1.9-7.2-1.9l-0.5,0c-4.6,0-7.8,2.8-7.8,6.7v0.1   c0,4.2,3.5,5.5,6.8,6.5l0.5,0.2c2.4,0.7,4.5,1.4,4.5,3.1v0.1c0,1.6-1.4,2.7-3.5,2.7c-0.8,0-3.5,0-6.5-1.9c-0.4-0.2-0.6-0.4-0.8-0.5   c-0.1-0.1-0.5-0.2-0.7,0.2L50.2,88.7z"/>
	<path class="st1" d="M123.6,88.7c-0.2,0.4,0.1,0.5,0.1,0.6c0.5,0.3,0.9,0.6,1.4,0.8c2.5,1.3,4.8,1.7,7.3,1.7c5,0,8.1-2.7,8.1-7   v-0.1c0-4-3.5-5.4-6.8-6.5l-0.4-0.1c-2.5-0.8-4.6-1.5-4.6-3.1v-0.1c0-1.4,1.3-2.4,3.2-2.4c2.2,0,4.7,0.7,6.4,1.6   c0,0,0.5,0.3,0.7-0.2c0.1-0.3,0.9-2.5,1-2.7c0.1-0.3-0.1-0.5-0.2-0.6c-1.9-1.1-4.5-1.9-7.2-1.9l-0.5,0c-4.6,0-7.8,2.8-7.8,6.7v0.1   c0,4.2,3.5,5.5,6.8,6.5l0.5,0.2c2.4,0.7,4.5,1.4,4.5,3.1v0.1c0,1.6-1.4,2.7-3.5,2.7c-0.8,0-3.5,0-6.5-1.9c-0.4-0.2-0.6-0.3-0.8-0.5   c-0.1-0.1-0.5-0.2-0.7,0.2L123.6,88.7z"/>
	<path class="st1" d="M177.9,75.8c-0.4-1.4-1.1-2.6-1.9-3.6c-0.9-1-1.9-1.8-3.2-2.4c-1.3-0.6-2.8-0.9-4.5-0.9   c-1.7,0-3.2,0.3-4.5,0.9c-1.3,0.6-2.4,1.4-3.2,2.4c-0.9,1-1.5,2.2-1.9,3.6c-0.4,1.4-0.6,2.9-0.6,4.5c0,1.6,0.2,3.1,0.6,4.5   c0.4,1.4,1,2.6,1.9,3.6c0.9,1,1.9,1.8,3.2,2.4s2.8,0.9,4.5,0.9c1.7,0,3.2-0.3,4.5-0.9c1.3-0.6,2.4-1.4,3.2-2.4   c0.9-1,1.5-2.2,1.9-3.6c0.4-1.4,0.6-2.9,0.6-4.5C178.5,78.7,178.3,77.2,177.9,75.8 M173.7,80.3c0,2.4-0.5,4.3-1.3,5.7   c-0.9,1.3-2.2,2-4.1,2c-1.9,0-3.2-0.7-4.1-2c-0.9-1.4-1.3-3.3-1.3-5.7c0-2.4,0.4-4.3,1.3-5.7c0.9-1.3,2.2-2,4.1-2   c1.9,0,3.2,0.6,4.1,2C173.2,75.9,173.7,77.8,173.7,80.3"/>
	<path class="st2" d="M212.2,87.3c-0.1-0.4-0.5-0.3-0.5-0.3c-0.6,0.2-1.3,0.4-1.9,0.6c-0.7,0.1-1.5,0.2-2.3,0.2   c-2,0-3.6-0.6-4.8-1.8c-1.2-1.2-1.8-3.1-1.8-5.7c0-2.4,0.6-4.1,1.6-5.5c1-1.3,2.6-2,4.6-2c1.7,0,3,0.2,4.4,0.6c0,0,0.3,0.1,0.5-0.3   c0.4-1,0.6-1.7,1-2.9c0.1-0.3-0.2-0.5-0.3-0.5c-0.5-0.2-1.8-0.6-2.8-0.7c-0.9-0.1-2-0.2-3.1-0.2c-1.8,0-3.3,0.3-4.7,0.9   c-1.3,0.6-2.5,1.4-3.4,2.4c-0.9,1-1.6,2.2-2,3.6c-0.5,1.4-0.7,2.9-0.7,4.5c0,3.5,0.9,6.3,2.8,8.3c1.9,2.1,4.6,3.1,8.3,3.1   c2.1,0,4.3-0.4,5.9-1.1c0,0,0.3-0.1,0.2-0.5L212.2,87.3z"/>
	<path class="st2" d="M233.6,75c-0.4-1.3-1.2-2.7-1.8-3.3c-0.9-1-1.8-1.7-2.7-2.1c-1.2-0.5-2.5-0.8-4.1-0.8c-1.8,0-3.4,0.3-4.7,0.9   c-1.3,0.6-2.4,1.4-3.3,2.5c-0.9,1-1.5,2.3-1.9,3.7c-0.4,1.4-0.6,2.9-0.6,4.5c0,1.6,0.2,3.2,0.6,4.5c0.4,1.4,1.1,2.6,2.1,3.6   c0.9,1,2.1,1.8,3.6,2.4c1.4,0.5,3.2,0.8,5.1,0.8c4.1,0,6.2-0.9,7.1-1.4c0.2-0.1,0.3-0.2,0.1-0.7l-0.9-2.6c-0.1-0.4-0.5-0.2-0.5-0.2   c-1,0.4-2.5,1.1-5.8,1c-2.2,0-3.8-0.6-4.8-1.7c-1-1-1.6-2.6-1.6-4.7l14.2,0c0,0,0.4,0,0.4-0.4C234.1,80.9,234.5,78.2,233.6,75    M219.5,77.9c0.2-1.3,0.6-2.5,1.1-3.3c0.9-1.3,2.2-2.1,4-2.1c1.9,0,3.1,0.7,4,2.1c0.6,0.9,0.8,2,0.9,3.3L219.5,77.9z"/>
	<path class="st2" d="M120.2,75c-0.4-1.3-1.2-2.7-1.8-3.3c-0.9-1-1.8-1.7-2.7-2.1c-1.2-0.5-2.5-0.8-4.1-0.8c-1.8,0-3.4,0.3-4.7,0.9   c-1.3,0.6-2.4,1.4-3.3,2.5c-0.9,1-1.5,2.3-1.9,3.7c-0.4,1.4-0.6,2.9-0.6,4.5c0,1.6,0.2,3.2,0.6,4.5c0.4,1.4,1.1,2.6,2.1,3.6   c0.9,1,2.1,1.8,3.6,2.4c1.4,0.5,3.2,0.8,5.1,0.8c4.1,0,6.2-0.9,7.1-1.4c0.2-0.1,0.3-0.2,0.1-0.7l-0.9-2.6c-0.1-0.4-0.5-0.2-0.5-0.2   c-1,0.4-2.5,1.1-5.8,1c-2.2,0-3.8-0.6-4.8-1.7c-1-1-1.6-2.6-1.6-4.7l14.2,0c0,0,0.4,0,0.4-0.4C120.6,80.9,121.1,78.2,120.2,75    M106.1,77.9c0.2-1.3,0.6-2.5,1.1-3.3c0.9-1.3,2.2-2.1,4.1-2.1c1.9,0,3.1,0.7,4,2.1c0.6,0.9,0.8,2,0.9,3.3L106.1,77.9z"/>
	<path class="st1" d="M81.2,77.3c-0.6,0-1.3-0.1-2.2-0.1c-1.2,0-2.4,0.2-3.5,0.4c-1.1,0.3-2.1,0.8-3,1.4c-0.9,0.6-1.6,1.4-2.1,2.3   c-0.5,0.9-0.8,2-0.8,3.3c0,1.3,0.2,2.3,0.6,3.2c0.4,0.9,1.1,1.6,1.8,2.2c0.8,0.6,1.8,1,2.9,1.2c1.1,0.3,2.4,0.4,3.8,0.4   c1.5,0,2.9-0.1,4.3-0.4c1.4-0.2,3.1-0.6,3.6-0.7c0.5-0.1,1-0.3,1-0.3c0.4-0.1,0.3-0.5,0.3-0.5L88,77c0-2.8-0.8-4.9-2.2-6.3   c-1.5-1.3-3.7-2-6.5-2c-1.1,0-2.8,0.1-3.8,0.3c0,0-3.1,0.6-4.4,1.6c0,0-0.3,0.2-0.1,0.6l1,2.7c0.1,0.3,0.5,0.2,0.5,0.2   s0.1,0,0.2-0.1c2.7-1.5,6.2-1.4,6.2-1.4c1.5,0,2.7,0.3,3.5,0.9c0.8,0.6,1.2,1.5,1.2,3.4v0.6C82.3,77.4,81.2,77.3,81.2,77.3    M75.5,87.2c-0.6-0.4-0.6-0.6-0.8-0.8c-0.3-0.4-0.4-1.1-0.4-1.8c0-1.2,0.4-2.1,1.3-2.7c0,0,1.2-1.1,4.1-1c2,0,3.8,0.3,3.8,0.3v6.4   c0,0-1.8,0.4-3.8,0.5C76.8,88.2,75.5,87.2,75.5,87.2"/>
	<path class="st2" d="M195.4,70c0.1-0.3-0.1-0.5-0.2-0.5c-0.2-0.1-1.4-0.3-2.4-0.4c-1.8-0.1-2.8,0.2-3.7,0.6c-0.9,0.4-1.9,1-2.4,1.8   l0-1.7c0-0.2-0.2-0.4-0.4-0.4h-3.6c-0.2,0-0.4,0.2-0.4,0.4v21.1c0,0.2,0.2,0.4,0.4,0.4h3.7c0.2,0,0.4-0.2,0.4-0.4V80.3   c0-1.4,0.2-2.8,0.5-3.7c0.3-0.9,0.7-1.6,1.2-2.1c0.5-0.5,1.1-0.9,1.8-1.1c0.7-0.2,1.4-0.3,1.9-0.3c0.7,0,1.6,0.2,1.6,0.2   c0.3,0,0.4-0.1,0.5-0.4C194.5,72.3,195.2,70.4,195.4,70"/>
	<path class="st2" d="M160.4,60.2c-0.5-0.1-0.9-0.2-1.4-0.3c-0.5-0.1-1.2-0.2-1.9-0.2c-2.6,0-4.6,0.7-6,2.2   c-1.4,1.4-2.4,3.6-2.8,6.4l-0.2,1h-3.2c0,0-0.4,0-0.5,0.4l-0.5,2.9c0,0.3,0.1,0.5,0.5,0.5h3.1l-3.2,17.7c-0.2,1.4-0.5,2.6-0.8,3.5   c-0.3,0.9-0.6,1.5-1,2c-0.4,0.5-0.7,0.8-1.3,1c-0.5,0.2-1.1,0.2-1.7,0.2c-0.3,0-0.8-0.1-1.1-0.1c-0.3-0.1-0.5-0.1-0.8-0.2   c0,0-0.4-0.1-0.5,0.2c-0.1,0.3-0.9,2.6-1,2.9c-0.1,0.3,0,0.5,0.2,0.6c0.4,0.1,0.7,0.2,1.3,0.4c0.8,0.2,1.5,0.2,2.1,0.2   c1.3,0,2.5-0.2,3.5-0.5c1-0.4,1.9-1,2.6-1.8c0.8-0.9,1.3-1.9,1.8-3.2c0.5-1.3,0.9-2.9,1.2-4.8l3.2-18h4.7c0,0,0.4,0,0.5-0.4   l0.5-2.9c0-0.3-0.1-0.5-0.5-0.5h-4.5c0-0.1,0.2-1.7,0.7-3.2c0.2-0.6,0.6-1.2,1-1.5c0.3-0.3,0.7-0.6,1.2-0.7c0.4-0.1,1-0.2,1.5-0.2   c0.4,0,0.8,0.1,1.2,0.1c0.4,0.1,0.6,0.1,0.7,0.2c0.5,0.1,0.5,0,0.6-0.2l1.1-3C160.8,60.4,160.5,60.2,160.4,60.2"/>
	<path class="st2" d="M97.2,90.8c0,0.2-0.2,0.4-0.4,0.4H93c-0.2,0-0.4-0.2-0.4-0.4V60.6c0-0.2,0.2-0.4,0.4-0.4h3.8   c0.2,0,0.4,0.2,0.4,0.4V90.8z"/>
</g>
</svg>
