<?xml version="1.0" encoding="utf-8"?>
<svg xmlns="http://www.w3.org/2000/svg" xmlns:xlink="http://www.w3.org/1999/xlink" id="Capa_1" x="0px" y="0px" viewBox="0 0 187.2 31" style="enable-background:new 0 0 187.2 31;" xml:space="preserve">
<g>
	<polygon points="4,27.3 4,2.8 10.7,2.8 21.9,17.9 21.9,2.8 28.5,2.8 28.5,27.3 21.9,27.3 10.7,12.2 10.7,27.3  "/>
	<polygon points="36.4,27.3 36.4,2.8 52.7,2.8 52.7,8.2 43.1,8.2 43.1,12.4 52.4,12.4 52.4,17.7 43.1,17.7 43.1,21.9 52.7,21.9    52.7,27.3  "/>
	<polygon points="70.6,27.3 63.8,27.3 63.8,8.2 57.3,8.2 57.3,2.8 77.1,2.8 77.1,8.2 70.6,8.2  "/>
	<path d="M93.3,13.7h13.1c0,9.4-4.9,14.4-13,14.4c-7.8,0-13.6-4.7-13.6-12.7c0-8.2,5.3-13.3,13.5-13.3c9.2,0,11.8,6.9,11.8,6.9   l-6.3,2.5c0,0-1.5-3.9-5.6-3.9c-3,0-6.3,2.3-6.3,7.7c0,4.5,2.9,7.6,6.6,7.6c3.3,0,5-1.9,5.2-4.3h-5.3L93.3,13.7L93.3,13.7z"/>
	<path d="M141.6,2.8l-9,24.5h6.9l1.5-4.5h8.9l1.5,4.6h6.9l-9-24.6H141.6L141.6,2.8z M145.4,9.2l2.9,8.8h-5.8L145.4,9.2L145.4,9.2z"/>
	<path d="M162.4,2.8v24.5h6.7v-9.5h0.5l6.1,9.5h8.2l-7.7-10.1c2.7-0.4,5.6-2.5,5.6-6.8s-2.7-7.6-9.3-7.6L162.4,2.8L162.4,2.8   L162.4,2.8z M169.1,7.7h1.8c3.4,0,4.3,1.3,4.3,3.1c0,2.2-1.4,3.1-4.3,3.1h-1.8V7.7L169.1,7.7z"/>
	<polygon points="112.3,27.3 112.3,2.8 128.6,2.8 128.6,8.2 119,8.2 119,12.4 128.3,12.4 128.3,17.7 119,17.7 119,21.9 128.6,21.9    128.6,27.3  "/>
</g>
</svg>
