<?xml version="1.0"?>
<svg xmlns="http://www.w3.org/2000/svg" width="119" height="128" viewBox="0 0 119 128" fill="none">
<path d="M118.183 32.0847V95.1602L59.8095 126.698L1.43607 95.1602V32.0847L59.8095 0.546875L118.183 32.0847Z" fill="white"/>
<path d="M59.6506 127.244L59.4279 127.123L0.799988 95.4487V31.8111L1.05094 31.678L59.6506 0L59.8732 0.121354L118.501 31.8111V95.4652L59.6506 127.244ZM1.75432 94.8702L59.6506 126.15L117.547 94.8702V32.3743L59.6506 1.09454L1.75432 32.3743V94.8702Z" fill="white"/>
<path d="M115.32 33.8001V93.4447L59.6504 123.268L3.98099 93.4447V33.8001L59.6504 3.97656L115.32 33.8001Z" fill="#111111"/>
<path d="M115.32 46.1262H3.98099V81.1184H115.32V46.1262Z" fill="#111111"/>
<path d="M109.912 36.1845V91.0599L59.8097 118.496L9.70715 91.0599V36.1845L59.8097 8.74805L109.912 36.1845Z" fill="white"/>
<path fill-rule="evenodd" clip-rule="evenodd" d="M59.8095 8.61368L110.03 36.1147V91.1297L59.8095 118.631L9.5892 91.1297V36.1147L59.8095 8.61368ZM9.82484 36.2543V90.9901L59.8095 118.362L109.794 90.9901V36.2543L59.8095 8.88233L9.82484 36.2543Z" fill="#111111"/>
<path d="M113.729 49.3074H5.57162V77.9374H113.729V49.3074Z" fill="#111111"/>
<path fill-rule="evenodd" clip-rule="evenodd" d="M101.8 81.1772H17.5009V81.0594H101.8V81.1772Z" fill="#111111"/>
<path fill-rule="evenodd" clip-rule="evenodd" d="M101.8 46.185H17.5009V46.0672H101.8V46.185Z" fill="#111111"/>
<path d="M48.2268 55.9875H45.3638V70.9387H48.2268V55.9875Z" fill="white"/>
<path d="M57.4521 66.4852C57.4521 68.8133 55.2477 68.9983 54.6303 68.9983C53.0845 68.9983 52.6804 67.6363 52.6804 66.8163V61.0773H50.4536V66.8033C50.4536 68.2478 50.9084 69.4401 51.7544 70.233C52.5873 70.9682 53.6689 71.3582 54.78 71.3205C55.7272 71.2969 56.6509 71.0177 57.4521 70.5123V70.9388H59.997V61.0773H57.4521V66.4852Z" fill="white"/>
<path d="M65.4049 57.5781H62.5418V61.0773H60.9513V62.986H62.5418V70.9388H65.4049V62.986H67.3135V61.0773H65.4049V57.5781Z" fill="white"/>
<path d="M75.556 68.1974C74.954 68.6887 74.1988 68.9515 73.4212 68.9385C71.6079 68.9385 70.2777 67.6943 70.2777 65.9859C70.2777 64.2776 71.5502 63.0876 73.4212 63.0876C74.2011 63.0735 74.961 63.3315 75.5713 63.8157L75.966 64.1338L77.7215 62.4926L77.2821 62.1238C76.1923 61.2249 74.8173 60.7407 73.4047 60.7595C70.1505 60.7595 67.787 62.958 67.787 65.9765C67.787 68.995 70.2082 71.2572 73.4047 71.2572C74.8244 71.2796 76.2052 70.7906 77.295 69.8799L77.718 69.5076L75.9366 67.8663L75.5549 68.1974H75.556Z" fill="white"/>
<path d="M87.081 62.0057C86.2327 61.2717 85.1394 60.884 84.0177 60.9206C83.054 60.9088 82.1102 61.1904 81.3103 61.7288V55.9875H78.7654V70.9387H81.3103V65.7535C81.3103 63.4254 83.3556 63.2369 83.973 63.2369C85.5187 63.2369 85.7638 64.6012 85.7638 65.4224V70.9387H88.3087V65.4354C88.3087 63.9909 87.9399 62.801 87.081 62.0057Z" fill="white"/>
<path d="M73.3198 67.7743C74.3583 67.7743 75.2002 66.9852 75.2002 66.0118C75.2002 65.0383 74.3583 64.2492 73.3198 64.2492C72.2813 64.2492 71.4394 65.0383 71.4394 66.0118C71.4394 66.9852 72.2813 67.7743 73.3198 67.7743Z" fill="#F6F7F8"/>
<path d="M42.2238 67.468C41.2129 68.4247 39.8686 68.9525 38.476 68.9372C35.5753 68.9372 33.4663 66.8059 33.4663 63.8792C33.4663 60.9526 35.5753 58.8083 38.476 58.8083C39.8604 58.8012 41.1964 59.3232 42.2109 60.2657L42.6056 60.638L44.3457 59.0098L43.964 58.6375C42.483 57.2366 40.5143 56.4684 38.476 56.4932C34.2039 56.4932 30.991 59.6743 30.991 63.8922C30.991 68.1101 34.2168 71.2571 38.476 71.2571C40.5213 71.2806 42.496 70.5054 43.9793 69.0974L44.3611 68.7287L42.6338 67.0745L42.2238 67.4692V67.468Z" fill="white"/>
<path d="M62.6116 20.7303V16.1032H64.1751C64.5381 16.1032 64.8348 16.1687 65.0653 16.2997C65.2972 16.4293 65.4689 16.6047 65.5804 16.8262C65.6918 17.0476 65.7476 17.2946 65.7476 17.5672C65.7476 17.8398 65.6918 18.0876 65.5804 18.3105C65.4704 18.5334 65.3002 18.7112 65.0698 18.8437C64.8393 18.9748 64.5441 19.0403 64.1841 19.0403H63.0635V18.5432H64.1661C64.4146 18.5432 64.6142 18.5003 64.7648 18.4145C64.9154 18.3286 65.0246 18.2126 65.0924 18.0665C65.1617 17.9189 65.1963 17.7525 65.1963 17.5672C65.1963 17.382 65.1617 17.2163 65.0924 17.0702C65.0246 16.9241 64.9146 16.8096 64.7625 16.7268C64.6104 16.6424 64.4086 16.6002 64.157 16.6002H63.172V20.7303H62.6116Z" fill="#111111"/>
<path d="M61.6695 18.4167C61.6695 18.9047 61.5814 19.3265 61.4052 19.6819C61.229 20.0374 60.9872 20.3115 60.68 20.5043C60.3727 20.6971 60.0217 20.7935 59.6271 20.7935C59.2325 20.7935 58.8815 20.6971 58.5743 20.5043C58.267 20.3115 58.0253 20.0374 57.849 19.6819C57.6728 19.3265 57.5847 18.9047 57.5847 18.4167C57.5847 17.9287 57.6728 17.507 57.849 17.1515C58.0253 16.796 58.267 16.5219 58.5743 16.3291C58.8815 16.1363 59.2325 16.0399 59.6271 16.0399C60.0217 16.0399 60.3727 16.1363 60.68 16.3291C60.9872 16.5219 61.229 16.796 61.4052 17.1515C61.5814 17.507 61.6695 17.9287 61.6695 18.4167ZM61.1273 18.4167C61.1273 18.0161 61.0603 17.6779 60.9262 17.4023C60.7937 17.1266 60.6137 16.918 60.3862 16.7765C60.1603 16.6349 59.9073 16.5641 59.6271 16.5641C59.347 16.5641 59.0932 16.6349 58.8657 16.7765C58.6398 16.918 58.4598 17.1266 58.3258 17.4023C58.1932 17.6779 58.1269 18.0161 58.1269 18.4167C58.1269 18.8174 58.1932 19.1555 58.3258 19.4311C58.4598 19.7068 58.6398 19.9154 58.8657 20.057C59.0932 20.1986 59.347 20.2694 59.6271 20.2694C59.9073 20.2694 60.1603 20.1986 60.3862 20.057C60.6137 19.9154 60.7937 19.7068 60.9262 19.4311C61.0603 19.1555 61.1273 18.8174 61.1273 18.4167Z" fill="#111111"/>
<path d="M53.623 16.6002V16.1032H57.0933V16.6002H55.6383V20.7303H55.078V16.6002H53.623Z" fill="#111111"/>
<path d="M73.4265 31.334V26.707H76.219V27.204H73.9868V28.7675H76.0744V29.2645H73.9868V30.837H76.2551V31.334H73.4265Z" fill="#111111"/>
<path d="M69.3569 31.334V26.707H70.9204C71.2819 26.707 71.5786 26.7687 71.8105 26.8922C72.0425 27.0142 72.2142 27.1822 72.3257 27.3961C72.4371 27.6099 72.4929 27.8532 72.4929 28.1258C72.4929 28.3984 72.4371 28.6402 72.3257 28.8511C72.2142 29.0619 72.0433 29.2276 71.8128 29.3481C71.5824 29.4671 71.2879 29.5266 70.9294 29.5266H69.6642V29.0205H70.9113C71.1584 29.0205 71.3572 28.9844 71.5078 28.9121C71.6599 28.8398 71.7699 28.7373 71.8377 28.6048C71.9069 28.4707 71.9416 28.3111 71.9416 28.1258C71.9416 27.9406 71.9069 27.7786 71.8377 27.6401C71.7684 27.5015 71.6577 27.3946 71.5055 27.3192C71.3534 27.2424 71.1523 27.204 70.9023 27.204H69.9172V31.334H69.3569ZM71.5349 29.2555L72.6736 31.334H72.0229L70.9023 29.2555H71.5349Z" fill="#111111"/>
<path d="M65.2473 31.334H64.6599L66.3589 26.707H66.9373L68.6363 31.334H68.0488L66.6661 27.439H66.63L65.2473 31.334ZM65.4642 29.5266H67.8319V30.0236H65.4642V29.5266Z" fill="#111111"/>
<path d="M60.2192 31.334L58.954 26.707H59.5234L60.4903 30.4755H60.5355L61.5206 26.707H62.1532L63.1383 30.4755H63.1834L64.1504 26.707H64.7198L63.4546 31.334H62.8762L61.855 27.6468H61.8188L60.7976 31.334H60.2192Z" fill="#111111"/>
<path d="M55.0437 27.204V26.707H58.514V27.204H57.059V31.334H56.4987V27.204H55.0437Z" fill="#111111"/>
<path d="M51.5626 31.334V26.707H54.337V27.204H52.1229V28.7675H54.1292V29.2645H52.1229V31.334H51.5626Z" fill="#111111"/>
<path d="M50.6205 29.0205C50.6205 29.5085 50.5324 29.9302 50.3561 30.2857C50.1799 30.6412 49.9382 30.9153 49.6309 31.1081C49.3236 31.3009 48.9727 31.3973 48.5781 31.3973C48.1834 31.3973 47.8325 31.3009 47.5252 31.1081C47.218 30.9153 46.9762 30.6412 46.8 30.2857C46.6238 29.9302 46.5356 29.5085 46.5356 29.0205C46.5356 28.5325 46.6238 28.1107 46.8 27.7553C46.9762 27.3998 47.218 27.1257 47.5252 26.9329C47.8325 26.7401 48.1834 26.6437 48.5781 26.6437C48.9727 26.6437 49.3236 26.7401 49.6309 26.9329C49.9382 27.1257 50.1799 27.3998 50.3561 27.7553C50.5324 28.1107 50.6205 28.5325 50.6205 29.0205ZM50.0782 29.0205C50.0782 28.6198 50.0112 28.2817 49.8772 28.006C49.7446 27.7304 49.5646 27.5218 49.3372 27.3802C49.1113 27.2386 48.8582 27.1678 48.5781 27.1678C48.2979 27.1678 48.0441 27.2386 47.8167 27.3802C47.5907 27.5218 47.4108 27.7304 47.2767 28.006C47.1442 28.2817 47.0779 28.6198 47.0779 29.0205C47.0779 29.4211 47.1442 29.7593 47.2767 30.0349C47.4108 30.3105 47.5907 30.5192 47.8167 30.6607C48.0441 30.8023 48.2979 30.8731 48.5781 30.8731C48.8582 30.8731 49.1113 30.8023 49.3372 30.6607C49.5646 30.5192 49.7446 30.3105 49.8772 30.0349C50.0112 29.7593 50.0782 29.4211 50.0782 29.0205Z" fill="#111111"/>
<path d="M45.1897 27.8638C45.1626 27.6348 45.0527 27.4571 44.8599 27.3306C44.6671 27.204 44.4306 27.1408 44.1504 27.1408C43.9456 27.1408 43.7664 27.1739 43.6127 27.2402C43.4606 27.3065 43.3416 27.3976 43.2558 27.5136C43.1714 27.6296 43.1292 27.7613 43.1292 27.909C43.1292 28.0325 43.1586 28.1386 43.2173 28.2275C43.2776 28.3149 43.3544 28.3879 43.4478 28.4467C43.5412 28.5039 43.6391 28.5514 43.7415 28.589C43.8439 28.6252 43.9381 28.6545 44.0239 28.6771L44.4939 28.8036C44.6144 28.8353 44.7484 28.879 44.896 28.9347C45.0451 28.9904 45.1875 29.0665 45.323 29.1629C45.4601 29.2578 45.5731 29.3798 45.6619 29.5289C45.7508 29.678 45.7952 29.861 45.7952 30.0779C45.7952 30.3279 45.7297 30.5539 45.5987 30.7557C45.4691 30.9575 45.2793 31.1179 45.0293 31.2369C44.7808 31.3559 44.4788 31.4154 44.1233 31.4154C43.792 31.4154 43.505 31.3619 43.2625 31.255C43.0215 31.1481 42.8318 30.9989 42.6932 30.8077C42.5561 30.6164 42.4786 30.3942 42.4605 30.1412H43.0389C43.0539 30.3159 43.1127 30.4605 43.2151 30.5749C43.319 30.6879 43.4501 30.7723 43.6082 30.828C43.7679 30.8822 43.9396 30.9093 44.1233 30.9093C44.3372 30.9093 44.5293 30.8747 44.6995 30.8054C44.8697 30.7346 45.0045 30.6367 45.1039 30.5117C45.2033 30.3852 45.253 30.2376 45.253 30.0689C45.253 29.9152 45.2101 29.7902 45.1242 29.6938C45.0384 29.5974 44.9254 29.5191 44.7853 29.4588C44.6452 29.3986 44.4939 29.3459 44.3312 29.3007L43.7618 29.138C43.4004 29.0341 43.1142 28.8857 42.9033 28.6929C42.6924 28.5001 42.587 28.2478 42.587 27.9361C42.587 27.677 42.657 27.4511 42.7971 27.2583C42.9387 27.064 43.1285 26.9133 43.3665 26.8064C43.606 26.698 43.8733 26.6437 44.1685 26.6437C44.4667 26.6437 44.7318 26.6972 44.9638 26.8041C45.1958 26.9096 45.3795 27.0542 45.5151 27.2379C45.6521 27.4217 45.7244 27.6303 45.732 27.8638H45.1897Z" fill="#111111"/>
<path d="M78.5018 38.4672C78.4747 38.2383 78.3647 38.0605 78.1719 37.934C77.9791 37.8075 77.7426 37.7442 77.4625 37.7442C77.2576 37.7442 77.0784 37.7774 76.9248 37.8437C76.7726 37.9099 76.6537 38.001 76.5678 38.117C76.4835 38.233 76.4413 38.3648 76.4413 38.5124C76.4413 38.6359 76.4706 38.7421 76.5294 38.831C76.5896 38.9183 76.6665 38.9914 76.7598 39.0501C76.8532 39.1074 76.9511 39.1548 77.0536 39.1925C77.156 39.2286 77.2501 39.258 77.336 39.2806L77.8059 39.4071C77.9264 39.4387 78.0605 39.4824 78.2081 39.5381C78.3572 39.5939 78.4995 39.6699 78.6351 39.7663C78.7721 39.8612 78.8851 39.9832 78.974 40.1323C79.0628 40.2814 79.1073 40.4645 79.1073 40.6813C79.1073 40.9314 79.0417 41.1573 78.9107 41.3591C78.7812 41.561 78.5914 41.7214 78.3414 41.8404C78.0928 41.9594 77.7908 42.0189 77.4354 42.0189C77.104 42.0189 76.8171 41.9654 76.5746 41.8584C76.3336 41.7515 76.1438 41.6024 76.0052 41.4111C75.8682 41.2198 75.7906 40.9977 75.7725 40.7446H76.3509C76.366 40.9193 76.4247 41.0639 76.5271 41.1784C76.6311 41.2914 76.7621 41.3757 76.9203 41.4314C77.0799 41.4857 77.2516 41.5128 77.4354 41.5128C77.6493 41.5128 77.8413 41.4781 78.0115 41.4088C78.1817 41.3381 78.3165 41.2402 78.4159 41.1151C78.5153 40.9886 78.565 40.841 78.565 40.6723C78.565 40.5187 78.5221 40.3937 78.4363 40.2973C78.3504 40.2009 78.2374 40.1225 78.0974 40.0623C77.9573 40.002 77.8059 39.9493 77.6432 39.9041L77.0739 39.7415C76.7124 39.6375 76.4262 39.4892 76.2153 39.2964C76.0045 39.1036 75.899 38.8513 75.899 38.5395C75.899 38.2805 75.9691 38.0545 76.1092 37.8617C76.2507 37.6674 76.4405 37.5168 76.6785 37.4099C76.918 37.3014 77.1853 37.2472 77.4806 37.2472C77.7788 37.2472 78.0439 37.3007 78.2758 37.4076C78.5078 37.513 78.6916 37.6576 78.8271 37.8414C78.9642 38.0251 79.0365 38.2338 79.044 38.4672H78.5018Z" fill="#111111"/>
<path d="M71.9018 41.9376V37.3105H73.4653C73.8268 37.3105 74.1235 37.3722 74.3554 37.4957C74.5874 37.6178 74.7591 37.7857 74.8706 37.9996C74.982 38.2135 75.0378 38.4567 75.0378 38.7293C75.0378 39.002 74.982 39.2437 74.8706 39.4546C74.7591 39.6654 74.5882 39.8311 74.3577 39.9516C74.1273 40.0706 73.8328 40.1301 73.4743 40.1301H72.2091V39.624H73.4562C73.7032 39.624 73.9021 39.5879 74.0527 39.5156C74.2048 39.4433 74.3148 39.3409 74.3826 39.2083C74.4518 39.0743 74.4865 38.9146 74.4865 38.7293C74.4865 38.5441 74.4518 38.3822 74.3826 38.2436C74.3133 38.105 74.2026 37.9981 74.0504 37.9228C73.8983 37.8459 73.6972 37.8075 73.4472 37.8075H72.4621V41.9376H71.9018ZM74.0798 39.859L75.2185 41.9376H74.5678L73.4472 39.859H74.0798Z" fill="#111111"/>
<path d="M68.0993 41.9376V37.3105H70.8918V37.8075H68.6596V39.371H70.7472V39.868H68.6596V41.4405H70.9279V41.9376H68.0993Z" fill="#111111"/>
<path d="M64.0608 41.9376V37.3105H65.6243C65.9872 37.3105 66.284 37.376 66.5144 37.507C66.7464 37.6366 66.9181 37.8121 67.0295 38.0335C67.141 38.2549 67.1967 38.5019 67.1967 38.7745C67.1967 39.0471 67.141 39.2949 67.0295 39.5178C66.9196 39.7408 66.7494 39.9185 66.5189 40.051C66.2885 40.1821 65.9933 40.2476 65.6333 40.2476H64.5127V39.7505H65.6152C65.8637 39.7505 66.0633 39.7076 66.2139 39.6218C66.3646 39.5359 66.4738 39.4199 66.5415 39.2738C66.6108 39.1262 66.6455 38.9598 66.6455 38.7745C66.6455 38.5893 66.6108 38.4236 66.5415 38.2775C66.4738 38.1314 66.3638 38.0169 66.2117 37.9341C66.0595 37.8497 65.8577 37.8075 65.6062 37.8075H64.6211V41.9376H64.0608Z" fill="#111111"/>
<path d="M63.1187 39.624C63.1187 40.112 63.0306 40.5337 62.8544 40.8892C62.6781 41.2447 62.4364 41.5188 62.1291 41.7116C61.8219 41.9044 61.4709 42.0008 61.0763 42.0008C60.6817 42.0008 60.3307 41.9044 60.0234 41.7116C59.7162 41.5188 59.4744 41.2447 59.2982 40.8892C59.122 40.5337 59.0339 40.112 59.0339 39.624C59.0339 39.136 59.122 38.7142 59.2982 38.3588C59.4744 38.0033 59.7162 37.7292 60.0234 37.5364C60.3307 37.3436 60.6817 37.2472 61.0763 37.2472C61.4709 37.2472 61.8219 37.3436 62.1291 37.5364C62.4364 37.7292 62.6781 38.0033 62.8544 38.3588C63.0306 38.7142 63.1187 39.136 63.1187 39.624ZM62.5765 39.624C62.5765 39.2233 62.5094 38.8852 62.3754 38.6096C62.2428 38.3339 62.0628 38.1253 61.8354 37.9837C61.6095 37.8421 61.3564 37.7714 61.0763 37.7714C60.7961 37.7714 60.5423 37.8421 60.3149 37.9837C60.089 38.1253 59.909 38.3339 59.7749 38.6096C59.6424 38.8852 59.5761 39.2233 59.5761 39.624C59.5761 40.0246 59.6424 40.3628 59.7749 40.6384C59.909 40.9141 60.089 41.1227 60.3149 41.2642C60.5423 41.4058 60.7961 41.4766 61.0763 41.4766C61.3564 41.4766 61.6095 41.4058 61.8354 41.2642C62.0628 41.1227 62.2428 40.9141 62.3754 40.6384C62.5094 40.3628 62.5765 40.0246 62.5765 39.624Z" fill="#111111"/>
<path d="M55.8161 41.9376V37.3105H56.3764V41.4405H58.5273V41.9376H55.8161Z" fill="#111111"/>
<path d="M52.0137 41.9376V37.3105H54.8062V37.8075H52.574V39.371H54.6616V39.868H52.574V41.4405H54.8424V41.9376H52.0137Z" fill="#111111"/>
<path d="M47.9041 37.3105L49.2777 41.2055H49.332L50.7056 37.3105H51.2931L49.5941 41.9376H49.0157L47.3167 37.3105H47.9041Z" fill="#111111"/>
<path d="M43.9118 41.9376V37.3105H46.7043V37.8075H44.4721V39.371H46.5597V39.868H44.4721V41.4405H46.7404V41.9376H43.9118Z" fill="#111111"/>
<path d="M40.7668 41.9376H39.3389V37.3105H40.8301C41.2789 37.3105 41.663 37.4031 41.9823 37.5884C42.3017 37.7721 42.5464 38.0365 42.7166 38.3814C42.8868 38.7248 42.9719 39.136 42.9719 39.615C42.9719 40.097 42.8861 40.5119 42.7144 40.8599C42.5426 41.2063 42.2926 41.4729 41.9643 41.6597C41.6359 41.8449 41.2368 41.9376 40.7668 41.9376ZM39.8993 41.4405H40.7307C41.1133 41.4405 41.4303 41.3667 41.6819 41.2191C41.9334 41.0715 42.1209 40.8614 42.2444 40.5887C42.3679 40.3161 42.4297 39.9915 42.4297 39.615C42.4297 39.2414 42.3687 38.9199 42.2467 38.6503C42.1247 38.3791 41.9424 38.1713 41.6999 38.0267C41.4574 37.8806 41.1554 37.8075 40.7939 37.8075H39.8993V41.4405Z" fill="#111111"/>
<path d="M85.8786 88.4763V83.8493H86.439V85.9098H88.9061V83.8493H89.4664V88.4763H88.9061V86.4068H86.439V88.4763H85.8786Z" fill="#111111"/>
<path d="M81.5435 84.3463V83.8493H85.0138V84.3463H83.5588V88.4763H82.9985V84.3463H81.5435Z" fill="#111111"/>
<path d="M77.7271 88.4763V83.8493H79.2905C79.652 83.8493 79.9487 83.911 80.1807 84.0345C80.4127 84.1565 80.5844 84.3245 80.6958 84.5384C80.8073 84.7522 80.863 84.9955 80.863 85.2681C80.863 85.5407 80.8073 85.7825 80.6958 85.9934C80.5844 86.2042 80.4134 86.3699 80.183 86.4904C79.9525 86.6094 79.658 86.6689 79.2996 86.6689H78.0343V86.1628H79.2815C79.5285 86.1628 79.7273 86.1267 79.8779 86.0544C80.0301 85.9821 80.14 85.8796 80.2078 85.7471C80.2771 85.613 80.3117 85.4534 80.3117 85.2681C80.3117 85.0829 80.2771 84.9209 80.2078 84.7824C80.1385 84.6438 80.0278 84.5369 79.8757 84.4615C79.7236 84.3847 79.5225 84.3463 79.2725 84.3463H78.2874V88.4763H77.7271ZM79.9051 86.3978L81.0438 88.4763H80.3931L79.2725 86.3978H79.9051Z" fill="#111111"/>
<path d="M76.785 86.1628C76.785 86.6508 76.6969 87.0725 76.5206 87.428C76.3444 87.7835 76.1027 88.0576 75.7954 88.2504C75.4881 88.4432 75.1372 88.5396 74.7426 88.5396C74.3479 88.5396 73.997 88.4432 73.6897 88.2504C73.3824 88.0576 73.1407 87.7835 72.9645 87.428C72.7882 87.0725 72.7001 86.6508 72.7001 86.1628C72.7001 85.6748 72.7882 85.253 72.9645 84.8976C73.1407 84.5421 73.3824 84.268 73.6897 84.0752C73.997 83.8824 74.3479 83.786 74.7426 83.786C75.1372 83.786 75.4881 83.8824 75.7954 84.0752C76.1027 84.268 76.3444 84.5421 76.5206 84.8976C76.6969 85.253 76.785 85.6748 76.785 86.1628ZM76.2427 86.1628C76.2427 85.7621 76.1757 85.424 76.0417 85.1483C75.9091 84.8727 75.7291 84.6641 75.5017 84.5225C75.2757 84.3809 75.0227 84.3101 74.7426 84.3101C74.4624 84.3101 74.2086 84.3809 73.9812 84.5225C73.7552 84.6641 73.5752 84.8727 73.4412 85.1483C73.3086 85.424 73.2424 85.7621 73.2424 86.1628C73.2424 86.5634 73.3086 86.9016 73.4412 87.1772C73.5752 87.4528 73.7552 87.6615 73.9812 87.803C74.2086 87.9446 74.4624 88.0154 74.7426 88.0154C75.0227 88.0154 75.2757 87.9446 75.5017 87.803C75.7291 87.6615 75.9091 87.4528 76.0417 87.1772C76.1757 86.9016 76.2427 86.5634 76.2427 86.1628Z" fill="#111111"/>
<path d="M71.7597 83.8493V88.4763H71.2174L68.6961 84.8434H68.6509V88.4763H68.0906V83.8493H68.6328L71.1632 87.4913H71.2084V83.8493H71.7597Z" fill="#111111"/>
<path d="M62.4988 88.4763V83.8493H65.2913V84.3463H63.0591V85.9098H65.1467V86.4068H63.0591V87.9793H65.3274V88.4763H62.4988Z" fill="#111111"/>
<path d="M58.4292 88.4763V83.8493H59.9927C60.3542 83.8493 60.6509 83.911 60.8828 84.0345C61.1148 84.1565 61.2865 84.3245 61.398 84.5384C61.5094 84.7522 61.5652 84.9955 61.5652 85.2681C61.5652 85.5407 61.5094 85.7825 61.398 85.9934C61.2865 86.2042 61.1156 86.3699 60.8851 86.4904C60.6547 86.6094 60.3602 86.6689 60.0017 86.6689H58.7365V86.1628H59.9836C60.2307 86.1628 60.4295 86.1267 60.5801 86.0544C60.7322 85.9821 60.8422 85.8796 60.91 85.7471C60.9792 85.613 61.0139 85.4534 61.0139 85.2681C61.0139 85.0829 60.9792 84.9209 60.91 84.7824C60.8407 84.6438 60.73 84.5369 60.5778 84.4615C60.4257 84.3847 60.2246 84.3463 59.9746 84.3463H58.9895V88.4763H58.4292ZM60.6072 86.3978L61.7459 88.4763H61.0952L59.9746 86.3978H60.6072Z" fill="#111111"/>
<path d="M57.4869 86.1628C57.4869 86.6508 57.3988 87.0725 57.2226 87.428C57.0464 87.7835 56.8046 88.0576 56.4973 88.2504C56.1901 88.4432 55.8391 88.5396 55.4445 88.5396C55.0499 88.5396 54.6989 88.4432 54.3917 88.2504C54.0844 88.0576 53.8427 87.7835 53.6664 87.428C53.4902 87.0725 53.4021 86.6508 53.4021 86.1628C53.4021 85.6748 53.4902 85.253 53.6664 84.8976C53.8427 84.5421 54.0844 84.268 54.3917 84.0752C54.6989 83.8824 55.0499 83.786 55.4445 83.786C55.8391 83.786 56.1901 83.8824 56.4973 84.0752C56.8046 84.268 57.0464 84.5421 57.2226 84.8976C57.3988 85.253 57.4869 85.6748 57.4869 86.1628ZM56.9447 86.1628C56.9447 85.7621 56.8777 85.424 56.7436 85.1483C56.6111 84.8727 56.4311 84.6641 56.2036 84.5225C55.9777 84.3809 55.7247 84.3101 55.4445 84.3101C55.1643 84.3101 54.9106 84.3809 54.6831 84.5225C54.4572 84.6641 54.2772 84.8727 54.1431 85.1483C54.0106 85.424 53.9443 85.7621 53.9443 86.1628C53.9443 86.5634 54.0106 86.9016 54.1431 87.1772C54.2772 87.4528 54.4572 87.6615 54.6831 87.803C54.9106 87.9446 55.1643 88.0154 55.4445 88.0154C55.7247 88.0154 55.9777 87.9446 56.2036 87.803C56.4311 87.6615 56.6111 87.4528 56.7436 87.1772C56.8777 86.9016 56.9447 86.5634 56.9447 86.1628Z" fill="#111111"/>
<path d="M48.8734 88.4763V83.8493H49.4337V85.9098H51.9008V83.8493H52.4612V88.4763H51.9008V86.4068H49.4337V88.4763H48.8734Z" fill="#111111"/>
<path d="M47.3466 85.006C47.3194 84.7771 47.2095 84.5993 47.0167 84.4728C46.8239 84.3463 46.5874 84.283 46.3073 84.283C46.1024 84.283 45.9232 84.3162 45.7696 84.3824C45.6174 84.4487 45.4984 84.5398 45.4126 84.6558C45.3282 84.7718 45.2861 84.9036 45.2861 85.0512C45.2861 85.1747 45.3154 85.2809 45.3742 85.3698C45.4344 85.4571 45.5112 85.5302 45.6046 85.5889C45.698 85.6461 45.7959 85.6936 45.8983 85.7312C46.0008 85.7674 46.0949 85.7968 46.1808 85.8194L46.6507 85.9459C46.7712 85.9775 46.9052 86.0212 47.0528 86.0769C47.202 86.1327 47.3443 86.2087 47.4799 86.3051C47.6169 86.4 47.7299 86.522 47.8188 86.6711C47.9076 86.8202 47.9521 87.0032 47.9521 87.2201C47.9521 87.4702 47.8865 87.6961 47.7555 87.8979C47.626 88.0998 47.4362 88.2602 47.1861 88.3792C46.9376 88.4982 46.6356 88.5576 46.2802 88.5576C45.9488 88.5576 45.6619 88.5042 45.4194 88.3972C45.1784 88.2903 44.9886 88.1412 44.85 87.9499C44.713 87.7586 44.6354 87.5364 44.6173 87.2834H45.1957C45.2108 87.4581 45.2695 87.6027 45.3719 87.7172C45.4758 87.8301 45.6069 87.9145 45.765 87.9702C45.9247 88.0245 46.0964 88.0516 46.2802 88.0516C46.494 88.0516 46.6861 88.0169 46.8563 87.9476C47.0265 87.8768 47.1613 87.7789 47.2607 87.6539C47.3601 87.5274 47.4098 87.3798 47.4098 87.2111C47.4098 87.0575 47.3669 86.9324 47.281 86.8361C47.1952 86.7397 47.0822 86.6613 46.9421 86.6011C46.8021 86.5408 46.6507 86.4881 46.488 86.4429L45.9187 86.2803C45.5572 86.1763 45.271 86.028 45.0601 85.8352C44.8493 85.6424 44.7438 85.3901 44.7438 85.0783C44.7438 84.8192 44.8139 84.5933 44.9539 84.4005C45.0955 84.2062 45.2853 84.0556 45.5233 83.9487C45.7628 83.8402 46.0301 83.786 46.3254 83.786C46.6236 83.786 46.8887 83.8395 47.1206 83.9464C47.3526 84.0518 47.5363 84.1964 47.6719 84.3802C47.809 84.5639 47.8813 84.7725 47.8888 85.006H47.3466Z" fill="#111111"/>
<path d="M40.7466 88.4763V83.8493H42.3101C42.6715 83.8493 42.9683 83.911 43.2002 84.0345C43.4322 84.1565 43.6039 84.3245 43.7153 84.5384C43.8268 84.7522 43.8825 84.9955 43.8825 85.2681C43.8825 85.5407 43.8268 85.7825 43.7153 85.9934C43.6039 86.2042 43.4329 86.3699 43.2025 86.4904C42.972 86.6094 42.6776 86.6689 42.3191 86.6689H41.0539V86.1628H42.301C42.548 86.1628 42.7469 86.1267 42.8975 86.0544C43.0496 85.9821 43.1596 85.8796 43.2273 85.7471C43.2966 85.613 43.3313 85.4534 43.3313 85.2681C43.3313 85.0829 43.2966 84.9209 43.2273 84.7824C43.1581 84.6438 43.0473 84.5369 42.8952 84.4615C42.7431 84.3847 42.542 84.3463 42.292 84.3463H41.3069V88.4763H40.7466ZM42.9246 86.3978L44.0633 88.4763H43.4126L42.292 86.3978H42.9246Z" fill="#111111"/>
<path d="M36.637 88.4763H36.0496L37.7486 83.8493H38.3269L40.026 88.4763H39.4385L38.0558 84.5813H38.0197L36.637 88.4763ZM36.8539 86.6689H39.2216V87.1659H36.8539V86.6689Z" fill="#111111"/>
<path d="M32.6447 88.4763V83.8493H35.4372V84.3463H33.205V85.9098H35.2926V86.4068H33.205V87.9793H35.4733V88.4763H32.6447Z" fill="#111111"/>
<path d="M31.5236 83.8493V88.4763H30.9813L28.4599 84.8434H28.4147V88.4763H27.8544V83.8493H28.3967L30.9271 87.4913H30.9723V83.8493H31.5236Z" fill="#111111"/>
<path d="M69.8785 99.0799H69.2911L70.9901 94.4528H71.5685L73.2675 99.0799H72.6801L71.2974 95.1848H71.2612L69.8785 99.0799ZM70.0954 97.2724H72.4632V97.7695H70.0954V97.2724Z" fill="#111111"/>
<path d="M68.7833 95.8987H68.223C68.1898 95.7376 68.1319 95.596 68.049 95.474C67.9677 95.352 67.8683 95.2495 67.7508 95.1667C67.6348 95.0824 67.506 95.0191 67.3644 94.9769C67.2229 94.9347 67.0752 94.9137 66.9216 94.9137C66.6415 94.9137 66.3877 94.9844 66.1602 95.126C65.9343 95.2676 65.7543 95.4762 65.6203 95.7519C65.4877 96.0275 65.4214 96.3656 65.4214 96.7663C65.4214 97.1669 65.4877 97.5051 65.6203 97.7807C65.7543 98.0564 65.9343 98.265 66.1602 98.4066C66.3877 98.5481 66.6415 98.6189 66.9216 98.6189C67.0752 98.6189 67.2229 98.5978 67.3644 98.5557C67.506 98.5135 67.6348 98.451 67.7508 98.3681C67.8683 98.2838 67.9677 98.1806 68.049 98.0586C68.1319 97.9351 68.1898 97.7935 68.223 97.6339H68.7833C68.7411 97.8703 68.6643 98.082 68.5528 98.2687C68.4414 98.4555 68.3028 98.6144 68.1371 98.7455C67.9714 98.875 67.7854 98.9736 67.5791 99.0414C67.3742 99.1092 67.1551 99.1431 66.9216 99.1431C66.527 99.1431 66.176 99.0467 65.8688 98.8539C65.5615 98.6611 65.3198 98.387 65.1435 98.0315C64.9673 97.676 64.8792 97.2543 64.8792 96.7663C64.8792 96.2783 64.9673 95.8565 65.1435 95.5011C65.3198 95.1456 65.5615 94.8715 65.8688 94.6787C66.176 94.4859 66.527 94.3895 66.9216 94.3895C67.1551 94.3895 67.3742 94.4234 67.5791 94.4912C67.7854 94.5589 67.9714 94.6584 68.1371 94.7894C68.3028 94.9189 68.4414 95.0771 68.5528 95.2638C68.6643 95.4491 68.7411 95.6607 68.7833 95.8987Z" fill="#111111"/>
<path d="M63.9366 94.4528V99.0799H63.3763V94.4528H63.9366Z" fill="#111111"/>
<path d="M59.3067 99.0799V94.4528H60.8702C61.2317 94.4528 61.5284 94.5145 61.7603 94.6381C61.9923 94.7601 62.164 94.928 62.2755 95.1419C62.3869 95.3558 62.4427 95.599 62.4427 95.8716C62.4427 96.1443 62.3869 96.386 62.2755 96.5969C62.164 96.8077 61.9931 96.9734 61.7626 97.0939C61.5322 97.2129 61.2377 97.2724 60.8792 97.2724H59.614V96.7663H60.8611C61.1082 96.7663 61.307 96.7302 61.4576 96.6579C61.6097 96.5856 61.7197 96.4832 61.7875 96.3506C61.8567 96.2166 61.8914 96.0569 61.8914 95.8716C61.8914 95.6864 61.8567 95.5245 61.7875 95.3859C61.7182 95.2473 61.6075 95.1404 61.4553 95.0651C61.3032 94.9882 61.1021 94.9498 60.8521 94.9498H59.867V99.0799H59.3067ZM61.4847 97.0013L62.6234 99.0799H61.9727L60.8521 97.0013H61.4847Z" fill="#111111"/>
<path d="M55.5042 99.0799V94.4528H58.2967V94.9498H56.0645V96.5133H58.1521V97.0103H56.0645V98.5828H58.3329V99.0799H55.5042Z" fill="#111111"/>
<path d="M49.8442 94.4528H50.513L52.0855 98.2936H52.1397L53.7122 94.4528H54.3809V99.0799H53.8568V95.5644H53.8116L52.3656 99.0799H51.8595L50.4136 95.5644H50.3684V99.0799H49.8442V94.4528Z" fill="#111111"/>
<path d="M45.7344 99.0799H45.147L46.846 94.4528H47.4244L49.1234 99.0799H48.5359L47.1532 95.1848H47.1171L45.7344 99.0799ZM45.9513 97.2724H48.319V97.7695H45.9513V97.2724Z" fill="#111111"/>
<path d="M65.2067 109.747C64.9416 109.747 64.7029 109.694 64.4905 109.589C64.2781 109.483 64.1079 109.339 63.9799 109.155C63.8519 108.971 63.7818 108.762 63.7698 108.527H64.312C64.3331 108.736 64.428 108.909 64.5967 109.047C64.7669 109.182 64.9702 109.25 65.2067 109.25C65.3965 109.25 65.5652 109.205 65.7128 109.117C65.8619 109.028 65.9786 108.906 66.063 108.751C66.1488 108.594 66.1918 108.417 66.1918 108.22C66.1918 108.018 66.1473 107.838 66.0585 107.68C65.9711 107.52 65.8506 107.394 65.697 107.302C65.5433 107.21 65.3679 107.164 65.1706 107.162C65.029 107.161 64.8836 107.183 64.7345 107.228C64.5854 107.271 64.4626 107.328 64.3662 107.397L63.8421 107.334L64.1222 105.057H66.5262V105.554H64.5922L64.4295 106.918H64.4566C64.5515 106.843 64.6705 106.78 64.8136 106.731C64.9567 106.681 65.1058 106.656 65.2609 106.656C65.5441 106.656 65.7964 106.724 66.0178 106.86C66.2407 106.994 66.4154 107.177 66.542 107.411C66.67 107.644 66.734 107.911 66.734 108.211C66.734 108.506 66.6677 108.769 66.5352 109.001C66.4041 109.232 66.2234 109.414 65.993 109.548C65.7625 109.681 65.5004 109.747 65.2067 109.747Z" fill="#111111"/>
<path d="M59.9087 109.684V109.277L61.436 107.605C61.6152 107.409 61.7628 107.239 61.8788 107.094C61.9948 106.948 62.0806 106.811 62.1363 106.683C62.1936 106.554 62.2222 106.418 62.2222 106.277C62.2222 106.114 62.183 105.973 62.1047 105.854C62.0279 105.735 61.9225 105.643 61.7884 105.578C61.6544 105.514 61.5037 105.481 61.3365 105.481C61.1588 105.481 61.0037 105.518 60.8711 105.592C60.7401 105.664 60.6384 105.766 60.5661 105.897C60.4953 106.028 60.4599 106.182 60.4599 106.358H59.9267C59.9267 106.087 59.9892 105.849 60.1143 105.644C60.2393 105.439 60.4095 105.279 60.6249 105.165C60.8418 105.051 61.085 104.993 61.3546 104.993C61.6257 104.993 61.866 105.051 62.0753 105.165C62.2847 105.279 62.4489 105.434 62.5679 105.628C62.6869 105.822 62.7464 106.039 62.7464 106.277C62.7464 106.447 62.7155 106.613 62.6537 106.776C62.5935 106.937 62.488 107.117 62.3374 107.316C62.1883 107.513 61.9812 107.754 61.7161 108.039L60.6768 109.15V109.187H62.8277V109.684H59.9087Z" fill="#111111"/>
<path d="M57.4415 109.747C57.1011 109.747 56.8112 109.654 56.5717 109.469C56.3322 109.282 56.1492 109.012 56.0227 108.658C55.8961 108.302 55.8329 107.873 55.8329 107.37C55.8329 106.87 55.8961 106.443 56.0227 106.089C56.1507 105.734 56.3345 105.462 56.5739 105.276C56.8149 105.087 57.1041 104.993 57.4415 104.993C57.7789 104.993 58.0673 105.087 58.3068 105.276C58.5478 105.462 58.7316 105.734 58.8581 106.089C58.9861 106.443 59.0501 106.87 59.0501 107.37C59.0501 107.873 58.9869 108.302 58.8604 108.658C58.7338 109.012 58.5508 109.282 58.3114 109.469C58.0719 109.654 57.7819 109.747 57.4415 109.747ZM57.4415 109.25C57.7789 109.25 58.041 109.087 58.2278 108.762C58.4145 108.436 58.5079 107.973 58.5079 107.37C58.5079 106.969 58.465 106.628 58.3791 106.347C58.2948 106.065 58.1728 105.85 58.0131 105.703C57.855 105.555 57.6644 105.481 57.4415 105.481C57.1071 105.481 56.8458 105.646 56.6575 105.976C56.4693 106.304 56.3751 106.769 56.3751 107.37C56.3751 107.771 56.4173 108.111 56.5016 108.391C56.586 108.671 56.7072 108.885 56.8654 109.031C57.025 109.177 57.2171 109.25 57.4415 109.25Z" fill="#111111"/>
<path d="M52.0802 109.684V109.277L53.6075 107.605C53.7867 107.409 53.9343 107.239 54.0503 107.095C54.1663 106.948 54.2522 106.811 54.3079 106.683C54.3651 106.554 54.3937 106.418 54.3937 106.277C54.3937 106.114 54.3546 105.973 54.2763 105.854C54.1994 105.735 54.094 105.643 53.9599 105.579C53.8259 105.514 53.6753 105.481 53.5081 105.481C53.3304 105.481 53.1752 105.518 53.0427 105.592C52.9116 105.664 52.81 105.766 52.7377 105.897C52.6669 106.028 52.6315 106.182 52.6315 106.358H52.0983C52.0983 106.087 52.1608 105.849 52.2858 105.644C52.4108 105.439 52.581 105.28 52.7964 105.165C53.0133 105.051 53.2565 104.993 53.5262 104.993C53.7973 104.993 54.0375 105.051 54.2469 105.165C54.4562 105.28 54.6204 105.434 54.7394 105.628C54.8584 105.823 54.9179 106.039 54.9179 106.277C54.9179 106.447 54.887 106.613 54.8253 106.776C54.765 106.937 54.6596 107.117 54.509 107.316C54.3598 107.513 54.1527 107.754 53.8877 108.039L52.8484 109.15V109.187H54.9992V109.684H52.0802Z" fill="#111111"/>
</svg>
