<?xml version="1.0"?>
<svg xmlns="http://www.w3.org/2000/svg" width="129" height="115" viewBox="0 0 129 115" fill="none">
<path d="M63.9919 112.51C94.6103 112.51 119.431 87.6884 119.431 57.07C119.431 26.4516 94.6103 1.63046 63.9919 1.63046C33.3735 1.63046 8.55238 26.4516 8.55238 57.07C8.55238 87.6884 33.3735 112.51 63.9919 112.51Z" fill="white"/>
<path fill-rule="evenodd" clip-rule="evenodd" d="M63.9919 2.92685C34.0895 2.92685 9.84876 27.1675 9.84876 57.07C9.84876 86.9724 34.0895 111.213 63.9919 111.213C93.8943 111.213 118.135 86.9724 118.135 57.07C118.135 27.1675 93.8943 2.92685 63.9919 2.92685ZM7.25589 57.07C7.25589 25.7355 32.6575 0.333984 63.9919 0.333984C95.3263 0.333984 120.728 25.7355 120.728 57.07C120.728 88.4044 95.3263 113.806 63.9919 113.806C32.6575 113.806 7.25589 88.4044 7.25589 57.07Z" fill="white"/>
<path d="M63.9999 100.896C88.3219 100.896 108.039 81.1789 108.039 56.8568C108.039 32.5348 88.3219 12.818 63.9999 12.818C39.6779 12.818 19.961 32.5348 19.961 56.8568C19.961 81.1789 39.6779 100.896 63.9999 100.896Z" fill="#111111"/>
<path d="M29.3593 57.5247C29.3593 51.8204 30.6417 46.4412 33.2047 41.7042V73.3452C30.6397 68.6082 29.3593 63.229 29.3593 57.5247Z" fill="white"/>
<path d="M38.1209 34.494V80.5554C36.625 78.9618 35.3425 77.2365 34.2755 75.3956V39.6559C35.3445 37.8149 36.625 36.0877 38.1209 34.496V34.494Z" fill="white"/>
<path d="M43.0355 25.8737V81.054C41.7531 80.0348 40.4706 78.9179 39.1901 77.7132V29.2166C40.4726 28.0119 41.7551 26.8929 43.0355 25.8757V25.8737Z" fill="white"/>
<path d="M48.1635 28.9671V90.3563C46.881 89.6781 45.5985 88.9142 44.318 88.0746V31.2488C45.6005 30.4091 46.883 29.6452 48.1635 28.9671Z" fill="white"/>
<path d="M83.207 22.2734V82.9446C81.9245 83.7843 80.6421 84.5482 79.3616 85.2263V19.9917C80.6441 20.6698 81.9265 21.4337 83.207 22.2734Z" fill="white"/>
<path d="M88.1215 35.1977V83.6944C86.839 84.8991 85.5565 86.018 84.276 87.0352V31.8569C85.5585 32.8761 86.841 33.9931 88.1215 35.1977Z" fill="white"/>
<path d="M93.0361 37.0906V72.8303C91.9671 74.6713 90.6866 76.3985 89.1907 77.9901V31.9288C90.6866 33.5224 91.9691 35.2477 93.0361 37.0886V37.0906Z" fill="white"/>
<path d="M98.1639 56.0126C98.1639 61.7169 96.668 67.0961 94.3184 71.8331V40.1921C96.668 44.929 98.1639 50.3083 98.1639 56.0126Z" fill="white"/>
<path d="M63.1203 19.0601V87.2645C61.8378 87.2426 60.5554 87.1508 59.2749 86.9893V19.3333C60.5573 19.1718 61.8398 19.08 63.1203 19.0581V19.0601Z" fill="white"/>
<path d="M53.0779 20.255V92.8154C51.7954 92.3906 50.513 91.888 49.2325 91.3136V21.7568C50.515 21.1824 51.7974 20.6798 53.0779 20.255Z" fill="white"/>
<path d="M68.0348 21.2584V91.6548C66.7523 91.8163 65.4698 91.9081 64.1893 91.93V20.9831C65.4718 21.0051 66.7543 21.0968 68.0348 21.2584Z" fill="white"/>
<path d="M58.2057 14.3851V89.7398C56.7098 89.5264 55.4273 89.2432 54.3602 88.8862V15.2387C55.4293 14.8817 56.7098 14.5985 58.2057 14.3851Z" fill="white"/>
<path d="M73.1647 29.1188L73.0131 98.504C71.7306 98.861 70.4481 99.1442 69.1676 99.3576L69.3192 28.2651C70.6017 28.4785 71.8842 28.7618 73.1647 29.1188Z" fill="white"/>
<path d="M78.0791 28.4084V90.9125C76.7966 91.4869 75.5141 91.9896 74.2337 92.4144V26.9066C75.5161 27.3314 76.7986 27.834 78.0791 28.4084Z" fill="white"/>
<path d="M64.1435 84.1139C78.4305 84.1139 90.0123 71.9382 90.0123 56.9187C90.0123 41.8992 78.4305 29.7234 64.1435 29.7234C49.8565 29.7234 38.2746 41.8992 38.2746 56.9187C38.2746 71.9382 49.8565 84.1139 64.1435 84.1139Z" fill="#111111" stroke="white" stroke-width="1.39616" stroke-miterlimit="10"/>
<path d="M128.833 47.0816H0.833427V66.951H128.833V47.0816Z" fill="#111111"/>
<mask id="mask0_14447_9840" style="mask-type:luminance" maskUnits="userSpaceOnUse" x="49" y="34" width="30" height="11">
<path d="M78.4958 34.173H49.2582V44.1875H78.4958V34.173Z" fill="white"/>
</mask>
<g mask="url(#mask0_14447_9840)">
<path d="M59.0395 37.0453H57.6313V42.8294H59.0395V37.0453Z" fill="white"/>
<path d="M62.0254 37.0453H63.4694L65.8628 42.8294H64.4008L63.9161 41.5409H61.5227L61.0201 42.8294H59.594L62.0234 37.0453H62.0254ZM61.8897 40.5935H63.5492L62.7414 38.4713H62.7234L61.8897 40.5935Z" fill="white"/>
<mask id="mask1_14447_9840" style="mask-type:luminance" maskUnits="userSpaceOnUse" x="48" y="33" width="32" height="12">
<path d="M79.8323 33.9218H48.1893V44.397H79.8323V33.9218Z" fill="white"/>
</mask>
<g mask="url(#mask1_14447_9840)">
<path d="M69.2873 36.9077C71.2698 36.9077 72.4346 38.2441 72.4346 39.9613C72.4346 41.6786 71.2678 42.9671 69.2873 42.9671C67.3067 42.9671 66.1399 41.6308 66.1399 39.9613C66.1399 38.2919 67.3047 36.9077 69.2873 36.9077ZM69.2873 41.898C70.5518 41.898 71.0265 40.9267 71.0265 39.9613C71.0265 38.9481 70.5518 37.9768 69.2873 37.9768C68.0228 37.9768 67.5481 38.9481 67.5481 39.9613C67.5481 40.9746 68.0228 41.898 69.2873 41.898Z" fill="white"/>
<path d="M73.394 37.0457H76.282C77.8776 37.0457 78.4959 37.9612 78.4959 38.9006C78.4959 39.8401 77.8776 40.7555 76.282 40.7555H74.8021V42.8298H73.394V37.0457ZM74.8021 39.7683H75.8971C76.5513 39.7683 77.1337 39.6386 77.1337 38.9006C77.1337 38.1627 76.5513 38.033 75.8971 38.033H74.8021V39.7663V39.7683Z" fill="white"/>
</g>
<mask id="mask2_14447_9840" style="mask-type:luminance" maskUnits="userSpaceOnUse" x="49" y="39" width="9" height="6">
<path d="M49.2583 39.6519V40.1845H50.8838C51.2189 42.181 53.6861 43.7925 56.8215 44.1516C56.9392 44.1655 57.0588 44.1775 57.1785 44.1875V43.6449C57.0588 43.635 56.9392 43.623 56.8215 43.609C53.712 43.246 51.3944 41.6385 51.3944 39.7277V39.6499H49.2603L49.2583 39.6519Z" fill="white"/>
</mask>
<g mask="url(#mask2_14447_9840)">
<path d="M52.5301 35.7527L47.0237 42.3149L53.9053 48.0893L59.4117 41.527L52.5301 35.7527Z" fill="white"/>
</g>
<mask id="mask3_14447_9840" style="mask-type:luminance" maskUnits="userSpaceOnUse" x="59" y="35" width="5" height="2">
<path d="M59.0893 35.348V35.8128C60.1544 35.9025 61.1357 36.1359 61.9794 36.4789H63.1602C62.0652 35.8347 60.6511 35.3979 59.0893 35.2703V35.348Z" fill="white"/>
</mask>
<g mask="url(#mask3_14447_9840)">
<path d="M60.7726 33.2666L58.4956 35.9801L61.4796 38.484L63.7565 35.7704L60.7726 33.2666Z" fill="white"/>
</g>
<mask id="mask4_14447_9840" style="mask-type:luminance" maskUnits="userSpaceOnUse" x="51" y="34" width="8" height="5">
<path d="M57.6832 34.173V35.238C54.4361 35.3637 51.7296 36.8237 51.0235 38.7464H51.6079C52.3678 37.0351 55.0544 35.7706 58.14 35.7706H58.2177V34.173H57.6852H57.6832Z" fill="white"/>
</mask>
<g mask="url(#mask4_14447_9840)">
<path d="M53.9963 30.6319L48.772 36.858L55.2441 42.2888L60.4685 36.0627L53.9963 30.6319Z" fill="white"/>
</g>
</g>
<path d="M46.2665 49.892V49.4293L46.7432 48.9925C47.6906 48.1189 48.1373 47.6382 48.1433 47.1077C48.1433 46.7507 47.9518 46.4355 47.4253 46.4355C47.0723 46.4355 46.7691 46.615 46.5637 46.7686L46.3403 46.2321C46.6315 45.9987 47.0703 45.8192 47.5789 45.8192C48.4704 45.8192 48.9052 46.3797 48.9052 47.0319C48.9052 47.7339 48.3966 48.3004 47.6965 48.9466L47.3435 49.2478V49.2598H48.997V49.888H46.2665V49.892Z" fill="white"/>
<path d="M52.4295 47.8655C52.4295 49.152 51.9209 49.9598 50.9616 49.9598C50.0022 49.9598 49.5375 49.1221 49.5315 47.9034C49.5315 46.6589 50.0641 45.8212 51.0055 45.8212C51.9469 45.8212 52.4295 46.6828 52.4295 47.8655ZM50.2994 47.9034C50.2934 48.8768 50.5667 49.3814 50.9875 49.3814C51.4343 49.3814 51.6696 48.8389 51.6696 47.8795C51.6696 46.9201 51.4463 46.4016 50.9875 46.4016C50.5786 46.4016 50.2934 46.9002 50.2994 47.9034Z" fill="white"/>
<path d="M52.9063 49.892V49.4293L53.383 48.9925C54.3304 48.1189 54.7772 47.6382 54.7832 47.1077C54.7832 46.7507 54.5917 46.4355 54.0651 46.4355C53.7121 46.4355 53.4089 46.615 53.2035 46.7686L52.9801 46.2321C53.2713 45.9987 53.7101 45.8192 54.2187 45.8192C55.1103 45.8192 55.5451 46.3797 55.5451 47.0319C55.5451 47.7339 55.0365 48.3004 54.3364 48.9466L53.9834 49.2478V49.2598H55.6368V49.888H52.9063V49.892Z" fill="white"/>
<path d="M57.9045 49.8917V48.8765H56.0835V48.3839L57.725 45.8907H58.6225V48.3041H59.1431V48.8765H58.6225V49.8917H57.9045ZM57.9045 48.3021V47.2111C57.9045 46.9837 57.9104 46.7484 57.9284 46.515H57.9045C57.7808 46.7683 57.6751 46.9698 57.5514 47.1931L56.8135 48.2901L56.8075 48.3021H57.9045Z" fill="white"/>
<path d="M64.347 49.7004C64.0797 49.7981 63.5611 49.9337 63.0027 49.9337C62.2966 49.9337 61.7641 49.7542 61.3672 49.3793C60.9962 49.0282 60.7788 48.4797 60.7848 47.8515C60.7848 46.5391 61.7262 45.6954 63.1084 45.6954C63.623 45.6954 64.0258 45.7991 64.2173 45.8929L64.0498 46.5032C63.8204 46.4055 63.5412 46.3237 63.1024 46.3237C62.2108 46.3237 61.5846 46.8462 61.5846 47.8136C61.5846 48.7809 62.167 49.3154 63.0346 49.3154C63.3078 49.3154 63.5113 49.2776 63.611 49.2297V48.1945H62.873V47.5982H64.347V49.6984V49.7004Z" fill="white"/>
<path d="M65.1266 45.7411H65.8885V49.2574H67.6038V49.8917H65.1266V45.7411Z" fill="white"/>
<path d="M71.6428 47.7737C71.6428 49.1659 70.7951 49.9597 69.6423 49.9597C68.4894 49.9597 67.7216 49.0662 67.7216 47.8475C67.7216 46.6289 68.5273 45.6735 69.7041 45.6735C70.8809 45.6735 71.6428 46.591 71.6428 47.7737ZM68.5273 47.8356C68.5273 48.6793 68.9542 49.3514 69.6862 49.3514C70.4181 49.3514 70.839 48.6733 70.839 47.8057C70.839 47.0238 70.4481 46.2838 69.6862 46.2838C68.9242 46.2838 68.5273 46.9799 68.5273 47.8356Z" fill="white"/>
<path d="M72.2989 45.7972C72.5403 45.7473 72.9811 45.7114 73.4079 45.7114C73.9723 45.7114 74.3194 45.7792 74.6026 45.9767C74.8619 46.1303 75.0354 46.4015 75.0354 46.7526C75.0354 47.1335 74.7941 47.4845 74.3413 47.6521V47.6641C74.7801 47.7757 75.183 48.1188 75.183 48.6932C75.183 49.0622 75.0214 49.3514 74.7801 49.5489C74.4829 49.8082 73.9943 49.9358 73.2324 49.9358C72.8115 49.9358 72.4884 49.9059 72.2969 49.88V45.7972H72.2989ZM73.0549 47.4347H73.4458C73.9723 47.4347 74.2695 47.1874 74.2695 46.8383C74.2695 46.4494 73.9723 46.2719 73.4897 46.2719C73.2663 46.2719 73.1366 46.2838 73.0569 46.3018V47.4347H73.0549ZM73.0549 49.3434C73.1546 49.3554 73.2842 49.3614 73.4577 49.3614C73.9464 49.3614 74.3812 49.1759 74.3812 48.6653C74.3812 48.1846 73.9604 47.9872 73.4338 47.9872H73.0569V49.3414L73.0549 49.3434Z" fill="white"/>
<path d="M76.6828 48.7149L76.3238 49.8917H75.538L76.8763 45.7411H77.8476L79.2039 49.8917H78.3861L78.0092 48.7149H76.6828ZM77.8795 48.1425L77.5504 47.1193C77.4706 46.866 77.4008 46.5828 77.339 46.3434H77.327C77.2652 46.5828 77.2034 46.874 77.1296 47.1193L76.8085 48.1425H77.8795Z" fill="white"/>
<path d="M79.7864 45.7411H80.5483V49.2574H82.2636V49.8917H79.7864V45.7411Z" fill="white"/>
<path fill-rule="evenodd" clip-rule="evenodd" d="M40.0137 49.5487H12.25V48.9504H40.0137V49.5487Z" fill="white"/>
<path fill-rule="evenodd" clip-rule="evenodd" d="M116.101 49.5487H87.5311V48.9504H116.101V49.5487Z" fill="white"/>
<path d="M20.0606 56.8769C20.0606 60.084 18.1399 62.1224 15.0664 62.1224C11.9928 62.1224 10.2795 59.8028 10.2795 57.0384C10.2795 54.274 12.1863 51.8367 15.2299 51.8367C18.4371 51.8367 20.0626 54.2162 20.0626 56.8749L20.0606 56.8769ZM13.0998 56.9945C13.0998 58.8554 13.9135 60.0083 15.198 60.0083C16.4825 60.0083 17.2364 58.7517 17.2364 56.9646C17.2364 55.1775 16.4685 53.9509 15.182 53.9509C13.8956 53.9509 13.0978 55.1616 13.0978 56.9945H13.0998Z" fill="white"/>
<path d="M24.8174 52.0001V57.6445C24.8174 59.1524 25.334 60.008 26.3831 60.008C27.4322 60.008 27.9647 59.2242 27.9647 57.6445V52.0001H30.6394V57.4969C30.6394 60.5705 29.1016 62.1222 26.3093 62.1222C23.517 62.1222 22.1427 60.6303 22.1427 57.4231V52.0001H24.8174Z" fill="white"/>
<path d="M35.0732 54.23H32.5322V51.9981H40.3347V54.23H37.7479V61.9587H35.0732V54.23Z" fill="white"/>
<path d="M42.2696 59.3002C42.8759 59.6113 43.8652 59.9205 44.8565 59.9205C45.772 59.9205 46.2167 59.6093 46.2167 59.1087C46.2167 58.6081 45.7739 58.3408 44.651 57.9559C42.9657 57.3655 41.8587 56.4341 41.8587 54.9561C41.8587 53.197 43.3366 51.8387 45.8477 51.8387C47.0445 51.8387 47.8861 52.0601 48.5523 52.3553L47.9899 54.4834C47.561 54.292 46.8231 54.0107 45.8178 54.0107C45.0061 54.0107 44.5613 54.3059 44.5613 54.7487C44.5613 55.2513 45.0938 55.4588 46.3484 55.9315C48.1355 56.5817 48.9492 57.543 48.9492 58.9312C48.9492 60.6445 47.6049 62.1085 44.6929 62.1085C43.4962 62.1085 42.3294 61.7973 41.767 61.5021L42.2696 59.3002Z" fill="white"/>
<path d="M60.4295 56.8769C60.4295 60.0841 58.5088 62.1225 55.4352 62.1225C52.3617 62.1225 50.6484 59.8029 50.6484 57.0385C50.6484 54.2741 52.5552 51.8368 55.5988 51.8368C58.806 51.8368 60.4315 54.2162 60.4315 56.8749L60.4295 56.8769ZM53.4687 56.9946C53.4687 58.8555 54.2804 60.0083 55.5669 60.0083C56.8533 60.0083 57.6053 58.7517 57.6053 56.9647C57.6053 55.1776 56.8374 53.9509 55.5509 53.9509C54.2645 53.9509 53.4667 55.1616 53.4667 56.9946H53.4687Z" fill="white"/>
<path d="M65.1883 52.0001V57.6445C65.1883 59.1524 65.7049 60.008 66.754 60.008C67.8031 60.008 68.3356 59.2242 68.3356 57.6445V52.0001H71.0103V57.4969C71.0103 60.5705 69.4745 62.1222 66.6802 62.1222C63.8859 62.1222 62.5136 60.6303 62.5136 57.4231V52.0001H65.1883Z" fill="white"/>
<path d="M73.5076 52.1321C74.2615 52.0144 75.3984 51.9247 76.7287 51.9247C78.2505 51.9247 79.3435 52.1321 80.0975 52.6925C80.7337 53.1792 81.0867 53.8892 81.0867 54.8646C81.0867 56.1052 80.1553 56.9927 79.3735 57.2739V57.3338C80.0376 57.615 80.3927 58.2493 80.644 59.1069C80.9551 60.1261 81.2802 61.5741 81.4717 61.9591H78.7372C78.5896 61.6639 78.3383 60.896 78.0431 59.6694C77.7778 58.4726 77.4069 58.2213 76.5811 58.2213H76.1523V61.9591H73.5076V52.1321ZM76.1523 56.3146H76.8464C77.8516 56.3146 78.4281 55.812 78.4281 55.074C78.4281 54.336 77.9414 53.9072 77.0538 53.8912C76.5512 53.8912 76.2859 53.9212 76.1523 53.9511V56.3146Z" fill="white"/>
<path d="M90.6485 61.7076C90.2636 61.8851 89.3341 62.1065 88.1374 62.1065C84.4137 62.1065 82.7742 59.7869 82.7742 57.1422C82.7742 53.6258 85.3451 51.8368 88.315 51.8368C89.4678 51.8368 90.3992 52.0582 90.8121 52.2795L90.2955 54.3778C89.8527 54.2003 89.2464 54.0227 88.4486 54.0227C86.9128 54.0227 85.5825 54.9243 85.5825 56.9627C85.5825 58.7797 86.6615 59.9026 88.4925 59.9026C89.1427 59.9026 89.8667 59.7689 90.2815 59.6074L90.6505 61.7056L90.6485 61.7076Z" fill="white"/>
<path d="M95.4352 52.0001V61.9607H92.7605V52.0001H95.4352Z" fill="white"/>
<path d="M97.9483 61.9587V51.9981H101.096L102.677 55.0577C103.224 56.047 103.8 57.3773 104.243 58.5461H104.287C104.139 57.2317 104.079 55.8415 104.079 54.3496V52.0001H106.517V61.9607H103.708L102.023 58.6498C101.461 57.5867 100.81 56.2564 100.338 55.0437H100.294C100.354 56.388 100.382 57.8959 100.382 59.5055V61.9587H97.9443H97.9483Z" fill="white"/>
<path d="M117.674 61.4862C116.936 61.7375 115.546 62.0626 114.246 62.0626C112.281 62.0626 110.951 61.5739 110.049 60.7183C109.118 59.8327 108.631 58.5463 108.631 57.1122C108.645 53.6537 111.218 51.8965 114.453 51.8965C115.797 51.8965 116.817 52.1339 117.335 52.3832L116.803 54.5114C116.24 54.274 115.576 54.0985 114.439 54.0985C112.8 54.0985 111.439 54.9561 111.439 56.9806C111.439 58.8434 112.636 59.9205 114.276 59.9205C114.631 59.9205 114.986 59.8766 115.103 59.8327V58.1194H113.773V56.0511H117.674V61.4882V61.4862Z" fill="white"/>
<path d="M51.4123 67.6488H51.3704L48.6579 68.7876L48.0436 66.111L51.9628 64.4735H55.0982V77.4538H51.4123V67.6488Z" fill="white"/>
<path d="M68.1105 70.7464C68.1265 74.5599 66.4211 77.4819 62.7133 77.4938C58.7722 77.5078 57.2962 74.2189 57.2843 70.8242C57.2703 67.3099 58.8041 64.0887 62.7034 64.0748C66.7084 64.0608 68.0985 67.4295 68.1125 70.7444L68.1105 70.7464ZM61.0978 70.7923C61.0878 73.6085 61.7281 74.8032 62.7453 74.7993C63.7625 74.7953 64.309 73.5746 64.297 70.7803C64.285 67.986 63.7086 66.7893 62.7133 66.7913C61.7181 66.7933 61.0858 67.976 61.0978 70.7903V70.7923Z" fill="white"/>
<path d="M80.2929 70.7026C80.3089 74.5162 78.6036 77.4381 74.8958 77.4501C70.9546 77.464 69.4787 74.1751 69.4667 70.7804C69.4527 67.2661 70.9865 64.0449 74.8858 64.031C78.8908 64.017 80.281 67.3858 80.2949 70.7006L80.2929 70.7026ZM73.2802 70.7485C73.2702 73.5648 73.9105 74.7595 74.9277 74.7555C75.903 74.7515 76.4914 73.5309 76.4794 70.7365C76.4694 68.0001 75.891 66.7455 74.8958 66.7475C73.9005 66.7515 73.2682 67.9323 73.2802 70.7465V70.7485Z" fill="white"/>
<path fill-rule="evenodd" clip-rule="evenodd" d="M39.9539 65.4015H12.1903V64.8031H39.9539V65.4015Z" fill="white"/>
<path fill-rule="evenodd" clip-rule="evenodd" d="M116.24 65.4015H87.6707V64.8031H116.24V65.4015Z" fill="white"/>
</svg>
