<?xml version="1.0"?>
<svg xmlns="http://www.w3.org/2000/svg" width="142" height="81" viewBox="0 0 142 81" fill="none">
<path d="M5.91218 14.3444C5.91218 16.0706 6.36831 16.2624 8.29708 16.3423V16.9576H0.618848V16.3423C2.21374 16.2624 2.66987 16.0706 2.66987 14.3444V3.06077C2.66987 1.32666 2.21375 1.13487 0.66117 1.06295V0.431633H14.2174L14.3091 4.07565H13.6421C13.0692 2.22967 12.4509 1.6463 9.27674 1.6463H6.81817C6.0799 1.6463 5.91218 1.81412 5.91218 2.50137V7.72767H8.68268C11.211 7.72767 11.7588 7.26416 12.0684 5.53804H12.6899V11.3797H12.0684C11.7345 9.4298 10.7792 8.94234 8.68268 8.94234H5.91218V14.3444ZM21.8988 14.3444C21.8988 16.0706 22.3486 16.2624 24.2837 16.3423V16.9576H16.2653V16.3423C18.2035 16.2624 18.6502 16.0706 18.6502 14.3444V3.06077C18.6502 1.32666 18.2035 1.13487 16.2653 1.06295V0.431633H24.2837V1.06295C22.3486 1.13487 21.8988 1.32666 21.8988 3.06077V14.3444ZM41.0085 3.52425C41.0085 1.91801 40.5767 1.26273 38.8102 1.06295V0.431633H44.5353V1.06295C42.7719 1.26273 42.3432 1.91801 42.3432 3.52425V17.3652H41.5321L30.465 4.32338V13.8809C30.465 15.4872 30.8905 16.1425 32.6571 16.3423V16.9576H26.9288V16.3423C28.6953 16.1425 29.124 15.4872 29.124 13.8809V2.7491C28.5762 1.76617 27.9296 1.30269 26.9288 1.06295V0.431633H31.3435L41.0085 11.8192V3.52425ZM49.6664 11.036L52.0999 4.49119L54.5123 11.036H49.6664ZM61.2845 16.9576V16.3423C60.0689 16.3662 59.7601 15.8308 59.139 14.2725L53.435 0.0400429H52.6513L46.709 14.784C46.3023 15.8068 45.7536 16.1185 44.7285 16.3423V16.9576H49.8808V16.3423C48.76 16.3423 48.2122 16.0945 48.2122 15.2954C48.2122 14.6162 48.9536 12.7862 49.1402 12.2507H55.0119C55.2015 12.7862 55.9884 14.6162 55.9884 15.2954C55.9884 16.0945 55.3943 16.3423 54.2713 16.3423V16.9576H61.2845ZM77.0077 3.52425C77.0077 1.91801 76.5798 1.26273 74.816 1.06295V0.431633H80.5408V1.06295C78.7743 1.26273 78.3432 1.91801 78.3432 3.52425V17.3652H77.5344L66.4634 4.32338L66.4638 13.8809C66.4638 15.4872 66.8925 16.1425 68.659 16.3423V16.9576H62.9307V16.3423C64.6973 16.1425 65.1291 15.4872 65.1291 13.8809V2.7491C64.5781 1.76617 63.9323 1.30269 62.9307 1.06295V0.431633H67.3455L77.0074 11.8192L77.0077 3.52425ZM97.4922 13.0738C95.7962 16.0226 93.5766 17.3652 90.2121 17.3652C84.9399 17.3652 81.8144 13.833 81.8144 8.55077C81.8144 4.78688 84.7259 0.0400429 90.3806 0.0400429C92.0734 0.0400429 94.4795 1.01498 94.8408 1.01498C95.3158 1.01498 95.4592 0.751266 95.8456 0.0400429H96.6536L96.9898 5.56202H96.2735C95.3158 3.00481 93.626 1.15884 90.785 1.15884C86.9666 1.15884 85.2989 5.37025 85.2989 8.55077C85.2989 13.0099 87.1814 15.9986 91.216 15.9986C94.3635 15.9986 96.1058 13.6172 96.8464 12.5704L97.4922 13.0738ZM105.348 14.3444C105.348 16.0706 105.804 16.2624 107.736 16.3423V16.9576H99.718V16.3423C101.653 16.2624 102.106 16.0706 102.106 14.3444V3.06077C102.106 1.32666 101.653 1.13487 99.718 1.06295V0.431633H107.736V1.06295C105.804 1.13487 105.348 1.32666 105.348 3.06077V14.3444ZM114.379 11.036L116.813 4.49119L119.223 11.036H114.379ZM126 16.9576V16.3423C124.782 16.3662 124.473 15.8308 123.855 14.2725L118.151 0.0400429H117.365L111.422 14.784C111.015 15.8068 110.467 16.1185 109.441 16.3423V16.9576H114.593V16.3423C113.473 16.3423 112.925 16.0945 112.925 15.2954C112.925 14.6162 113.666 12.7862 113.856 12.2507H119.724C119.914 12.7862 120.701 14.6162 120.701 15.2954C120.701 16.0945 120.104 16.3423 118.984 16.3423V16.9576H126ZM127.418 16.9576V16.3423C128.97 16.2703 129.423 16.0706 129.423 14.3444V3.06077C129.423 1.32666 128.97 1.13487 127.418 1.06295V0.431633H134.909V1.06295C133.121 1.13487 132.665 1.32666 132.665 3.06077V14.6641C132.665 15.663 132.953 15.9986 134.766 15.9986C137.677 15.9986 139.394 15.4632 140.779 12.5464H141.4L140.304 16.9576H127.418ZM4.17621 43.0251C6.01877 42.9452 6.46863 42.7534 6.46863 41.0273V28.3292H4.46697C2.58131 28.3292 1.8399 29.1043 1.31637 31.3419H0.600037L0.982498 27.1145H15.2002L15.5827 31.3419H14.8632C14.3428 29.1043 13.6022 28.3292 11.7196 28.3292H9.71407V41.0273C9.71407 42.7534 10.1671 42.9452 12.001 43.0251V43.6405H4.17621V43.0251ZM22.8816 41.0273C22.8816 42.7534 23.3377 42.9452 25.2696 43.0172V43.6405H17.2512V43.0172C19.1894 42.9452 19.6393 42.7534 19.6393 41.0273V29.7356C19.6393 28.0095 19.1894 27.8177 17.2512 27.7458V27.1065H25.2696V27.7458C23.3377 27.8177 22.8816 28.0095 22.8816 29.7356V41.0273ZM42.3001 27.1145H47.8842V27.7458C46.3324 27.8177 45.8826 28.0095 45.8826 29.7356V41.0273C45.8826 42.7534 46.3324 42.9452 47.8842 43.0251V43.6405H40.583V43.0251C42.181 42.9452 42.6371 42.7534 42.6371 41.0273V29.4H42.5877L37.1722 43.8482H36.4315L31.1382 29.4H31.0896V40.5638C31.0896 42.1701 31.5175 42.8253 33.2841 43.0251V43.6405H27.5597V43.0251C29.3231 42.8253 29.7518 42.1701 29.7518 40.5638V29.3281C29.7518 28.1853 29.2768 27.7458 27.5597 27.7458V27.1145H33.4526L37.7694 38.59L42.3001 27.1145ZM50.1868 43.6405V43.0251C51.7355 42.9452 52.1885 42.7534 52.1885 41.0273V29.7356C52.1885 28.0095 51.7355 27.8177 50.1868 27.7458V27.1145H63.736L63.8312 30.7585H63.1666C62.5914 28.9125 61.9699 28.3292 58.7985 28.3292H56.343C55.5993 28.3292 55.4371 28.497 55.4371 29.1763V34.4105H58.2013C60.73 34.4105 61.2778 33.947 61.5905 32.2209H62.2113V38.0546H61.5905C61.2535 36.1127 60.3013 35.6252 58.2013 35.6252H55.4371V41.347C55.4371 42.3379 55.7215 42.6815 58.5845 42.6815C61.4926 42.6815 63.2129 42.1461 64.5961 39.2213H65.2153L64.1189 43.6405H50.1868ZM67.3247 38.4461H67.9493C68.6382 40.6358 70.6924 42.9212 73.0805 42.9212C75.1283 42.9212 75.8694 41.4668 75.8694 40.1722C75.8694 36.3764 67.4717 35.6732 67.4717 30.9583C67.4713 28.6728 69.6422 26.7229 72.122 26.7229C74.5554 26.7229 75.4132 27.594 76.4909 27.594C76.9439 27.594 77.2291 27.2344 77.3483 26.7229H77.9698V31.9732H77.3483C76.6805 29.5918 75.0124 27.8417 72.814 27.8417C71.0043 27.8417 70.3311 29.0324 70.3311 30.1592C70.3311 33.5315 78.7327 33.6354 78.7327 39.4451C78.7319 42.0422 76.6347 44.04 73.7196 44.04C70.8574 44.04 70.1191 43.0251 68.996 43.0251C68.5705 43.0251 68.2797 43.3128 68.1872 43.8482H67.3243L67.3247 38.4461Z" fill="white"/>
<path d="M83.1762 80.113C82.1765 80.113 81.2825 79.9229 80.494 79.5427C79.7196 79.1766 79.093 78.6557 78.6143 77.9798L79.5858 77.0083C79.9801 77.5434 80.4799 77.9587 81.0853 78.2544C81.6908 78.5501 82.4018 78.6979 83.2185 78.6979C84.3449 78.6979 85.2389 78.3952 85.9007 77.7898C86.5765 77.1843 86.9145 76.3606 86.9145 75.3187V72.8477L87.2101 70.5878L86.9145 68.3491V65.7936H88.3929V75.3187C88.3929 76.2762 88.1746 77.1139 87.7381 77.832C87.3017 78.5501 86.6892 79.1062 85.9007 79.5005C85.1263 79.9088 84.2181 80.113 83.1762 80.113ZM83.2818 75.6144C82.3666 75.6144 81.5429 75.3962 80.8108 74.9597C80.0786 74.5232 79.5013 73.9248 79.0789 73.1645C78.6565 72.4042 78.4453 71.5453 78.4453 70.5878C78.4453 69.6304 78.6495 68.7786 79.0578 68.0323C79.4802 67.272 80.0575 66.6736 80.7897 66.2371C81.5218 65.8006 82.3455 65.5824 83.2607 65.5824C84.0351 65.5824 84.725 65.7302 85.3305 66.0259C85.95 66.3216 86.4428 66.744 86.8089 67.2931C87.189 67.8282 87.4213 68.4618 87.5058 69.1939V72.0029C87.4213 72.721 87.189 73.3546 86.8089 73.9037C86.4287 74.4387 85.9359 74.8611 85.3305 75.1709C84.725 75.4666 84.0421 75.6144 83.2818 75.6144ZM83.5564 74.1994C84.2463 74.1994 84.8447 74.0515 85.3516 73.7558C85.8725 73.4602 86.2738 73.0448 86.5554 72.5098C86.8511 71.9606 86.9989 71.32 86.9989 70.5878C86.9989 69.8698 86.8511 69.2432 86.5554 68.7082C86.2738 68.1731 85.8725 67.7507 85.3516 67.441C84.8306 67.1312 84.2252 66.9763 83.5353 66.9763C82.8453 66.9763 82.2258 67.1312 81.6767 67.441C81.1417 67.7507 80.7193 68.1731 80.4095 68.7082C80.1138 69.2432 79.966 69.8698 79.966 70.5878C79.966 71.2918 80.1209 71.9184 80.4306 72.4675C80.7404 73.0166 81.1628 73.4461 81.6978 73.7558C82.2329 74.0515 82.8524 74.1994 83.5564 74.1994Z" fill="white"/>
<path d="M74.8139 75.72V69.8909C74.8139 69.0179 74.5534 68.3139 74.0325 67.7789C73.5256 67.2298 72.8497 66.9552 72.0049 66.9552C71.4277 66.9552 70.9208 67.0819 70.4843 67.3354C70.0478 67.5888 69.7029 67.9338 69.4494 68.3702C69.196 68.8067 69.0693 69.3066 69.0693 69.8698L68.3934 69.4896C68.3934 68.7434 68.5694 68.0746 68.9214 67.4832C69.2734 66.8918 69.7451 66.4272 70.3365 66.0893C70.9419 65.7514 71.6318 65.5824 72.4062 65.5824C73.1665 65.5824 73.8424 65.7654 74.4337 66.1315C75.0251 66.4976 75.4827 66.9904 75.8065 67.6099C76.1445 68.2294 76.3134 68.9053 76.3134 69.6374V75.72H74.8139ZM67.5909 75.72V65.7936H69.0693V75.72H67.5909Z" fill="white"/>
<path d="M63.0945 75.7201V65.7937H64.594V75.7201H63.0945ZM63.8337 63.6395C63.5521 63.6395 63.3127 63.5409 63.1156 63.3438C62.9185 63.1326 62.8199 62.8862 62.8199 62.6046C62.8199 62.3089 62.9185 62.0625 63.1156 61.8654C63.3127 61.6683 63.5521 61.5697 63.8337 61.5697C64.1435 61.5697 64.3899 61.6683 64.5729 61.8654C64.77 62.0625 64.8686 62.3089 64.8686 62.6046C64.8686 62.8862 64.77 63.1326 64.5729 63.3438C64.3899 63.5409 64.1435 63.6395 63.8337 63.6395Z" fill="white"/>
<path d="M59.6351 75.7199L54.5663 70.63L59.5506 65.7935H61.3881L55.9602 71.0102L56.0236 70.1654L61.5993 75.7199H59.6351ZM53.2358 75.7199V60.767H54.7142V75.7199H53.2358Z" fill="white"/>
<path d="M48.9707 75.72V69.8909C48.9707 69.0179 48.7102 68.3139 48.1893 67.7789C47.6824 67.2298 47.0066 66.9552 46.1618 66.9552C45.5845 66.9552 45.0776 67.0819 44.6411 67.3354C44.2046 67.5888 43.8597 67.9338 43.6062 68.3702C43.3528 68.8067 43.2261 69.3066 43.2261 69.8698L42.5502 69.4896C42.5502 68.7434 42.7262 68.0746 43.0782 67.4832C43.4302 66.8918 43.9019 66.4272 44.4933 66.0893C45.0987 65.7514 45.7886 65.5824 46.563 65.5824C47.3234 65.5824 47.9992 65.7654 48.5906 66.1315C49.1819 66.4976 49.6395 66.9904 49.9634 67.6099C50.3013 68.2294 50.4702 68.9053 50.4702 69.6374V75.72H48.9707ZM41.7477 75.72V65.7936H43.2261V75.72H41.7477Z" fill="white"/>
<path d="M33.7019 75.9312C32.7585 75.9312 31.9137 75.7059 31.1675 75.2554C30.4212 74.7907 29.8299 74.1712 29.3934 73.3968C28.971 72.6224 28.7598 71.7494 28.7598 70.7779C28.7598 69.7923 28.971 68.9123 29.3934 68.1379C29.8299 67.3494 30.4212 66.7299 31.1675 66.2794C31.9137 65.8147 32.7515 65.5824 33.6808 65.5824C34.4411 65.5824 35.1169 65.7373 35.7083 66.047C36.3137 66.3427 36.7995 66.7651 37.1656 67.3142C37.5457 67.8493 37.778 68.4758 37.8625 69.1939V72.2986C37.778 73.0166 37.5457 73.6502 37.1656 74.1994C36.7995 74.7485 36.3137 75.1779 35.7083 75.4877C35.1169 75.7834 34.4481 75.9312 33.7019 75.9312ZM33.9342 74.5162C34.962 74.5162 35.7857 74.1712 36.4052 73.4813C37.0388 72.7914 37.3556 71.8832 37.3556 70.7568C37.3556 70.0106 37.2078 69.3558 36.9121 68.7926C36.6305 68.2154 36.2292 67.7718 35.7083 67.4621C35.2014 67.1382 34.603 66.9763 33.9131 66.9763C33.2091 66.9763 32.5825 67.1382 32.0334 67.4621C31.4984 67.7859 31.0689 68.2365 30.7451 68.8138C30.4353 69.377 30.2804 70.0246 30.2804 70.7568C30.2804 71.489 30.4353 72.1366 30.7451 72.6998C31.0689 73.263 31.5054 73.7066 32.0545 74.0304C32.6036 74.3542 33.2302 74.5162 33.9342 74.5162ZM37.2712 75.72V73.0589L37.5668 70.609L37.2712 68.2224V65.7936H38.7496V75.72H37.2712Z" fill="white"/>
<path d="M18.0194 69.2151V67.9056H22.2434C23.2009 67.9056 23.933 67.6663 24.4399 67.1875C24.9468 66.6947 25.2002 66.04 25.2002 65.2234C25.2002 64.4349 24.9468 63.7943 24.4399 63.3015C23.933 62.7946 23.2009 62.5411 22.2434 62.5411H18.0194V61.1895H22.2434C23.1868 61.1895 23.9964 61.3655 24.6722 61.7175C25.3481 62.0554 25.862 62.5271 26.214 63.1325C26.5801 63.7379 26.7631 64.4279 26.7631 65.2023C26.7631 66.0048 26.5801 66.7088 26.214 67.3143C25.862 67.9197 25.3481 68.3914 24.6722 68.7293C23.9964 69.0531 23.1868 69.2151 22.2434 69.2151H18.0194ZM17.0268 75.72V61.1895H18.5686V75.72H17.0268ZM25.8127 75.72L20.3638 69.0039L21.8633 68.5181L27.798 75.72H25.8127Z" fill="white"/>
<path d="M4.11999 54.6H2.35999V81H4.11999V54.6Z" fill="white"/>
</svg>
