<?xml version="1.0"?>
<svg xmlns="http://www.w3.org/2000/svg" width="128" height="100" viewBox="0 0 128 100" fill="none">
<path d="M51.565 14.2985V19.8242L51.3653 20.0239H48.7689L48.6357 32.8061H51.4319C51.3892 32.9366 51.565 33.0951 51.565 33.139V38.2652C51.2707 38.2852 51.0031 38.3824 50.7049 38.4037C46.1645 38.7352 41.2207 38.0735 36.7137 38.2599C36.261 38.2785 34.9614 38.3451 34.6219 38.4316C34.4315 38.4796 34.0653 38.7778 33.9295 38.9376C33.2145 39.7751 32.4609 41.4141 31.7033 42.4367C28.3666 46.9345 23.8982 50.0328 18.3046 51.0075C14.3847 51.6892 10.3863 51.0927 6.43045 51.1832L4.96582 59.0376C6.3985 58.2867 7.68737 57.2974 9.19061 56.6729C17.9384 53.0366 31.4916 55.874 32.9096 66.711C33.6779 72.5788 30.979 78.693 25.91 81.7807C17.6508 86.8137 -3.00709 86.5474 0.36955 72.218C1.29093 68.3074 5.12826 66.0465 8.73791 68.3793C12.9001 71.0702 9.84171 76.4667 8.93896 79.8553C8.5049 81.4837 8.88038 82.4437 10.4262 83.2013C14.92 85.4036 17.8213 81.0084 18.8785 77.2789C20.2539 72.4243 21.5494 57.6529 14.217 56.9086C9.09741 56.3893 6.754 59.742 3.97254 63.305C3.62502 63.5753 3.2815 63.4422 3.16033 63.0387L7.77125 38.2119C7.81785 38.1214 7.8831 38.0455 7.98296 38.0149C8.30784 37.915 10.823 39.2199 11.4541 39.4329C17.1382 41.3622 25.7769 41.3462 31.3997 39.2039C33.1826 38.5248 33.2305 37.7379 33.3304 35.9418C33.377 35.1082 33.1879 33.8886 33.325 33.1403C33.3517 32.9912 33.3929 32.8913 33.5248 32.8075H37.8521V20.0252H35.056C35.1292 19.8548 34.9228 19.6311 34.9228 19.5592V14.2999H51.5663L51.565 14.2985Z" fill="white"/>
<path d="M62.8825 23.0861C63.7146 22.479 64.3844 21.6907 65.2898 21.1661C69.1151 18.9532 77.3956 19.8293 77.3956 25.4162V32.9391H78.8616C78.7923 29.5971 78.1279 26.3522 80.5233 23.6174C85.4018 18.0465 99.9456 18.2981 100.165 27.7476L93.3015 28.5132C93.0086 28.4586 92.9154 25.5587 91.6891 24.8383C90.801 24.3164 88.8424 24.4282 88.1074 25.2112C86.724 26.6851 86.6641 32.1335 88.0927 33.5609C89.1007 34.5688 91.4374 34.5182 92.4427 33.5023C93.0259 32.9111 93.0059 32.1349 93.44 31.4758H100.164C99.9682 38.5166 91.5719 39.6457 86.1261 38.257C83.366 37.5527 81.3128 36.2092 79.526 34.0056V38.1332H66.6106V33.1401L66.8103 32.9404H68.8741V26.8822C68.8741 26.054 67.5746 25.295 66.8117 25.2178C62.4417 24.7731 63.0316 30.0937 63.2819 32.9404H65.5454V38.0666L65.3457 38.2663H52.6966L52.4969 38.0666V32.9404H54.6273V25.4175C54.0721 24.9542 53.168 25.4375 52.5156 25.066C52.4583 23.3311 52.2865 21.6241 52.4969 19.8919H62.6827L62.8825 20.0916V23.0874V23.0861Z" fill="white"/>
<path d="M49.0085 44.4299C62.1023 43.2702 67.4096 57.8872 64.1168 68.5923C62.1702 74.9181 57.8802 80.3 50.8393 80.746C29.8525 82.0722 30.0576 46.1089 49.0099 44.4312L49.0085 44.4299ZM50.1975 45.2181C48.1031 45.4032 47.1884 47.68 46.6332 49.3777C44.4322 56.1096 44.3457 70.8758 46.9021 77.4799C47.6105 79.3094 49.1563 80.5743 51.1522 79.5943C53.457 78.4639 54.3784 72.5002 54.626 70.1528C55.2345 64.4101 55.1107 57.9204 54.3438 52.1951C54.0868 50.2817 52.8831 44.9798 50.1975 45.2168V45.2181Z" fill="white"/>
<path d="M81.0959 44.4286C95.4413 43.6178 99.5329 61.0149 94.4187 71.732C91.4428 77.9673 86.3499 81.5437 79.2092 80.5877C61.1956 78.179 62.6615 45.4685 81.0959 44.4273V44.4286ZM81.221 45.2209C80.3449 45.3673 79.5966 46.1382 79.1226 46.8493C75.7713 51.8783 76.4077 66.8787 77.1294 72.9489C77.429 75.4668 78.9682 81.6409 82.7243 79.4772C84.9519 78.195 85.7308 72.8904 86.0304 70.5336C86.7627 64.783 86.6748 57.3972 85.7667 51.6612C85.4259 49.5082 84.0891 44.7389 81.2197 45.2195L81.221 45.2209Z" fill="white"/>
<path d="M112.121 44.4299C133.406 42.8441 132.519 79.3813 114.083 80.7448C92.978 82.3052 93.2669 45.8346 112.121 44.4299ZM112.78 45.2195C111.724 45.3859 110.944 46.4178 110.443 47.2793C107.225 52.8076 107.832 67.5032 108.836 73.8663C109.213 76.2603 110.771 81.3173 114.133 79.5944C116.712 78.2722 117.456 71.8638 117.74 69.2208C118.353 63.4848 118.146 56.8287 117.19 51.1313C116.837 49.0275 115.573 44.7788 112.78 45.2182V45.2195Z" fill="white"/>
<path d="M73.5171 88.7497L73.1336 90.0599C71.7449 89.2024 69.721 88.7377 68.1778 89.4287C66.8397 90.0279 66.7092 91.5964 67.9821 92.3513C69.9527 93.5177 74.6848 92.9452 74.0071 96.7239C73.3786 100.226 67.4469 99.8023 65.2832 98.0448L65.8824 96.8478C67.3057 97.8743 69.1578 98.3097 70.9074 98.0168C72.6503 97.7252 73.2694 95.7679 71.5811 94.8772C69.733 93.9025 65.9489 94.2607 65.6733 91.4659C65.2752 87.4315 70.9713 87.1226 73.5171 88.751V88.7497Z" fill="white"/>
<path d="M102.127 32.7048C106.494 31.9632 107.076 38.0481 103.394 38.6326C99.2212 39.2943 98.7259 33.2827 102.127 32.7048Z" fill="white"/>
<path d="M88.0475 87.9294V89.2609H84.1862V99.247H82.5884V89.2609H78.7271V87.9294H88.0475Z" fill="white"/>
<path d="M58.5873 0.482888C64.5257 -0.533032 63.567 11.5249 58.1292 9.26534C55.2346 8.06168 55.4037 1.0288 58.5873 0.482888ZM59.1238 1.54275C57.2491 1.80105 57.2385 5.32948 57.6179 6.71555C58.2411 8.99505 60.5499 8.81929 61.0944 6.58507C61.4433 5.15106 61.3687 1.23384 59.1252 1.54275H59.1238Z" fill="white"/>
<path d="M78.9934 0.450867V6.44253L80.1944 6.51976V7.6422L78.9934 7.64087V9.37312L77.7205 9.24796L77.662 7.6422H73.5344L73.6063 6.44919L77.3291 0.586677L78.9921 0.452198L78.9934 0.450867ZM77.7951 6.44253V2.18179L74.999 6.44253H77.7951Z" fill="white"/>
<path d="M44.508 87.9295V98.0487H50.7659V99.2471H43.0434V88.1292C43.3949 87.7497 44.0326 87.9894 44.508 87.9295Z" fill="white"/>
<path d="M49.4346 8.17354H53.4291V9.37187H47.5705C47.5945 9.02702 47.4906 8.63956 47.6398 8.30935C47.8368 7.87262 50.0444 5.97393 50.569 5.38009C51.2947 4.55724 52.6448 3.14054 51.7008 2.0181C50.8273 0.980876 48.681 1.59868 48.902 3.11391H47.5705C47.496 0.289838 51.4358 -0.514377 52.8978 1.58137C54.5755 3.98603 50.7075 6.53715 49.4346 8.17354Z" fill="white"/>
<path d="M67.1432 8.17359H71.1377V9.37193H65.2792L65.3484 8.30941L69.0046 4.50936C71.2801 1.96756 67.1938 -0.0283295 66.4868 3.05671L65.2792 3.1153C65.1074 0.389756 69.1378 -0.530298 70.5305 1.52684C72.2308 4.03935 68.4441 6.40805 67.1446 8.17493L67.1432 8.17359Z" fill="white"/>
<path d="M58.4886 99.2469H56.8908V88.1291L57.1118 87.9507C57.233 87.912 57.3608 87.9334 57.4833 87.9227C57.8135 87.8934 58.2835 87.8575 58.4886 88.1291V99.2469Z" fill="white"/>
</svg>
