<?xml version="1.0"?>
<svg xmlns="http://www.w3.org/2000/svg" width="128" height="50" viewBox="0 0 128 50" fill="none">
<path d="M41.1085 37.1751L42.8247 44.7398L44.8636 37.3237C44.9063 37.1619 45.0277 37.1905 45.1499 37.1702C45.4459 37.1214 47.7932 37.1539 47.8834 37.2613L49.9478 44.6518L51.62 37.1751H55.1824L51.7128 49.5386L48.496 49.4906L46.3858 42.6274L44.2321 49.5346C44.108 49.6067 41.6416 49.6256 41.3684 49.5812C41.2229 49.5575 41.0953 49.5553 41.0245 49.3974L37.59 37.1746H41.1085V37.1751Z" fill="white"/>
<path d="M80.5594 37.175H86.233C86.6385 37.175 88.0393 37.6544 88.4483 37.8625C93.4221 40.3887 91.841 49.5777 86.145 49.5777H80.6914C80.4394 49.5777 80.5594 49.2338 80.5594 49.1819V37.175ZM83.902 46.6749H85.8811C88.1545 46.6749 88.3621 43.1969 87.8361 41.6413C87.2701 39.9678 85.5755 40.0184 84.0823 40.0259C83.9803 40.0263 83.9675 40.0312 83.9024 40.1218V46.6749H83.902Z" fill="white"/>
<path d="M78.8883 49.5777H75.5018L73.2354 45.5543L72.0273 45.5314V49.4457L71.8953 49.5777H68.8166C68.577 49.426 68.6847 49.3864 68.6847 49.2698V37.175H74.7101C77.8921 37.175 79.7081 41.3911 77.791 43.8624C77.4382 44.3171 76.9034 44.6087 76.5243 45.0305L78.8883 49.5777ZM72.0273 42.8046H73.9184C73.9488 42.8046 74.4247 42.6129 74.4832 42.5777C75.628 41.8902 75.0162 39.9019 73.8305 39.9019H72.0273V42.8046Z" fill="white"/>
<path d="M25.3633 49.5776L25.2445 49.3744L29.3642 37.218L33.8098 37.2607L37.7659 49.5776H34.4234L33.5011 47.1573H29.6286L28.7063 49.5776H25.3637H25.3633ZM31.4775 40.6054L30.3384 44.5131C30.4013 44.7704 32.3255 44.5664 32.6509 44.6385L32.7626 44.4692L31.478 40.6054H31.4775Z" fill="white"/>
<path d="M95.6449 45.1795C95.8785 45.7838 95.9049 46.2254 96.4863 46.6252C98.1017 47.7352 100.752 46.1273 98.801 45.1021C97.0224 44.1675 93.5902 44.5752 92.9722 41.8708C91.6176 35.9439 102.646 35.1523 102.715 41.0339C102.63 41.1671 99.9476 41.1878 99.6393 41.0946C99.331 41.0013 99.4405 40.6882 99.3138 40.4542C98.6524 39.2342 95.6304 39.783 96.441 41.1289C96.8861 41.8677 99.4735 42.1426 100.41 42.5244C103.999 43.9867 103.591 48.6637 99.8267 49.5367C96.6226 50.28 92.2694 49.1937 92.6103 45.1791H95.6449V45.1795Z" fill="white"/>
<path d="M54.7427 49.5776C54.6521 49.5468 54.5764 49.3947 54.6257 49.2913L58.7859 37.1684L63.1892 37.2603L67.1453 49.5772H63.8028C63.3559 49.3085 63.1536 47.3157 62.8805 47.1569H59.008L58.0853 49.5772C57.5069 49.5772 55.0734 49.6898 54.7427 49.5772V49.5776ZM59.9325 44.6518C60.4079 44.7406 61.4085 44.6518 61.9556 44.6518C62.0189 44.6518 62.1275 44.46 62.0726 44.3668L60.8574 40.6935L59.7117 44.5097C59.7191 44.562 59.9069 44.6465 59.9325 44.6513V44.6518Z" fill="white"/>
<path d="M23.1203 28.2909L22.2429 28.2447L20.1736 26.3527C17.1886 28.7927 13.2193 29.1749 9.55658 28.2645C-3.05804 25.1282 -3.18691 4.71709 9.18582 1.29361C12.8912 0.268411 16.51 0.628617 19.6326 2.93938C20.437 2.6126 21.7292 0.775952 22.6246 1.1234L22.6216 8.85438L21.8141 8.83854C21.0325 4.17612 17.007 1.21224 12.2821 1.92649C4.02026 3.17555 4.05148 19.1574 7.69223 24.4997C11.2107 29.6627 19.3621 28.1981 21.6047 22.5962C21.7455 22.2444 22.1035 20.7306 22.1743 20.6584C22.3137 20.5168 22.98 20.4649 23.1212 20.6817V28.2905L23.1203 28.2909Z" fill="white"/>
<path d="M38.7336 1.1106L38.8691 1.93084L38.6945 2.03639L34.3791 1.98978L34.4235 27.4112H38.7336L38.8691 28.2315L38.6351 28.3467L25.7254 28.3573C25.4228 28.2983 25.4017 27.5718 25.6273 27.4112H29.5856L29.7175 27.2793V2.12216L29.5856 1.99022H25.6273C25.4201 1.79714 25.4179 1.30763 25.6273 1.1106H38.7336Z" fill="white"/>
<path d="M50.8112 0.785597C68.039 -0.559781 69.0585 27.9865 52.6303 28.7293C35.494 29.5039 35.1896 2.00563 50.8112 0.785597ZM50.809 1.66302C44.6024 2.39442 44.6192 13.0602 44.8483 17.6017C45.0607 21.8151 46.0837 27.4596 51.226 27.8489C57.8139 28.3476 58.7947 21.728 59.0119 16.639C59.2525 11.0178 58.8202 0.718746 50.809 1.66302Z" fill="white"/>
<path d="M116.428 0.782916C131.044 -0.688248 132.123 28.0955 117.902 28.7337C103.667 29.3728 103.418 2.09223 116.428 0.782916ZM116.779 1.66122C115.401 1.8477 114.405 2.96745 113.82 4.15582C111.815 8.22934 111.671 21.4694 113.763 25.4774C115.37 28.5543 119.286 28.7416 121.039 25.7127C123.223 21.9378 122.94 11.2112 122.019 6.93058C121.417 4.13251 120.212 1.19678 116.779 1.66122Z" fill="white"/>
<path d="M92.8561 0.78475C107.376 -0.58086 108.395 28.0191 94.3286 28.7338C79.9991 29.4621 79.6891 2.02281 92.8561 0.78475ZM93.1169 1.66129C91.0907 1.94409 90.0589 4.10531 89.5566 5.84168C88.3142 10.1364 88.0661 21.3674 90.0444 25.3591C91.5912 28.4796 95.4466 28.8266 97.3092 25.8209C99.7088 21.948 99.5583 7.95189 97.3751 3.95446C96.4489 2.25855 95.1198 1.38201 93.1169 1.66129Z" fill="white"/>
<path d="M78.6242 1.1106V27.2793L78.7561 27.4112H82.7584C82.8345 27.6725 82.9677 28.1906 82.6709 28.3353L69.5148 28.3841C68.8041 28.3902 69.1819 27.8633 69.1243 27.4112H73.9622V2.12216L69.8843 2.06586C69.6186 1.96427 69.78 1.34941 69.74 1.1106H78.6242Z" fill="white"/>
</svg>
