<?xml version="1.0"?>
<svg xmlns="http://www.w3.org/2000/svg" width="116" height="116" viewBox="0 0 116 116" fill="none">
<g clip-path="url(#clip0_14447_9944)">
<path d="M87.9869 31.6009C87.9869 48.0203 74.5288 61.402 57.9959 61.402C41.455 61.402 28.0048 48.0363 28.0129 31.609C28.0209 15.1576 41.4629 1.83194 58.012 1.83994C74.5449 1.85593 87.9789 15.1897 87.9869 31.6009ZM87.1418 31.609C87.1418 15.6532 74.0539 2.6713 57.9878 2.68729C41.8977 2.70327 28.8581 15.6532 28.8662 31.6249C28.8662 47.5886 41.946 60.5706 58.0039 60.5627C74.0619 60.5627 87.1498 47.5567 87.1418 31.609Z" fill="white"/>
<path d="M39.757 115.024C38.6703 112.05 37.5917 109.124 36.5212 106.198C36.4809 106.198 36.4488 106.198 36.4085 106.198C35.2977 109.116 34.1869 112.034 33.0762 114.944C33.0198 114.944 33.0037 114.936 32.9876 114.928C32.9715 114.928 32.9474 114.92 32.9474 114.904C31.1765 110.515 29.4058 106.134 27.6349 101.746C27.6028 101.674 27.5947 101.586 27.5465 101.426C28.2145 101.426 28.8424 101.426 29.4621 101.426C29.7116 101.426 29.7357 101.658 29.8001 101.826C30.259 102.977 30.7097 104.136 31.1605 105.295C31.6917 106.638 32.2149 107.989 32.7461 109.332C32.8105 109.492 32.8749 109.644 32.9876 109.907C33.3015 109.276 33.4866 108.684 33.7121 108.109C33.9455 107.509 34.1789 106.902 34.4042 106.294C34.6297 105.703 34.855 105.119 35.0724 104.528C35.3058 103.92 35.5311 103.321 35.7646 102.713C35.9899 102.13 36.2153 101.546 36.497 100.954C36.8754 101.658 37.1007 102.409 37.3744 103.145C37.648 103.88 37.9137 104.616 38.1793 105.351C38.453 106.102 38.7266 106.854 39.0003 107.605C39.266 108.341 39.5396 109.068 39.8535 109.931C39.9823 109.652 40.0709 109.476 40.1432 109.3C41.1655 106.846 42.1878 104.4 43.21 101.946C43.4595 101.338 43.3951 101.418 44.031 101.41C44.5059 101.41 44.9808 101.41 45.4637 101.41C45.4235 101.826 40.1192 114.424 39.7408 115L39.757 115.024Z" fill="white"/>
<path d="M21.3321 67.925C21.2275 67.7971 21.1227 67.6692 21.0181 67.5412C20.5352 66.9817 20.1167 66.3822 19.851 65.6867C19.3118 64.3038 19.682 62.8089 20.8089 61.8257C20.8491 61.8417 20.9135 61.8417 20.9376 61.8736C21.8553 62.8249 22.6521 63.864 23.1592 65.0952C23.5697 66.1103 23.5536 67.1176 23.1431 68.1248C23.1029 68.2127 23.0545 68.3006 22.9902 68.4126C22.8373 68.0609 22.7407 67.7251 22.5635 67.4373C22.3865 67.1576 22.1289 66.9338 21.8874 66.654C21.5172 67.0217 21.4931 67.4054 21.6298 67.789C21.7828 68.2367 22.0082 68.6524 22.4348 68.9321C23.618 69.7156 24.761 70.5629 25.9684 71.2984C27.0309 71.9459 28.1738 72.4735 29.2685 73.0649C29.5502 73.2169 29.8078 73.4168 30.0492 73.6246C30.2022 73.7604 30.2747 73.9683 30.1861 74.1841C30.0815 74.424 29.8641 74.5039 29.6388 74.4719C29.357 74.4319 29.0592 74.376 28.8097 74.248C24.5597 72.1937 20.8089 69.4598 17.6053 65.9985C12.7598 60.7625 9.67695 54.6233 8.12347 47.7085C7.41514 44.543 7.06098 41.3295 7.11732 38.084C7.27026 29.2987 9.74134 21.2649 14.9894 14.1345C16.3416 12.3039 17.8629 10.6252 19.5371 9.08238C19.674 8.96247 19.8108 8.84257 20.02 8.77861C19.9556 8.85855 19.8913 8.94648 19.8188 9.01843C13.5405 14.9978 9.82183 22.3041 8.33274 30.7777C7.68077 34.4708 7.56002 38.18 7.92224 41.913C8.55006 48.34 10.5302 54.3035 14.0234 59.7633C15.9311 62.7369 18.2412 65.3749 20.9216 67.6851C21.0343 67.7811 21.1631 67.877 21.2757 67.9729C21.2999 67.957 21.324 67.9329 21.3482 67.917L21.3321 67.925Z" fill="white"/>
<path d="M59.0341 87.4936C59.026 91.2187 56.0237 94.0726 52.1924 94.1124C49.3188 94.1445 45.4714 91.8022 45.5035 87.3337C45.5358 83.8324 48.6668 80.7308 52.3855 80.7628C55.9433 80.7947 59.1467 83.8804 59.0341 87.4856V87.4936ZM52.2245 92.2659C54.921 92.2819 56.9896 90.2195 57.054 87.5415C57.1265 84.7676 54.8808 82.6573 52.3694 82.6173C49.834 82.5773 47.5077 84.6079 47.5077 87.3657C47.5077 90.0916 49.5683 92.2499 52.2326 92.258L52.2245 92.2659Z" fill="white"/>
<path d="M29.2036 83.4175C28.7609 83.8412 28.3182 84.2568 27.8595 84.7045C27.5938 84.4247 27.3685 84.1769 27.135 83.9371C24.7847 81.5949 20.567 82.4422 19.4401 85.7837C18.289 89.181 20.5428 91.5872 22.861 92.1628C24.4869 92.5624 26.2094 91.8909 27.1269 90.508C27.4087 90.0764 27.618 89.6206 27.634 89.0211C26.5796 88.9892 25.5494 89.0211 24.4869 88.9972V87.2785C24.8491 87.1426 29.1231 87.1107 29.7751 87.2385C29.7913 87.3585 29.8234 87.4863 29.8154 87.6142C29.7671 88.2218 29.7269 88.8373 29.6464 89.4369C29.3888 91.3553 27.5616 93.6895 24.664 94.0572C21.396 94.4809 18.3132 92.4666 17.4197 89.3249C16.3653 85.6238 18.611 81.7627 22.3538 80.9474C25.0342 80.3558 27.288 81.1632 29.0829 83.2176C29.1231 83.2656 29.1554 83.3296 29.2117 83.4175H29.2036Z" fill="white"/>
<path d="M79.3743 114.234V101.492C79.495 101.468 79.5916 101.436 79.6882 101.436C81.0083 101.46 82.3283 101.436 83.6403 101.531C86.2321 101.715 88.341 103.394 89.0574 105.784C89.4679 107.151 89.5081 108.55 89.0574 109.909C88.2364 112.363 86.4978 113.842 83.922 114.17C82.4893 114.354 81.0163 114.266 79.5594 114.298C79.5111 114.298 79.4628 114.274 79.3662 114.242L79.3743 114.234ZM81.3624 103.306C81.2416 104.321 81.2899 112.075 81.4187 112.443C81.8856 112.443 82.3685 112.459 82.8434 112.443C83.1815 112.427 83.5276 112.379 83.8576 112.315C84.4854 112.195 85.065 111.939 85.5721 111.548C87.0693 110.405 87.5441 108.862 87.2865 107.071C87.0933 105.672 86.3851 104.577 85.1214 103.914C83.9462 103.298 82.6663 103.25 81.3462 103.314L81.3624 103.306Z" fill="white"/>
<path d="M70.4638 86.9103C70.8421 87.1741 71.2124 87.3659 71.5102 87.6378C72.7336 88.741 72.9591 90.7393 72.0254 92.1223C71.4056 93.0416 70.5524 93.6251 69.4255 93.769C68.9344 93.833 68.4354 93.8649 67.9444 93.8729C67.1235 93.8889 66.3025 93.8729 65.4814 93.8729C65.3124 93.8729 65.1433 93.8729 64.9904 93.8729C64.8536 93.3773 64.8616 81.4745 64.9904 81.0428C65.8919 81.0428 66.7934 81.0268 67.6949 81.0508C68.1216 81.0668 68.5482 81.1228 68.9586 81.2346C70.3108 81.5944 71.0273 82.5537 71.3412 83.8486C71.5988 84.9118 71.3653 85.8711 70.6328 86.7025C70.5765 86.7664 70.5282 86.8304 70.4719 86.9024L70.4638 86.9103ZM66.8819 88.1973C66.8578 89.4763 66.8659 90.7154 66.874 91.9944C67.5339 91.9944 68.1295 92.0103 68.7252 91.9864C68.9748 91.9784 69.2323 91.8985 69.4657 91.8106C70.2062 91.5387 70.6328 90.9072 70.6328 90.1238C70.6328 89.3244 70.1901 88.661 69.4335 88.4051C68.6286 88.1253 67.7915 88.1494 66.8819 88.2053V88.1973ZM66.874 86.4866C67.4615 86.5426 67.9686 86.5586 68.4676 86.3908C68.9909 86.2149 69.3611 85.8631 69.4577 85.3276C69.5301 84.9358 69.5301 84.5201 69.4819 84.1205C69.4013 83.513 68.9988 83.1292 68.4113 82.9454C67.9284 82.7935 67.4454 82.8094 66.874 82.8735C66.8659 84.0725 66.874 85.2476 66.874 86.4787V86.4866Z" fill="white"/>
<path d="M67.5823 109.117V114.273C66.9141 114.321 66.2943 114.305 65.6344 114.273V101.531C65.6907 101.491 65.7149 101.459 65.747 101.459C67.1154 101.419 68.4837 101.355 69.844 101.619C71.3573 101.915 72.4036 102.754 72.7659 104.281C73.2569 106.383 72.1381 108.214 70.327 108.749C70.2626 108.765 70.1982 108.797 70.0694 108.853C70.3672 109.325 70.7053 109.749 71.0193 110.18C71.3492 110.636 71.6792 111.092 72.0174 111.539C72.3392 111.979 72.6612 112.419 72.9832 112.858C73.3052 113.298 73.6191 113.73 73.9813 114.233C73.7881 114.265 73.6754 114.289 73.5628 114.289C73.1362 114.289 72.7015 114.249 72.2829 114.305C71.7678 114.369 71.478 114.137 71.2044 113.737C70.2142 112.283 69.2001 110.86 68.1859 109.429C68.0652 109.261 67.9847 109.005 67.5903 109.117H67.5823ZM67.6547 107.318C68.4354 107.366 69.184 107.35 69.8924 107.031C70.657 106.679 70.987 106.031 70.9307 105.048C70.8905 104.297 70.4799 103.761 69.7313 103.505C69.0552 103.282 68.363 103.25 67.6707 103.314C67.55 103.729 67.542 106.807 67.6627 107.318H67.6547Z" fill="white"/>
<path d="M24.8496 114.288C24.2458 114.288 23.6341 114.288 23.0143 114.288C22.7971 114.288 22.7327 114.128 22.6683 113.968C22.3382 113.217 21.9922 112.482 21.6943 111.714C21.5333 111.306 21.3159 111.147 20.8653 111.155C19.3762 111.187 17.8871 111.179 16.3979 111.155C16.0519 111.155 15.8667 111.267 15.738 111.578C15.4079 112.346 15.0215 113.089 14.7077 113.857C14.5628 114.2 14.3615 114.304 14.0074 114.288C13.5003 114.264 12.9932 114.288 12.3734 114.288C14.5145 109.716 16.6153 105.239 18.708 100.779C18.7644 100.779 18.7805 100.779 18.7966 100.779C18.8128 100.779 18.8368 100.787 18.8449 100.803C20.8089 105.127 22.7809 109.444 24.7449 113.769C24.8013 113.888 24.8496 114.016 24.8898 114.152C24.8978 114.176 24.8817 114.216 24.8657 114.296L24.8496 114.288ZM16.8004 109.26C17.4202 109.38 20.1811 109.364 20.6077 109.244C19.996 107.877 19.4245 106.494 18.7403 105.047C18.0642 106.51 17.4444 107.861 16.8004 109.26Z" fill="white"/>
<path d="M60.4908 114.288C59.871 114.288 59.2593 114.288 58.6476 114.288C58.3981 114.288 58.3497 114.096 58.2772 113.928C57.9473 113.177 57.6011 112.442 57.3114 111.682C57.1584 111.283 56.925 111.163 56.5065 111.163C55.0336 111.187 53.5605 111.187 52.0876 111.163C51.677 111.163 51.4758 111.299 51.3229 111.666C50.9526 112.538 50.5341 113.401 50.1316 114.272H48.1113C48.1515 113.897 53.979 101.378 54.3815 100.779C54.6552 101.09 60.4022 113.801 60.4827 114.296L60.4908 114.288ZM54.4298 105.151C54.4298 105.151 54.3494 105.151 54.3091 105.151C53.6812 106.51 53.0534 107.877 52.4255 109.252C52.9165 109.388 55.7741 109.38 56.2247 109.252C55.6211 107.885 55.0255 106.526 54.4298 105.167V105.151Z" fill="white"/>
<path d="M94.3538 68.2057C94.5631 68.0698 94.7965 67.95 94.9816 67.7901C99.2235 64.1768 102.443 59.8042 104.721 54.7441C106.5 50.8031 107.603 46.6783 108.045 42.3776C108.882 34.3119 107.57 26.6138 103.908 19.3474C101.888 15.3346 99.2074 11.8093 95.8912 8.76361C95.7705 8.65169 95.6336 8.56376 95.5048 8.45985C95.537 8.41987 95.5773 8.3799 95.6094 8.33994C95.7784 8.49181 95.9556 8.63571 96.1246 8.78759C100.624 12.8405 103.9 17.7247 106.081 23.3364C107.458 26.8776 108.327 30.5468 108.681 34.3279C109.462 42.6654 108.037 50.6033 104.093 58.0296C100.27 65.216 94.6436 70.6038 87.3108 74.2171C87.0291 74.361 86.7071 74.433 86.3932 74.4969C86.1679 74.5369 85.9424 74.4649 85.8378 74.225C85.7413 74.0013 85.8057 73.7694 85.9747 73.6176C86.2 73.4177 86.4496 73.2259 86.7233 73.0979C88.4699 72.2666 90.1683 71.3393 91.762 70.2442C92.5348 69.7086 93.2672 69.1171 94.0158 68.5574C94.0721 68.5174 94.1365 68.4935 94.2009 68.4695C94.2572 68.3896 94.3055 68.3096 94.3618 68.2217L94.3538 68.2057Z" fill="white"/>
<path d="M85.4195 85.9099V87.7485H80.5417C80.3968 88.1482 80.3646 91.2898 80.4934 92.0172C82.1596 92.0332 83.8499 92.0172 85.5804 92.0253V93.7759C85.2263 93.8958 79.1332 93.9278 78.5375 93.8158C78.4329 93.4162 78.4248 81.5773 78.5213 81.0897C78.8996 80.9937 84.9124 80.9617 85.5724 81.0657V82.8163C85.0251 82.9123 84.4697 82.8483 83.9143 82.8563C83.3509 82.8643 82.7874 82.8563 82.2159 82.8563H80.4692C80.3887 83.8795 80.421 84.8708 80.4452 85.9099H85.4195Z" fill="white"/>
<path d="M91.6012 93.8404V81.1062C92.0035 80.9943 98.0324 80.9702 98.6763 81.0742V82.8408C96.994 82.8808 95.3117 82.8408 93.5812 82.8648C93.5249 83.8801 93.5491 84.8552 93.5731 85.9025H98.5475V87.7251C98.0082 87.797 97.4609 87.7491 96.9215 87.757C96.3742 87.7651 95.8269 87.757 95.2796 87.757H93.6617C93.541 88.1728 93.5168 91.3623 93.6295 92.0178H98.7005V93.8324H91.6173L91.6012 93.8404Z" fill="white"/>
<path d="M94.5789 110.739C95.239 110.595 95.8588 110.459 96.5268 110.308C96.567 110.499 96.6073 110.651 96.6475 110.811C96.7361 111.227 96.8407 111.642 97.1304 111.978C97.7583 112.698 98.5712 112.826 99.4245 112.594C100.262 112.37 100.736 111.762 100.857 110.907C100.978 110.028 100.68 109.324 99.9155 108.861C99.5693 108.645 99.191 108.477 98.8208 108.301C98.4023 108.109 97.9676 107.949 97.5491 107.757C97.0017 107.51 96.4947 107.198 96.06 106.766C94.9089 105.615 94.8445 103.793 95.899 102.545C97.4042 100.755 101.034 100.483 102.507 103.369C102.032 103.713 101.509 103.984 100.97 104.296C100.833 104.112 100.704 103.952 100.592 103.793C99.9075 102.793 98.3379 102.937 97.6939 103.497C96.9776 104.12 96.9614 105.064 97.7181 105.647C97.9676 105.847 98.2654 105.991 98.5632 106.119C99.0301 106.335 99.5211 106.494 99.9799 106.71C100.431 106.918 100.873 107.142 101.284 107.414C102.282 108.069 102.805 109.005 102.869 110.188C103.014 112.897 100.914 114.464 98.9818 114.512C98.3459 114.528 97.71 114.488 97.1144 114.256C95.73 113.721 94.9975 112.642 94.6675 111.259C94.6352 111.115 94.6192 110.963 94.5789 110.739Z" fill="white"/>
<path d="M109.559 44.7341C110.766 44.1746 110.838 43.0873 111.032 41.9762C109.953 41.8723 109.486 42.5357 109.052 43.2872C109.084 43.0554 109.116 42.8235 109.156 42.5998C109.39 41.3607 109.663 40.1296 110.17 38.9705C110.428 38.379 110.726 37.7955 111.096 37.2679C111.853 36.1887 112.931 35.5492 114.227 35.2854C114.452 35.2373 114.694 35.2454 114.952 35.2294C114.984 35.4132 115.024 35.5411 115.024 35.6771C115.072 37.4517 114.927 39.2104 114.412 40.929C114.147 41.8163 113.752 42.6396 113.132 43.3511C112.287 44.3264 111.217 44.814 109.929 44.838C109.84 44.838 109.76 44.838 109.671 44.822C109.647 44.822 109.623 44.782 109.551 44.726L109.559 44.7341Z" fill="white"/>
<path d="M1.09668 35.2463C1.71647 35.2143 2.25575 35.3823 2.77895 35.598C3.96218 36.0936 4.82342 36.941 5.41101 38.0602C6.0308 39.2273 6.38496 40.4902 6.66668 41.7693C6.78741 42.2969 6.87595 42.8325 6.99669 43.48C6.70692 43.0484 6.51374 42.6806 6.25617 42.3769C5.9664 42.041 5.5559 41.9211 5.10514 41.9611C4.83953 42.8964 5.46736 44.2074 6.48959 44.775C6.33667 44.807 6.23202 44.8389 6.12738 44.8389C4.75904 44.8389 3.6402 44.3033 2.7709 43.2481C1.99014 42.2969 1.60378 41.1858 1.33816 40.0106C1.01619 38.5958 0.935701 37.1489 0.983996 35.7019C0.983996 35.598 1.00009 35.5022 1.01619 35.3982C1.02424 35.3502 1.05644 35.3103 1.08863 35.2384L1.09668 35.2463Z" fill="white"/>
<path d="M35.692 93.8084V81.0342C36.0219 81.0263 36.3197 81.0182 36.6257 81.0102C36.9315 81.0102 37.2374 81.0102 37.6076 81.0102C37.664 81.5698 37.6317 82.0894 37.6398 82.609C37.6398 83.1206 37.6398 83.6322 37.6398 84.1359V92.0017C38.9035 92.0577 40.1269 91.9938 41.3907 92.0417V93.7764C41.0527 93.8963 36.36 93.9283 35.692 93.8003V93.8084Z" fill="white"/>
<path d="M109.237 50.7861C108.279 50.5063 107.755 50.9779 107.281 51.6494C107.256 51.5695 107.232 51.5216 107.24 51.4976C107.796 50.0507 108.432 48.6358 109.389 47.3967C109.929 46.6933 110.589 46.1417 111.418 45.8059C112.094 45.5342 112.802 45.4302 113.527 45.4862C113.688 45.5021 113.849 45.5502 114.074 45.5901C114.018 45.9418 113.969 46.2616 113.905 46.5734C113.623 47.9243 113.213 49.2353 112.553 50.4663C112.134 51.2417 111.627 51.9372 110.919 52.4728C109.897 53.2482 108.754 53.4401 107.522 53.1203C107.474 53.1043 107.434 53.0724 107.337 53.0164C108.585 52.7765 108.874 51.8013 109.229 50.7941L109.237 50.7861Z" fill="white"/>
<path d="M1.95813 45.5743C2.6906 45.3825 3.37478 45.4464 4.06699 45.6303C5.00874 45.8781 5.77342 46.4057 6.39319 47.1332C7.05322 47.9005 7.55227 48.7719 7.97887 49.6831C8.27669 50.3227 8.55036 50.9782 8.77574 51.6496C8.50207 51.3858 8.24449 51.0901 7.93862 50.8742C7.60056 50.6345 7.20616 50.6424 6.8198 50.7623C6.91638 51.8895 7.64081 52.7767 8.72744 53.0086C8.50207 53.0805 8.36523 53.1365 8.2284 53.1605C7.10956 53.4003 6.08732 53.2004 5.16168 52.537C4.5258 52.0814 4.03481 51.4978 3.6404 50.8263C2.72279 49.2835 2.2318 47.5888 1.93398 45.8381C1.92593 45.7742 1.93398 45.7023 1.94203 45.5824L1.95813 45.5743Z" fill="white"/>
<path d="M109.204 34.5265C109.108 32.8078 109.1 31.0971 109.583 29.4184C110.017 27.9155 110.927 26.8044 112.392 26.1649C112.577 26.085 112.77 26.0369 113.036 25.9411C113.14 26.4367 113.253 26.8763 113.333 27.324C113.567 28.667 113.688 30.0179 113.503 31.3849C113.39 32.2562 113.148 33.0796 112.673 33.831C112.126 34.6863 111.361 35.2539 110.379 35.5256C110.251 35.5577 110.122 35.5656 109.856 35.6136C110.838 34.8143 110.742 33.839 110.693 32.8718C109.921 32.8078 109.518 33.2795 109.204 34.5265Z" fill="white"/>
<path d="M6.70643 34.3196C6.55349 33.5762 6.25567 32.9526 5.41857 32.8008C5.00806 33.6002 5.33003 34.8791 6.16713 35.6306C5.93371 35.5906 5.77273 35.5746 5.61979 35.5346C4.44462 35.2069 3.61556 34.4714 3.06823 33.4003C2.73016 32.7369 2.54503 32.0333 2.47258 31.2979C2.30355 29.5873 2.47258 27.9005 2.88309 26.2379C2.89919 26.1579 2.95554 26.0859 3.01188 25.9661C3.2453 26.0459 3.47873 26.11 3.688 26.2058C5.04025 26.8294 5.91762 27.8686 6.36031 29.2755C6.76277 30.5545 6.83521 31.8815 6.85131 33.2085C6.85131 33.5762 6.83521 33.9439 6.82717 34.3117L6.70643 34.3275V34.3196Z" fill="white"/>
<path d="M107.635 43.104C107.425 42.2647 107.055 41.6092 106.017 41.4972C105.936 42.5604 105.912 43.5517 106.805 44.335C106.645 44.2871 106.484 44.2551 106.331 44.1912C104.817 43.6156 103.723 42.6084 103.103 41.1055C102.62 39.9305 102.395 38.6993 102.274 37.4444C102.234 37.0207 102.218 36.5971 102.193 36.1734C102.548 36.0055 102.894 36.0614 103.224 36.0774C104.616 36.1573 105.783 36.701 106.58 37.8681C107.659 39.4508 107.739 41.2575 107.635 43.104Z" fill="white"/>
<path d="M13.8062 36.1495C13.7579 36.741 13.7337 37.3165 13.6693 37.884C13.5405 39.0511 13.299 40.1942 12.8161 41.2815C12.1078 42.8802 10.8682 43.8554 9.16985 44.327C10.0472 43.5676 10.0794 42.5925 9.98281 41.5693C9.16985 41.4893 8.56617 42.0009 8.34885 43.4158C8.21201 41.801 8.28445 40.2023 8.94448 38.6915C9.91037 36.4612 12.1158 35.8536 13.8062 36.1574V36.1495Z" fill="white"/>
<path d="M111.273 54.7101C111.233 54.8779 111.216 54.9658 111.184 55.0458C110.669 56.3648 110.017 57.6117 109.116 58.7229C108.609 59.3464 108.029 59.898 107.288 60.2578C106.17 60.8093 105.059 60.7614 103.948 60.1458C105.043 60.0818 105.501 59.2905 105.96 58.4991C105.437 58.0835 105.204 58.1154 104.093 58.7549C104.093 58.739 104.077 58.7229 104.085 58.7149C104.898 57.3639 105.815 56.101 107.095 55.1417C108.158 54.3424 109.357 54.1504 110.645 54.4702C110.854 54.5262 111.047 54.6221 111.281 54.7101H111.273Z" fill="white"/>
<path d="M10.0152 58.4533C10.474 59.2767 10.9167 60.0521 12.0516 60.1C11.6894 60.4277 11.2709 60.5157 10.8604 60.5876C10.0152 60.7315 9.22639 60.5637 8.48588 60.14C7.91438 59.8122 7.43144 59.3806 7.01288 58.885C6.02284 57.7098 5.31453 56.3829 4.77523 54.952C4.75108 54.888 4.74303 54.8241 4.72694 54.7441C5.07304 54.4644 5.48356 54.4084 5.87796 54.3524C6.99679 54.2085 8.04318 54.4404 8.92053 55.1518C9.50812 55.6394 10.0555 56.1831 10.5545 56.7666C11.0857 57.3901 11.5284 58.0775 11.947 58.7971C11.6572 58.6212 11.3836 58.3973 11.0777 58.2774C10.7557 58.1495 10.4016 58.1735 10.0233 58.4453L10.0152 58.4533Z" fill="white"/>
<path d="M102.322 43.5358C103.352 43.6636 104.246 44.0394 104.986 44.7428C105.807 45.5183 106.178 46.5094 106.274 47.6046C106.379 48.7478 106.226 49.8749 105.952 50.986C105.936 51.0659 105.888 51.1379 105.824 51.2098C105.848 50.3625 105.703 49.6111 104.713 49.2673C104.423 50.1947 104.238 51.074 104.842 51.9692C104.729 51.9134 104.608 51.8653 104.504 51.8014C103.103 50.8901 102.306 49.6031 102.081 47.9563C101.896 46.5654 101.992 45.1745 102.234 43.7996C102.25 43.7196 102.282 43.6397 102.314 43.5278L102.322 43.5358Z" fill="white"/>
<path d="M13.6532 43.5845C13.6532 43.5845 13.7176 43.6565 13.7256 43.7044C14.0234 45.391 14.1522 47.0857 13.7256 48.7644C13.3554 50.2513 12.4136 51.3065 11.0453 52.026C11.7294 51.1706 11.5524 50.2593 11.2706 49.276C10.3369 49.5958 10.1357 50.2992 10.0552 51.1386C9.96668 50.683 9.85399 50.2273 9.78154 49.7637C9.63665 48.7804 9.60447 47.7972 9.82985 46.8219C10.2403 45.0474 11.7133 43.7444 13.5324 43.5524C13.5646 43.5524 13.5968 43.5684 13.637 43.5845H13.6532Z" fill="white"/>
<path d="M107.788 34.6475C107.192 33.5364 106.854 33.3045 106.025 33.4883C106.162 34.3677 106.299 35.223 107.192 35.7826C107.055 35.7826 106.91 35.7986 106.773 35.7826C105.486 35.6068 104.391 35.0631 103.586 34.016C102.878 33.0967 102.427 32.0575 102.081 30.9624C101.912 30.4508 101.783 29.9231 101.622 29.3556C102.314 29.0917 102.982 28.9878 103.666 29.0598C104.842 29.1798 105.767 29.7393 106.443 30.6986C107.144 31.6897 107.49 32.8249 107.731 34C107.763 34.1678 107.796 34.3358 107.82 34.5036C107.82 34.5355 107.804 34.5675 107.788 34.6554V34.6475Z" fill="white"/>
<path d="M14.3535 29.3706C13.959 31.0093 13.46 32.5522 12.4861 33.9031C11.6892 34.9982 10.5784 35.5738 9.25029 35.7657C9.10541 35.7896 8.94443 35.7657 8.67881 35.7657C9.67689 35.246 9.83788 34.3827 9.96666 33.4954C9.21809 33.2795 8.88003 33.4874 8.21196 34.5586C8.21196 34.4227 8.20391 34.3427 8.21196 34.2628C8.41318 33.1357 8.71905 32.0406 9.31469 31.0493C10.345 29.3227 12.148 28.6351 14.0798 29.2346C14.1603 29.2587 14.2327 29.3066 14.3615 29.3626L14.3535 29.3706Z" fill="white"/>
<path d="M109.623 18.1071C109.687 18.1871 109.743 18.235 109.768 18.291C110.5 19.9217 111.015 21.6004 110.999 23.3991C110.999 24.1745 110.822 24.9179 110.444 25.5973C110.081 26.2528 109.558 26.7564 108.89 27.1002C108.834 27.1321 108.769 27.1561 108.705 27.1802C108.681 27.1802 108.641 27.1641 108.609 27.1561C109.043 26.2528 109.067 25.4374 108.673 24.622C107.876 24.8699 107.804 25.5573 107.675 26.2368C107.393 25.2775 107.24 24.3184 107.168 23.335C107.111 22.5677 107.119 21.8083 107.297 21.0568C107.562 19.9376 108.174 19.0424 109.132 18.3869C109.285 18.2829 109.446 18.2031 109.615 18.1071H109.623Z" fill="white"/>
<path d="M8.25225 26.4131C8.16371 25.214 7.98664 24.9022 7.33465 24.6544C6.92415 25.4378 6.84366 26.3971 7.51979 27.2924C6.8356 27.0205 6.32046 26.6528 5.90996 26.1412C5.37066 25.4697 5.09699 24.6863 5.02456 23.839C4.95212 23.0556 4.97626 22.2643 5.17748 21.5128C5.43506 20.5456 5.75702 19.5943 6.06289 18.6431C6.11923 18.4672 6.22388 18.3073 6.32852 18.0915C6.52974 18.2034 6.71487 18.2912 6.87585 18.4032C8.10737 19.2665 8.72715 20.4736 8.83179 21.9445C8.93642 23.3674 8.70301 24.7583 8.38103 26.1333C8.36494 26.1972 8.33274 26.2532 8.2603 26.4131H8.25225Z" fill="white"/>
<path d="M8.92811 62.5057C9.94229 61.7942 10.9887 61.5704 12.1397 61.8662C12.4053 61.9301 12.6629 62.0341 12.9043 62.154C14.2083 62.8095 15.2225 63.8006 16.3011 64.9119C15.1179 64.4242 14.9247 64.4242 14.3855 64.9119C14.9489 65.5353 15.4881 66.1748 16.5668 66.023C16.0516 66.5026 15.5203 66.7344 14.9247 66.8303C14.1761 66.9502 13.4437 66.8303 12.7836 66.4626C12.2363 66.1508 11.7131 65.7912 11.2382 65.3754C10.3206 64.5761 9.58814 63.6168 8.92811 62.5057Z" fill="white"/>
<path d="M107.015 62.4882C106.991 62.5761 106.983 62.6321 106.959 62.6721C106.146 63.9671 105.196 65.1422 103.932 66.0375C103.095 66.6291 102.185 66.9727 101.139 66.8288C100.511 66.749 99.9639 66.5011 99.4086 65.9975C99.9478 66.0934 100.358 66.0215 100.704 65.7498C101.018 65.502 101.308 65.2142 101.654 64.9104C101.042 64.3428 100.479 64.5186 99.8834 64.7745C99.9478 64.6866 100.004 64.5986 100.077 64.5186C100.873 63.6953 101.719 62.9199 102.717 62.3364C103.57 61.8327 104.479 61.5929 105.469 61.7848C106.033 61.8967 106.548 62.0886 107.023 62.4722L107.015 62.4882Z" fill="white"/>
<path d="M15.0056 50.4102C15.4644 51.5374 15.7784 52.6086 15.9393 53.7197C16.0439 54.4472 16.0842 55.1746 15.9393 55.9021C15.7059 57.0292 15.1183 57.9325 14.2168 58.6679C14.6353 57.7726 14.3295 56.9892 13.927 56.2058C13.1463 56.5255 13.0738 57.1171 13.2026 58.0204C13.1705 58.0045 13.1301 57.9964 13.1221 57.9724C12.4379 56.5736 11.955 55.1267 12.2287 53.5519C12.5023 51.9931 13.5085 51.0258 15.0137 50.4102H15.0056Z" fill="white"/>
<path d="M102.821 57.9327C102.934 57.2133 102.829 56.5818 102.081 56.1422C101.702 56.9495 101.34 57.6929 101.711 58.5963C101.622 58.5403 101.525 58.4922 101.453 58.4204C100.455 57.4371 99.9398 56.254 99.9558 54.8552C99.98 53.3762 100.358 51.9694 100.898 50.6024C100.914 50.5544 100.954 50.5225 100.994 50.4665C101.075 50.4825 101.155 50.4905 101.236 50.5225C102.805 51.138 103.811 52.5929 103.827 54.2876C103.836 55.4546 103.393 57.1094 102.813 57.9408L102.821 57.9327Z" fill="white"/>
<path d="M9.94225 28.0445C10.7633 27.5889 11.1335 27.1252 11.3589 26.1659C10.7713 25.8463 10.4252 25.9581 9.66053 26.7656C9.70078 26.5976 9.70883 26.4937 9.74102 26.3978C10.0952 25.4865 10.5459 24.6311 11.1979 23.8877C12.4617 22.4489 14.168 22.2251 15.8422 23.1203C15.8825 23.1444 15.9227 23.1843 15.9871 23.2402C15.9469 23.3522 15.9147 23.4801 15.8583 23.6C15.3674 24.6711 14.7878 25.6864 13.999 26.5817C13.2343 27.453 12.2926 27.9966 11.1174 28.0605C10.7311 28.0845 10.3367 28.0445 9.9503 28.0285L9.94225 28.0445Z" fill="white"/>
<path d="M106.121 27.9954C104.825 28.2192 103.698 28.0433 102.733 27.2759C101.413 26.2288 100.664 24.7819 99.9636 23.239C101.075 22.6075 102.185 22.3677 103.368 22.8554C103.699 22.9912 104.012 23.1831 104.278 23.4069C105.284 24.2542 105.848 25.3814 106.282 26.6124C105.799 26.2128 105.34 25.757 104.648 26.1247C104.777 26.9882 105.196 27.5397 106.121 27.9954Z" fill="white"/>
<path d="M10.9811 19.2663C11.0374 18.6268 11.0052 18.0673 10.4257 17.7315C9.91858 18.3231 9.7898 19.1224 10.0796 20.0338C9.95078 19.9538 9.84614 19.9138 9.77371 19.8499C9.00099 19.2024 8.58244 18.379 8.50195 17.3798C8.4456 16.6764 8.54218 15.9889 8.75147 15.3174C9.10563 14.1503 9.66102 13.0791 10.3371 12.0718C10.3935 11.9919 10.4659 11.912 10.5545 11.8001C10.6833 11.896 10.812 11.976 10.9167 12.0799C11.8182 12.9432 12.2448 14.0143 12.1884 15.2455C12.124 16.6204 11.6813 17.9074 11.1179 19.1624C11.1099 19.1864 11.0696 19.2024 10.973 19.2744L10.9811 19.2663Z" fill="white"/>
<path d="M105.614 17.6906C104.962 18.1143 104.914 18.6817 105.051 19.4172C104.93 19.2414 104.866 19.1774 104.834 19.0975C104.391 18.0662 104.021 17.003 103.852 15.8919C103.658 14.5489 103.916 13.3179 104.85 12.2868C105.011 12.1108 105.196 11.967 105.381 11.7911C105.461 11.8551 105.526 11.879 105.558 11.9351C106.516 13.3419 107.289 14.8367 107.482 16.5474C107.627 17.8424 107.248 18.9696 106.226 19.8409C106.154 19.9048 106.057 19.9529 105.888 20.0727C106.258 19.1774 106.033 18.45 105.606 17.6985L105.614 17.6906Z" fill="white"/>
<path d="M98.8613 63.696C98.9661 62.6807 98.9257 62.4969 98.4106 62.0573C97.9115 62.6488 97.5493 63.2723 97.6781 64.1836C97.5333 64.0397 97.4367 63.9837 97.3803 63.8958C96.7444 62.9126 96.4788 61.8574 96.6881 60.6903C96.9618 59.2115 97.6299 57.9084 98.4589 56.6294C98.6199 56.7253 98.7487 56.7973 98.8694 56.8852C100.069 57.8525 100.616 59.0755 100.342 60.6103C100.133 61.7695 99.5697 62.7687 98.8533 63.696H98.8613Z" fill="white"/>
<path d="M17.5325 56.5888C17.8143 57.0764 18.08 57.5081 18.3214 57.9557C18.8526 58.9709 19.2873 60.0261 19.3678 61.1851C19.4402 62.2483 19.1263 63.1996 18.5066 64.055C18.4662 64.1029 18.4099 64.1429 18.2972 64.2468C18.5146 63.3196 18.096 62.6801 17.605 62.0565C17.0738 62.4802 17.0255 62.696 17.2186 63.7672C17.2026 63.7672 17.1865 63.7672 17.1784 63.7672C16.2205 62.5281 15.4961 61.1932 15.6088 59.5705C15.6974 58.2675 16.4218 57.3401 17.5325 56.5967V56.5888Z" fill="white"/>
<path d="M101.904 68.5957C101.855 68.6676 101.815 68.7475 101.759 68.8115C100.873 69.7468 99.8994 70.5622 98.7404 71.1458C98.0078 71.5135 97.2432 71.7213 96.4141 71.6253C95.6896 71.5454 95.086 71.2256 94.5789 70.6741C94.9733 70.6021 95.3436 70.5861 95.6656 70.4583C96.0036 70.3223 96.3015 70.0826 96.6154 69.8907C96.2611 69.3391 95.9956 69.2831 95.0297 69.531C95.1504 69.4111 95.2148 69.3231 95.3034 69.2672C96.2129 68.6197 97.1466 68.0281 98.2091 67.6764C99.3923 67.2847 100.503 67.4286 101.509 68.188C101.606 68.2599 101.694 68.3398 101.775 68.4279C101.823 68.4758 101.855 68.5397 101.896 68.6037L101.904 68.5957Z" fill="white"/>
<path d="M20.8412 69.4595C19.9155 69.3235 19.7868 69.3556 19.3521 69.8512C19.9638 70.3228 20.5515 70.8025 21.5012 70.5227C21.3966 70.6665 21.3483 70.7544 21.2678 70.8264C20.4548 71.5858 19.4809 71.8097 18.4184 71.5539C17.9113 71.434 17.4123 71.2261 16.9455 70.9783C15.9071 70.4267 15.0378 69.6673 14.2409 68.82C14.1846 68.7561 14.1444 68.6841 14.0639 68.5802C14.7882 67.8047 15.6656 67.4131 16.712 67.4851C17.195 67.517 17.686 67.6529 18.1447 67.8208C19.0865 68.1565 19.9075 68.708 20.7124 69.2916C20.7527 69.3156 20.7687 69.3716 20.8412 69.4595Z" fill="white"/>
<path d="M12.2445 21.2092C13.138 21.0733 13.5485 20.5138 13.8785 19.8583C13.3312 19.4906 13.1138 19.5225 12.1963 20.1061C12.3975 19.7863 12.5263 19.5624 12.6792 19.3467C13.1702 18.6432 13.7336 18.0037 14.4581 17.5321C15.8345 16.6367 17.4926 17.0365 18.4424 17.9877C18.3861 18.0916 18.3296 18.2196 18.2573 18.3235C17.5972 19.2667 16.8728 20.138 15.9311 20.8176C14.933 21.5449 13.8463 21.6969 12.6631 21.3691C12.5504 21.3371 12.4458 21.2811 12.2365 21.2012L12.2445 21.2092Z" fill="white"/>
<path d="M103.635 20.018C103.192 19.6502 102.709 19.4584 102.089 19.8261C102.451 20.4736 102.813 21.0651 103.739 21.2011C103.522 21.297 103.409 21.361 103.288 21.3929C102.17 21.6966 101.115 21.5688 100.157 20.8973C99.0626 20.1299 98.2496 19.1226 97.5332 18.0195C98.5876 16.9483 100.165 16.8044 101.204 17.364C102.314 17.9555 103.071 18.8748 103.667 19.954C103.667 19.954 103.651 19.978 103.626 20.0259L103.635 20.018Z" fill="white"/>
<path d="M100.753 6.95595C100.849 7.02789 100.93 7.07586 101.002 7.1478C101.791 8.00314 102.483 8.92243 102.958 9.9936C103.312 10.801 103.522 11.6323 103.32 12.5196C103.183 13.1112 102.926 13.6308 102.395 14.1185C102.564 13.2791 102.258 12.6795 101.783 12.1279C101.348 12.5277 101.308 12.6955 101.429 13.4789C101.405 13.4789 101.356 13.5028 101.348 13.4949C100.568 12.3678 99.9156 11.1767 99.7385 9.79376C99.6098 8.80252 99.9156 7.91521 100.543 7.13981C100.592 7.07586 100.664 7.02789 100.745 6.96394L100.753 6.95595Z" fill="white"/>
<path d="M94.3539 68.2046C94.2976 68.2845 94.2492 68.3645 94.1929 68.4524C94.2332 68.2845 94.2653 68.1006 94.3297 67.9407C94.5068 67.517 94.4987 67.1174 94.2009 66.7497C93.5973 67.0215 93.219 67.6049 93.0821 68.5242C92.9856 68.3645 92.905 68.2685 92.8568 68.1486C92.4946 67.2692 92.4141 66.366 92.7119 65.4546C93.1788 64.0318 94.0963 62.8966 95.1427 61.7774C95.7705 62.3531 96.165 63.0005 96.3259 63.7919C96.487 64.6073 96.334 65.3827 95.9637 66.1182C95.5612 66.9175 95.0058 67.6049 94.362 68.2125L94.3539 68.2046Z" fill="white"/>
<path d="M15.2789 6.97194C15.8504 7.5315 16.1724 8.23496 16.2287 9.03434C16.261 9.46601 16.2287 9.92166 16.1322 10.3453C15.8665 11.5364 15.2468 12.5756 14.5465 13.5828C14.6109 13.0553 14.7235 12.5356 14.2085 12.096C13.7174 12.6635 13.4196 13.2631 13.5484 14.0385C12.9769 13.5269 12.6791 12.9033 12.6066 12.1679C12.5422 11.4964 12.6549 10.8489 12.9125 10.2174C13.3955 9.03434 14.1441 8.01913 15.0134 7.09184C15.0455 7.05187 15.0857 7.0199 15.1341 6.99592C15.1582 6.97993 15.1985 6.97993 15.271 6.95595L15.2789 6.97194Z" fill="white"/>
<path d="M15.6816 14.5101C16.559 13.4949 17.5007 12.5516 18.9335 12.4317C19.9477 12.3438 20.7445 12.8154 21.3885 13.5428C21.3804 13.6067 21.3885 13.6548 21.3724 13.6708C20.5675 14.5901 19.658 15.3734 18.523 15.885C17.6054 16.3007 16.6958 16.2288 15.7944 15.7971C15.7219 15.7651 15.6575 15.7091 15.4965 15.6052C16.245 15.5173 16.7119 15.1576 17.058 14.598C16.6073 14.1504 16.1485 14.3182 15.6736 14.5101H15.6816Z" fill="white"/>
<path d="M100.262 14.4708C99.7869 14.2869 99.3523 14.191 98.9096 14.5907C99.2798 15.1263 99.7225 15.542 100.536 15.5739C99.8433 16.0296 99.1752 16.2055 98.4669 16.1335C98.0966 16.0936 97.7264 15.9896 97.3884 15.8377C96.2776 15.3422 95.4002 14.5268 94.5873 13.6635C95.0379 12.8641 96.1971 12.2965 97.1388 12.4323C97.493 12.4804 97.8471 12.5763 98.1691 12.7202C99.0222 13.1119 99.6904 13.7353 100.262 14.4708Z" fill="white"/>
<path d="M96.0118 3.36728C97.1468 4.27059 98.1287 5.19786 98.7002 6.47688C99.0947 7.34821 99.1028 8.21954 98.6439 9.07487C98.5956 9.16281 98.5312 9.23475 98.4105 9.41061C98.3863 8.68317 98.1126 8.17956 97.5814 7.78787C97.171 8.17956 97.364 8.60323 97.4526 9.0349C96.8811 8.48333 96.4063 7.8758 96.0118 7.20431C95.7301 6.73269 95.5128 6.23706 95.4243 5.69348C95.2955 4.87012 95.4806 4.11869 96.0118 3.36728Z" fill="white"/>
<path d="M18.4993 9.06557C18.6441 8.6259 18.8051 8.21821 18.4026 7.76256C17.9278 8.17025 17.6058 8.63389 17.5656 9.32936C17.2113 8.98562 17.0745 8.59393 17.0585 8.20222C17.0343 7.75457 17.0343 7.26695 17.1711 6.84328C17.6541 5.35642 18.7648 4.35719 19.9561 3.38994C20.3425 3.81361 20.4955 4.27725 20.5678 4.76487C20.6564 5.36442 20.5839 5.95596 20.3344 6.50754C19.9078 7.48279 19.2639 8.31414 18.5072 9.06557H18.4993Z" fill="white"/>
<path d="M103.489 80.426C101.421 80.426 99.9879 78.5234 100.632 76.6369C101.139 75.15 102.845 74.3267 104.431 74.8063C105.944 75.262 106.805 76.7808 106.395 78.2917C106.057 79.5627 104.882 80.426 103.481 80.426H103.489ZM101.26 77.5642C101.26 78.8512 102.25 79.8184 103.538 79.8105C104.777 79.8105 105.751 78.7952 105.735 77.5323C105.719 76.2453 104.729 75.27 103.449 75.2779C102.209 75.2939 101.252 76.2852 101.26 77.5562V77.5642Z" fill="white"/>
<path d="M19.1591 11.0636C19.8273 11.1276 20.2538 10.8478 20.6562 10.4401C20.3826 9.99247 19.9721 10.0644 19.5535 10.0964C20.5195 9.30501 21.5095 8.58556 22.8617 8.80139C23.6586 8.92929 24.2059 9.41692 24.6647 10.0804C23.723 10.8478 22.7652 11.4953 21.6061 11.7671C20.8414 11.9509 20.1089 11.7991 19.4489 11.3514C19.3604 11.2875 19.2879 11.1995 19.1512 11.0636H19.1591Z" fill="white"/>
<path d="M96.5106 10.1702C96.068 10.0503 95.6655 9.99434 95.3435 10.394C95.5769 10.7937 96.0438 11.0815 96.8085 11.1135C96.406 11.5052 95.9713 11.721 95.4884 11.793C95.1583 11.8409 94.7962 11.8569 94.4742 11.793C93.2668 11.5531 92.3009 10.8737 91.3592 10.1382C91.818 9.21894 92.808 8.66736 93.7819 8.77928C94.8605 8.89919 95.7137 9.47474 96.5106 10.1782V10.1702Z" fill="white"/>
<path d="M22.5636 5.63688C22.7327 5.23718 22.9178 4.92543 22.6683 4.59768C22.1692 4.78154 21.9116 5.10129 21.7104 5.80475C21.3563 5.2212 21.3482 4.64564 21.5011 4.06209C21.5655 3.82228 21.6702 3.57446 21.8069 3.36663C22.4509 2.32744 23.4007 1.62398 24.4793 0.984467C24.8012 1.48008 24.914 1.98369 24.8335 2.51128C24.7771 2.87101 24.6564 3.23873 24.4953 3.56647C24.1573 4.25395 23.3363 5.11728 22.5636 5.64487V5.63688Z" fill="white"/>
<path d="M94.2811 5.78806C94.1282 5.19652 93.8303 4.82881 93.3716 4.55701C93.0817 4.90075 93.2749 5.2365 93.3474 5.58023C92.5183 4.92473 91.7537 4.22927 91.3431 3.23803C91.0373 2.49461 91.0695 1.75918 91.4559 1.03174C91.5444 1.03973 91.6007 1.03174 91.633 1.05572C92.4862 1.54334 93.2508 2.13489 93.8706 2.90229C94.1845 3.286 94.4179 3.71767 94.5306 4.21328C94.6433 4.73288 94.5869 5.18053 94.2811 5.78806Z" fill="white"/>
<path d="M91.0054 5.33191C89.0012 5.34788 86.9326 3.98094 85.9023 2.26226C87.5202 1.5668 90.5708 2.96572 91.2872 4.72436C90.7613 4.44725 90.332 4.32734 89.9993 4.36465C90.1603 4.82029 90.5306 5.05212 90.9974 5.33191H91.0054Z" fill="white"/>
<path d="M30.162 2.23062C28.8901 4.00525 27.3286 5.18035 25.0266 5.3722C25.413 5.02048 25.8476 4.82862 25.9764 4.34099C25.4935 4.25306 25.1312 4.47689 24.7609 4.70871C25.0588 3.14192 28.037 1.751 30.162 2.23062Z" fill="white"/>
<path d="M92.5024 6.80417C92.1215 6.85214 91.8451 6.98537 91.6733 7.20387C92.0516 7.5636 92.269 7.64353 92.9774 7.6835C92.4542 8.25906 91.8344 8.52285 91.0939 8.47488C90.0072 8.39495 89.0654 7.92331 88.1721 7.36375C88.4054 6.56436 89.1942 5.98082 90.0796 5.96483C90.9892 5.94084 91.7619 6.32455 92.5024 6.80417Z" fill="white"/>
<path d="M27.876 7.33063C26.9504 7.89019 26.0489 8.35384 25.0025 8.45776C24.2298 8.5377 23.5778 8.2819 22.9822 7.64239C23.5537 7.69036 23.9803 7.55446 24.3344 7.22671C24.1735 6.99756 23.8515 6.86165 23.3686 6.81903C24.3023 6.28344 25.1635 5.83579 26.1857 5.97967C26.9665 6.08359 27.5138 6.55523 27.8841 7.33063H27.876Z" fill="white"/>
<path d="M20.7929 8.1226C20.6157 8.28248 20.4306 8.44235 20.2535 8.60222L20.181 8.52229C20.3662 8.36241 20.5433 8.20254 20.7285 8.04266C20.7525 8.06664 20.7767 8.09062 20.8008 8.1226H20.7929Z" fill="white"/>
<path d="M95.2794 8.17042C95.1748 8.08249 95.062 7.99456 94.9574 7.90663C94.9735 7.88264 94.9895 7.86665 95.0057 7.84267C95.1104 7.9306 95.2231 8.01853 95.3277 8.10646L95.2794 8.17042Z" fill="white"/>
<path d="M21.3808 7.61869C21.3164 7.66666 21.2601 7.72262 21.1957 7.77059L21.1232 7.69064C21.1876 7.64268 21.26 7.58673 21.3244 7.53876C21.3405 7.56274 21.3647 7.58673 21.3808 7.61869Z" fill="white"/>
<path d="M94.3941 7.35634C94.4585 7.39631 94.5149 7.43628 94.5793 7.46826C94.5712 7.48424 94.5551 7.50023 94.547 7.52421C94.4826 7.48425 94.4263 7.45227 94.3619 7.4123C94.37 7.39631 94.3861 7.37233 94.3941 7.35634Z" fill="white"/>
<path d="M80.7912 31.6242C80.7912 44.0946 70.5367 54.2548 57.972 54.2467C45.4154 54.2467 35.2011 44.0626 35.2172 31.5682C35.2332 19.0738 45.4556 8.9617 58.0444 8.98568C70.593 9.00967 80.7912 19.1538 80.7912 31.6242ZM80.1393 31.6562C80.1634 19.5775 70.263 9.70513 58.1249 9.63318C45.9225 9.56124 35.9254 19.4176 35.853 31.5043C35.7806 43.3831 45.4396 53.5593 57.9398 53.6072C70.1423 53.6552 80.1151 43.7748 80.1393 31.6642V31.6562Z" fill="white"/>
<path d="M71.3657 53.7688C72.4604 53.4569 73.2411 53.8007 73.8448 54.624C73.2169 55.2556 72.2028 55.3675 71.5347 54.8719C70.8345 54.3523 70.4722 53.6328 70.4481 52.7695C70.432 52.066 70.8264 51.5625 71.3818 51.1708C72.066 51.7703 72.074 52.5936 71.3657 53.7688Z" fill="white"/>
<path d="M35.5066 44.6464C35.4422 43.2794 35.7159 42.7599 36.722 42.3282C37.0601 42.9597 37.1647 43.6152 36.7703 44.2387C36.2471 45.062 35.4905 45.5657 34.4762 45.5097C33.6713 45.4697 33.2367 44.9102 32.8424 44.2307C33.8645 43.7191 34.7258 43.855 35.5147 44.6384L35.5066 44.6464Z" fill="white"/>
<path d="M81.95 21.5999C81.789 20.4648 82.2478 19.7453 83.1492 19.2657C83.7771 20.1611 83.6081 21.2482 82.771 21.8558C82.3203 22.1835 81.8051 22.3674 81.2497 22.3993C80.3562 22.4472 79.7687 21.9996 79.3662 21.2561C80.0746 20.6566 80.8956 20.7445 81.9581 21.5999H81.95Z" fill="white"/>
<path d="M83.5117 36.5893C83.9946 35.5581 84.7512 35.1744 85.7815 35.2863C85.9264 36.1976 85.1778 37.1169 84.2199 37.2048C83.5277 37.2768 82.8918 37.1089 82.3204 36.7093C81.6926 36.2776 81.4189 35.4941 81.6282 34.7907C82.6182 34.8067 83.1413 35.2784 83.5036 36.5814L83.5117 36.5893Z" fill="white"/>
<path d="M77.1611 45.7009C78.0788 46.2524 78.2961 46.9 77.966 48.211C78.8837 47.5315 79.753 47.5715 80.6223 48.1789C80.1474 49.0903 79.1573 49.458 78.2719 49.0823C77.6521 48.8185 77.1934 48.3709 76.8875 47.7793C76.5092 47.0439 76.6944 46.3724 77.1611 45.7009Z" fill="white"/>
<path d="M81.9501 46.2379C81.3545 47.429 80.2678 47.6528 79.5193 47.2691C79.133 47.0693 78.7547 46.8134 78.4568 46.5017C77.7647 45.7823 77.7405 44.9509 78.2878 44.0876C79.1813 44.4233 79.4791 45.0948 79.3101 46.4778C80.139 45.7503 81.0083 45.7023 81.9582 46.2379H81.9501Z" fill="white"/>
<path d="M80.1148 40.5306C81.2416 40.8983 81.6199 41.6897 81.4428 42.7288C81.7085 42.5051 81.9258 42.2652 82.1914 42.1374C82.4732 42.0014 82.8031 41.9135 83.117 41.8975C83.431 41.8815 83.7449 41.9694 84.0588 42.0174C83.8575 43.0326 82.9561 43.6801 82.0144 43.5283C81.3302 43.4163 80.7506 43.1046 80.3079 42.577C79.8088 41.9854 79.7445 41.242 80.1228 40.5385L80.1148 40.5306Z" fill="white"/>
<path d="M46.4936 54.736C45.7048 53.9525 45.7048 53.1212 46.1958 52.2419C46.8317 52.4097 47.3468 53.0573 47.379 53.7447C47.4192 54.5921 47.1214 55.3195 46.4936 55.895C45.8738 56.4546 44.9159 56.4466 44.1513 55.8791C44.6664 54.9838 45.423 54.6 46.5017 54.736H46.4936Z" fill="white"/>
<path d="M81.3299 26.8276C82.2717 26.4438 83.0283 26.7716 83.7607 27.9068C83.8251 26.7556 84.4369 26.1321 85.4753 25.8763C85.8375 26.5478 85.596 27.579 84.944 28.0186C84.131 28.5702 83.2456 28.6262 82.3522 28.2425C81.7646 27.9867 81.4748 27.4591 81.3219 26.8195L81.3299 26.8276Z" fill="white"/>
<path d="M82.304 40.8093C82.9399 39.8341 83.7851 39.5543 84.8395 39.8581C84.6463 41.0091 83.7126 41.6726 82.6098 41.4328C82.2799 41.3608 81.9499 41.233 81.6601 41.0731C80.7022 40.5455 80.3964 39.6022 80.7424 38.6989C81.7084 38.7389 82.2799 39.4903 82.2959 40.8093H82.304Z" fill="white"/>
<path d="M31.0957 39.931C31.9891 39.5073 32.7859 39.7551 33.6552 40.7144C33.7196 40.2188 33.6875 39.7392 34.0094 39.3634C34.3153 39.0037 34.7097 38.7799 35.1523 38.636C35.4824 39.1795 35.4502 39.9389 35.0316 40.4505C34.4038 41.218 33.5829 41.5937 32.5848 41.4418C31.7315 41.314 31.3773 40.6504 31.0957 39.931Z" fill="white"/>
<path d="M34.2023 32.8088C34.2747 33.752 33.9206 34.4075 33.1398 34.7672C32.6005 35.015 32.0371 35.1269 31.4414 35.007C30.4836 34.8152 29.88 33.9998 29.9523 33.0006C30.8619 32.8167 31.5783 33.2644 32.2061 34.4714C32.3107 33.9598 32.4315 33.5042 32.842 33.2163C33.2364 32.9366 33.6711 32.7607 34.2023 32.8167V32.8088Z" fill="white"/>
<path d="M41.4472 48.6992C42.4131 49.4985 42.405 50.7456 41.4472 51.7767C40.7389 52.5361 39.6281 52.8959 38.4931 51.7607C39.0243 51.0013 39.789 50.8414 41.0849 51.2172C40.5699 50.0021 40.6745 49.3147 41.4552 48.6911L41.4472 48.6992Z" fill="white"/>
<path d="M77.5226 51.7288C76.4763 52.808 75.3091 52.6481 74.5525 51.7688C74.2869 51.465 74.0695 51.1052 73.9247 50.7296C73.6349 49.9702 73.8844 49.2427 74.5445 48.6911C75.3413 49.3226 75.454 50.082 74.8905 51.2252C75.3654 51.0813 75.8081 50.8895 76.2831 50.9934C76.7579 51.0973 77.1764 51.3132 77.5226 51.7128V51.7288Z" fill="white"/>
<path d="M73.0476 49.9872C73.772 50.7945 73.7961 51.3621 73.1763 52.6012C74.2228 52.1935 75.0679 52.4413 75.7601 53.2646C74.915 54.104 73.7881 54.136 73.0073 53.3206C72.7417 53.0408 72.5163 52.697 72.3635 52.3453C71.961 51.4341 72.2105 50.6427 73.0476 49.9872Z" fill="white"/>
<path d="M83.8174 34.5112C84.1876 33.4081 84.9201 32.9445 85.9745 32.9445C86.1998 33.7358 85.6284 34.7111 84.8074 34.9509C83.9622 35.1908 83.1734 35.0309 82.465 34.5352C81.8936 34.1356 81.7649 33.528 81.7326 32.8086C82.272 32.7446 82.7146 32.9125 83.1251 33.1923C83.5517 33.4801 83.6563 33.9597 83.8093 34.5033L83.8174 34.5112Z" fill="white"/>
<path d="M81.7894 30.8181C82.8921 30.6981 83.4958 31.1138 83.9546 32.3529C84.2283 31.2097 84.9366 30.6821 86.0152 30.6102C86.2326 31.5695 85.6611 32.6727 84.5986 32.8085C84.1961 32.8645 83.7695 32.8645 83.375 32.7925C82.3448 32.6007 81.7975 31.8973 81.7894 30.826V30.8181Z" fill="white"/>
<path d="M82.6983 23.5982C82.6339 22.5111 83.157 21.8235 84.1069 21.3919C84.614 22.1833 84.469 23.2145 83.7769 23.7581C83.1572 24.2537 82.4327 24.4375 81.652 24.3176C80.9034 24.2058 80.4526 23.7181 80.1789 23.0466C80.8792 22.567 81.9497 22.615 82.6902 23.5982H82.6983Z" fill="white"/>
<path d="M81.2658 36.7325C82.3684 36.9083 82.8515 37.4359 82.9722 38.563C83.3102 38.2753 83.6322 37.9315 84.0266 37.7077C84.4452 37.4759 84.9361 37.4359 85.4111 37.5879C85.3869 38.5391 84.6545 39.3065 83.7529 39.3545C83.2056 39.3865 82.6985 39.2506 82.2236 38.9947C81.3463 38.5072 81.0243 37.7637 81.2658 36.7325Z" fill="white"/>
<path d="M42.9277 50.0032C43.62 50.4509 43.9339 51.1944 43.7487 51.9697C43.62 52.5133 43.3462 52.977 42.9438 53.3606C42.155 54.1121 41.0442 54.0721 40.2312 53.2487C40.9154 52.4334 41.7606 52.1935 42.8151 52.5853C42.1711 51.3941 42.2113 50.7626 42.9277 50.0032Z" fill="white"/>
<path d="M80.4369 44.718C81.2498 43.8387 82.1111 43.7508 83.0689 44.1824C82.916 44.9418 82.0949 45.5813 81.3062 45.5253C80.3483 45.4534 79.6239 44.9739 79.165 44.1425C78.835 43.543 78.9478 42.9354 79.2536 42.3438C80.2517 42.6795 80.622 43.391 80.4449 44.718H80.4369Z" fill="white"/>
<path d="M85.8459 28.2747C86.0954 29.5937 85.3951 30.577 84.1475 30.6728C83.7128 30.7048 83.254 30.6569 82.8355 30.5449C82.103 30.3371 81.6684 29.6816 81.6201 28.8983C82.5296 28.5785 83.2862 28.9702 83.8818 30.1133C84.0348 29.6256 84.1475 29.1621 84.5177 28.8423C84.888 28.5225 85.3146 28.3386 85.8378 28.2828L85.8459 28.2747Z" fill="white"/>
<path d="M32.6488 25.7404C33.5101 24.7012 34.2989 24.4613 35.1279 24.901C34.7819 26.188 33.6067 26.7155 32.198 26.22C31.0471 25.8203 30.5802 24.7571 31.0712 23.6059C32.0773 23.9178 32.6246 24.5733 32.6488 25.7404Z" fill="white"/>
<path d="M30.1379 35.2781C31.2486 35.1582 32.0295 35.5579 32.5043 36.5651C32.5848 36.0295 32.7136 35.5499 33.1483 35.2142C33.5024 34.9343 33.9049 34.7744 34.412 34.7505C34.5086 35.454 34.3878 36.0695 33.8646 36.5331C33.2288 37.1007 32.4641 37.3005 31.6269 37.1646C30.7657 37.0207 30.2345 36.3333 30.1459 35.2701L30.1379 35.2781Z" fill="white"/>
<path d="M34.6369 26.7639C34.4518 27.7871 33.8482 28.3706 32.9064 28.4506C32.5844 28.4745 32.2544 28.4745 31.9324 28.4106C30.6848 28.1788 30.0973 27.1796 30.4433 25.9325C31.3449 25.9565 31.8761 26.5001 32.2705 27.8671C32.7534 26.8199 33.5583 26.548 34.6289 26.7639H34.6369Z" fill="white"/>
<path d="M30.476 37.6121C31.6269 37.3564 32.4318 37.7241 32.9953 38.7233C33.1804 37.3963 33.5668 36.9487 34.7179 36.7169C34.9271 37.3803 34.8386 38.0039 34.3717 38.5074C33.6794 39.2349 32.8021 39.5387 31.804 39.2749C30.991 39.059 30.7255 38.3716 30.476 37.6121Z" fill="white"/>
<path d="M69.7238 52.1856C70.3355 53.1129 70.2469 54.0162 69.3615 54.7757C69.9009 54.7516 70.3918 54.6637 70.8426 54.8955C71.2773 55.1193 71.6153 55.4391 71.8407 55.8708C70.9634 56.5423 69.8847 56.4303 69.2248 55.615C68.8384 55.1353 68.6291 54.5838 68.605 53.9762C68.5727 53.1529 69.0074 52.6093 69.7157 52.1936L69.7238 52.1856Z" fill="white"/>
<path d="M38.0746 48.1797C37.5433 47.1165 37.9297 46.3491 38.7828 45.6696C39.2659 46.2612 39.451 46.8847 39.1854 47.5802C38.8955 48.3555 38.3241 48.8831 37.5352 49.155C36.7303 49.4347 35.8449 49.043 35.3781 48.2276C36.1025 47.5802 36.7786 47.5561 38.0746 48.1877V48.1797Z" fill="white"/>
<path d="M35.8772 40.4989C36.4326 41.8178 35.8128 42.9849 34.3882 43.4326C33.2451 43.7924 32.2149 43.2248 31.9412 42.0817C32.3839 41.8419 32.8668 41.8019 33.3176 41.9458C33.7361 42.0816 34.1064 42.3694 34.533 42.6093C34.3559 41.5461 34.8953 40.9066 35.8772 40.4989Z" fill="white"/>
<path d="M34.0253 21.6496C34.9751 20.7543 35.7156 20.6424 36.6251 21.2259C36.3112 21.8495 35.8444 22.3131 35.128 22.3771C34.1701 22.465 33.3169 22.1692 32.7373 21.3698C32.2463 20.6983 32.4476 19.987 32.7535 19.2435C33.2525 19.4433 33.5745 19.7711 33.8321 20.1788C34.1058 20.6025 34.0493 21.082 34.0253 21.6496Z" fill="white"/>
<path d="M83.3263 25.749C83.4229 24.5179 83.8817 23.9183 84.8958 23.6466C85.3385 24.438 85.0971 25.4772 84.3324 25.9647C83.7045 26.3645 83.0043 26.4924 82.2718 26.3405C81.4749 26.1806 81.0886 25.6211 80.823 24.9176C81.7487 24.4699 82.465 24.7098 83.3263 25.7569V25.749Z" fill="white"/>
<path d="M31.8442 21.4325C32.8343 21.7442 33.2609 22.4157 33.2448 23.7347C33.5828 23.3111 33.8727 22.9194 34.3637 22.8154C34.8385 22.7115 35.3134 22.7595 35.7561 22.9513C35.6434 23.6547 35.0317 24.2383 34.2912 24.3343C33.607 24.4222 32.9631 24.2783 32.3835 23.8946C31.5626 23.359 31.3371 22.3038 31.8442 21.4325Z" fill="white"/>
<path d="M76.5329 49.7702C77.4828 49.2347 78.344 49.3227 79.1408 50.0021C78.7384 50.7695 77.5633 51.1532 76.8228 50.7615C76.2432 50.4577 75.8005 50.0261 75.5188 49.4425C75.1485 48.6671 75.2853 47.9077 75.9212 47.2602C76.7342 47.8118 76.8951 48.4193 76.5249 49.7702H76.5329Z" fill="white"/>
<path d="M34.0174 46.253C34.9832 45.6934 35.8606 45.7414 36.6977 46.5088C36.4884 45.1418 36.7218 44.5662 37.6636 44.0786C38.4121 45.0379 38.1143 46.261 36.9472 47.0364C35.8365 47.7718 34.6935 47.484 34.0174 46.261V46.253Z" fill="white"/>
<path d="M44.6506 53.7525C43.9101 52.7133 43.8779 52.0259 44.5298 51.2024C45.2543 51.5382 45.6567 52.3136 45.5199 53.121C45.4314 53.6326 45.2221 54.0882 44.8841 54.4879C44.1515 55.3512 43.065 55.4312 42.1715 54.6878C42.6303 53.8244 43.3064 53.5686 44.6586 53.7525H44.6506Z" fill="white"/>
<path d="M29.9445 30.6415C31.007 30.6415 31.5704 31.0732 32.0534 32.2962C32.2466 31.7447 32.4477 31.241 32.9951 31.0011C33.3734 30.8414 33.7597 30.7294 34.1703 30.8014C34.2508 31.5608 33.8804 32.2482 33.2124 32.5759C32.5765 32.8957 31.9004 32.9437 31.2162 32.7679C30.3067 32.5201 29.8077 31.6966 29.9364 30.6415H29.9445Z" fill="white"/>
<path d="M40.0303 47.2446C40.6421 47.8041 40.8191 48.5556 40.5374 49.291C40.3684 49.7146 40.1027 50.0584 39.7728 50.3622C38.9276 51.1295 37.7443 51.1695 36.867 50.0744C37.4385 49.3469 38.3158 49.243 39.5152 49.7866C39.3301 49.315 39.1369 48.8833 39.2576 48.4117C39.3864 47.9401 39.6359 47.5483 40.0303 47.2526V47.2446Z" fill="white"/>
<path d="M34.3556 28.8672C34.3314 29.6506 33.8887 30.2822 33.1723 30.5459C32.641 30.7378 32.0937 30.7618 31.5545 30.6339C30.4356 30.378 29.8882 29.4668 30.1539 28.2837C31.2566 28.4276 31.9005 29.0351 32.0776 30.1862C32.6249 28.9952 33.3333 28.6034 34.3556 28.8672Z" fill="white"/>
<path d="M64.8133 5.25425C65.1271 5.1983 65.1915 5.37416 65.1835 5.62996C65.1755 6.2215 65.1835 6.82104 65.1755 7.41258C65.1755 7.58045 65.1755 7.74033 65.1755 8.04409C65.602 7.66838 65.8757 7.30867 66.1816 6.98091C66.4875 6.64517 66.7933 6.30943 67.0992 5.9737C67.1394 5.98169 67.1716 5.99767 67.2119 6.00566C67.236 6.45332 67.2682 6.89298 67.2843 7.34064C67.3084 7.79629 67.3245 8.25194 67.3568 8.78752C67.4936 8.66761 67.5821 8.60366 67.6465 8.51573C68.0731 8.00413 68.4917 7.49251 68.9102 6.97292C69.0712 6.77308 69.2322 6.66916 69.4978 6.94095C68.6929 7.90021 67.888 8.85947 67.0025 9.91465C66.8818 9.33111 66.9302 8.85947 66.906 8.39582C66.8818 7.94817 66.8658 7.50051 66.8416 7.05285L66.7289 7.02089C66.1172 7.70036 65.5054 8.37184 64.8856 9.06731C64.7489 8.70759 64.7086 5.90974 64.8212 5.24625L64.8133 5.25425Z" fill="white"/>
<path d="M48.7955 56.5979C48.3688 56.7099 47.9341 56.8218 47.4995 56.9417C47.4835 56.9097 47.4673 56.8778 47.4431 56.8457C47.7088 56.502 47.9744 56.1503 48.2642 55.7665C48.0227 55.3909 47.7732 55.0071 47.5317 54.6315C47.5479 54.6075 47.5639 54.5755 47.58 54.5515C48.0066 54.6875 48.4332 54.8314 48.884 54.9832C49.1737 54.6315 49.4555 54.2877 49.7452 53.936C49.7774 53.952 49.8015 53.96 49.8338 53.976V55.3269C50.2765 55.4948 50.6869 55.6547 51.0975 55.8146C51.0975 55.8465 51.0975 55.8706 51.1055 55.9025C50.6789 56.0384 50.2523 56.1742 49.7855 56.3262C49.7613 56.7658 49.7452 57.1974 49.7211 57.7251C49.2784 57.4133 49.1577 56.9177 48.7955 56.5979Z" fill="white"/>
<path d="M61.7706 57.3417C61.352 57.1258 60.9496 56.926 60.5471 56.7182C60.5471 56.6862 60.5551 56.6542 60.5632 56.6223C61.0059 56.5344 61.4486 56.4544 61.9073 56.3664C61.9798 55.9187 62.0523 55.4871 62.1408 54.9755C62.5111 55.3592 62.6157 55.8148 62.9135 56.1906C63.3562 56.1267 63.7989 56.0626 64.2416 55.9907C64.2578 56.0228 64.2738 56.0547 64.298 56.0867C64.0646 56.3264 63.8391 56.5742 63.5977 56.8061C63.4045 56.99 63.3723 57.1578 63.5092 57.3817C63.6863 57.6694 63.8312 57.9812 63.9358 58.3649C63.5333 58.181 63.1309 57.9972 62.6801 57.7973C62.35 58.1171 62.0121 58.4369 61.6739 58.7646C61.6499 58.7486 61.6257 58.7406 61.5934 58.7247C61.6499 58.277 61.7062 57.8293 61.7625 57.3496L61.7706 57.3417Z" fill="white"/>
<path d="M53.3513 57.7876C52.9246 57.9874 52.5141 58.1792 52.1037 58.3791C52.0795 58.3551 52.0553 58.3312 52.0312 58.2992C52.2404 57.8995 52.4417 57.4998 52.6591 57.0762C52.3371 56.7324 52.0312 56.4047 51.7254 56.0689C51.7414 56.0449 51.7656 56.013 51.7817 55.9889C52.2164 56.0529 52.651 56.1249 53.1259 56.1969C53.3513 55.7971 53.5686 55.4054 53.786 55.0138L53.8825 55.0297C53.9147 55.2376 53.955 55.4534 53.9871 55.6612C54.0274 55.8771 54.0676 56.0928 54.1078 56.3487C54.5505 56.4366 54.9933 56.5326 55.4279 56.6205C55.4279 56.6525 55.444 56.6844 55.4521 56.7085C55.0657 56.9082 54.6874 57.1081 54.2527 57.3319C54.301 57.7717 54.3413 58.2192 54.3896 58.6669C54.3654 58.6829 54.3333 58.7068 54.3091 58.7229C53.9952 58.4111 53.6732 58.0994 53.3352 57.7636L53.3513 57.7876Z" fill="white"/>
<path d="M56.8367 58.9241C56.9574 58.5085 57.0781 58.0848 57.215 57.6212C56.8447 57.3574 56.4825 57.0936 56.1123 56.8298C56.1123 56.7978 56.1283 56.7578 56.1364 56.7259H57.4968C57.6577 56.2383 57.7946 55.8146 57.9394 55.3829C57.9716 55.3829 58.0118 55.3829 58.0441 55.3829C58.1969 55.8066 58.3499 56.2222 58.5109 56.6699H59.9275C59.6056 57.1016 59.1468 57.2615 58.8409 57.6212C58.9778 58.0448 59.1066 58.4765 59.2433 58.9002C59.2192 58.9162 59.187 58.9322 59.1629 58.9562C58.8007 58.7084 58.4384 58.4685 58.0441 58.1968C57.6658 58.4685 57.2955 58.7244 56.9253 58.9881L56.8367 58.9241Z" fill="white"/>
<path d="M68.516 56.9168C68.0814 56.8048 67.6387 56.693 67.1959 56.581C66.9222 56.9647 66.6648 57.3165 66.4152 57.6682C66.383 57.6682 66.3428 57.6523 66.3105 57.6442C66.3024 57.4524 66.2864 57.2605 66.2784 57.0687C66.238 56.1414 66.3508 56.3332 65.5217 56.0854C65.3285 56.0294 65.1354 55.9655 64.9262 55.8137C65.3366 55.6457 65.7471 55.4859 66.1978 55.3021V53.9591C66.1978 53.9591 66.2542 53.9351 66.2864 53.927C66.56 54.2628 66.8337 54.5985 67.1315 54.9583C67.5662 54.8144 67.9928 54.6705 68.4194 54.5346C68.4436 54.5666 68.4597 54.5906 68.4838 54.6225C68.2504 54.9902 68.0089 55.3579 67.7594 55.7417C68.0331 56.1094 68.3067 56.4692 68.5804 56.8288C68.5643 56.8528 68.5402 56.8848 68.5241 56.9088L68.516 56.9168Z" fill="white"/>
<path d="M43.7006 11.7361C43.7006 12.7753 42.8394 13.6227 41.8011 13.6067C40.7708 13.5907 39.9578 12.7593 39.9659 11.7361C39.9739 10.7129 40.803 9.90556 41.8413 9.90556C42.8957 9.90556 43.7006 10.697 43.7006 11.7361ZM43.2821 11.7681C43.2821 10.9607 42.6462 10.3052 41.8413 10.2973C41.0606 10.2893 40.4086 10.9208 40.3924 11.7042C40.3764 12.5355 41.0364 13.207 41.8655 13.199C42.6543 13.199 43.2821 12.5675 43.2821 11.7681Z" fill="white"/>
<path d="M37.4947 16.7093C37.2935 16.989 37.1164 17.2368 36.9152 17.5087C36.8105 17.4527 36.722 17.4048 36.5852 17.3407C36.7864 17.029 36.9716 16.7412 37.1647 16.4614C37.2371 16.3495 37.3257 16.2536 37.4062 16.1577C38.0904 16.4934 38.4203 17.085 38.3157 17.7804C38.1869 18.6997 37.3981 19.3552 36.4564 19.3473C35.5066 19.3392 34.7258 18.6198 34.6292 17.6765C34.5407 16.7652 35.1686 15.8939 36.0459 15.694C36.3678 15.622 36.4 15.6461 36.4564 16.0058C36.3195 16.0458 36.1666 16.0778 36.0298 16.1257C35.4261 16.3175 35.0398 16.8372 35.0398 17.4687C35.0398 18.0922 35.41 18.6358 35.9896 18.8516C36.5529 19.0594 37.2532 18.8755 37.6235 18.4199C38.034 17.9164 38.0018 17.2449 37.4866 16.7173L37.4947 16.7093Z" fill="white"/>
<path d="M45.5761 11.3205C44.9966 10.2573 44.4413 9.24213 43.8617 8.17895C44.1514 8.02706 44.3769 7.88317 44.6264 7.78725C45.399 7.47549 45.9947 7.86718 46.0349 8.69855C46.0349 8.7465 46.0349 8.80247 46.0349 8.84243C46.0672 8.86642 46.0993 8.89838 46.1235 8.89838C46.6306 8.93836 46.9525 9.21015 47.0732 9.68977C47.194 10.1934 46.9123 10.5371 46.5179 10.7929C46.2362 10.9768 45.9303 11.1207 45.5761 11.3205ZM45.7612 10.7609C45.9465 10.665 46.0832 10.5931 46.2201 10.5211C46.2925 10.4812 46.365 10.4252 46.4213 10.3693C46.687 10.1294 46.7352 9.87363 46.5823 9.60184C46.4375 9.35403 46.2039 9.25011 45.874 9.35403C45.6405 9.42598 45.4232 9.55388 45.1737 9.6738C45.383 10.0655 45.5601 10.3852 45.7612 10.7689V10.7609ZM44.4413 8.34682C44.6345 8.69055 44.8115 9.00231 44.9886 9.31407C45.6326 8.98632 45.7533 8.76249 45.5359 8.37079C45.3186 7.9791 45.061 7.96311 44.4332 8.34682H44.4413Z" fill="white"/>
<path d="M74.9474 15.1176C75.8571 14.3182 76.7264 13.5668 77.5876 12.8153C78.4167 13.359 78.8271 14.1903 78.6662 14.9656C78.3844 16.2926 76.7666 16.8523 75.7363 15.9569C75.4626 15.7171 75.2292 15.4214 74.9474 15.1176ZM77.6278 13.3429C76.9195 13.9585 76.2433 14.55 75.5431 15.1576C75.9455 15.7011 76.3882 16.0688 77.0724 15.9569C77.6439 15.869 78.0384 15.5253 78.2235 14.9817C78.4488 14.3262 78.1349 13.8385 77.6359 13.3429H77.6278Z" fill="white"/>
<path d="M74.7219 10.1206C75.0117 10.4004 75.2934 10.6242 75.5188 10.888C75.7844 11.1997 75.8408 11.5595 75.5992 11.9192C75.3659 12.271 75.06 12.4788 74.6173 12.4308C74.4885 12.4149 74.3597 12.3828 74.1826 12.3508C74.1263 12.9424 74.078 13.51 74.0217 14.1015C73.7158 14.0376 73.6192 13.8856 73.6514 13.6219C73.6917 13.2701 73.7158 12.9105 73.748 12.5588C73.7641 12.3989 73.7722 12.239 73.6917 12.0311C73.3858 12.3828 73.0799 12.7345 72.7499 13.1103C72.6453 13.0383 72.5567 12.9744 72.4119 12.8705C73.1845 11.9512 73.9331 11.0639 74.7219 10.1126V10.1206ZM73.9814 11.6634C74.2712 11.8872 74.4966 12.135 74.8668 12.0151C75.1083 11.9352 75.2774 11.7433 75.3015 11.4955C75.3337 11.1278 75.0842 10.928 74.7541 10.7441C74.4966 11.0479 74.2551 11.3436 73.9814 11.6634Z" fill="white"/>
<path d="M72.0009 8.20244C71.8239 9.52942 71.6549 10.7845 71.4858 12.0555C71.172 12.0555 71.0834 11.9116 71.1155 11.6718C71.1478 11.408 71.1799 11.1362 71.2202 10.8404C70.8016 10.5926 70.3992 10.3448 69.9565 10.081C69.7231 10.2409 69.4816 10.3927 69.2562 10.5686C69.0711 10.7125 68.9182 10.6805 68.7652 10.5207C68.9584 10.2329 71.3329 8.52219 72.009 8.20244H72.0009ZM71.4698 9.04179C71.0029 9.25762 70.6729 9.51343 70.3187 9.84916C70.6568 10.041 70.9385 10.2009 71.2846 10.3927C71.349 9.91311 71.4054 9.51343 71.4698 9.04179Z" fill="white"/>
<path d="M62.1734 4.70961C62.4953 5.94866 62.8093 7.1957 63.1393 8.45873C62.8575 8.50668 62.7047 8.45873 62.6403 8.2269C62.6241 8.17894 62.6161 8.12299 62.6 8.08301C62.5115 7.8512 62.4148 7.62736 62.3264 7.39555C61.8836 7.3316 61.449 7.25964 61.0063 7.21169C60.9419 7.21169 60.8453 7.3236 60.7889 7.39555C60.6762 7.54743 60.5797 7.7073 60.483 7.86717C60.3463 8.099 60.1772 8.107 59.9357 7.93913C60.636 6.84397 61.3363 5.7648 62.0286 4.68564C62.0688 4.68564 62.117 4.70162 62.1574 4.70961H62.1734ZM62.3183 6.96388C62.1976 6.47625 62.093 6.06057 61.9963 5.65289C61.9642 5.65289 61.9238 5.65289 61.8917 5.65289C61.6663 6.00462 61.449 6.36434 61.1753 6.78802C61.5697 6.85196 61.8998 6.89992 62.3183 6.97187V6.96388Z" fill="white"/>
<path d="M48.3693 7.57137C48.836 7.41149 49.2386 7.27559 49.6409 7.13171C49.818 7.33155 49.8261 7.46745 49.5765 7.56337C49.2386 7.69127 48.9085 7.81118 48.5221 7.96306C48.6751 8.39473 48.828 8.79442 48.989 9.24208C49.3834 9.09818 49.7295 8.97029 50.0837 8.84238C50.3251 8.75445 50.4458 8.82639 50.4298 9.13816C49.8905 9.33801 49.3351 9.53784 48.7234 9.76168C48.3049 8.63455 47.9023 7.56337 47.4758 6.41226C48.0553 6.19642 48.6026 5.98859 49.1822 5.77275C49.2386 5.88467 49.2868 5.9806 49.3593 6.11649C48.9004 6.29235 48.4739 6.46022 48.0231 6.63608C48.1438 6.95584 48.2405 7.24361 48.3693 7.57936V7.57137Z" fill="white"/>
<path d="M51.1622 5.20472C51.7498 5.07683 52.2649 4.95691 52.7801 4.86099C52.8525 4.845 52.9411 4.93293 53.0215 4.9809C52.9652 5.06883 52.925 5.21272 52.8525 5.2367C52.4823 5.34062 52.0959 5.41256 51.7176 5.5005C51.7176 5.62839 51.7015 5.71632 51.7176 5.79626C51.7579 6.0121 51.8142 6.21994 51.8786 6.49173C52.2489 6.41978 52.5869 6.34784 52.9331 6.28389C53.1503 6.24392 53.1503 6.25191 53.3193 6.57167C52.8847 6.68358 52.4661 6.7875 51.9913 6.90741C51.9913 7.34707 52.1201 7.76275 52.2649 8.2184C52.6432 8.13846 53.0055 8.05852 53.3758 8.00256C53.585 7.9626 53.593 7.97859 53.7218 8.31433C53.1262 8.44222 52.5386 8.56213 51.9027 8.69802C51.6451 7.51494 51.4037 6.39581 51.1461 5.20472H51.1622Z" fill="white"/>
<path d="M78.1666 17.659C78.2391 17.715 78.3196 17.771 78.4162 17.8429C78.3518 18.0028 78.2632 18.1547 78.223 18.3066C78.1505 18.5944 78.231 18.8421 78.4806 19.026C78.7059 19.1939 78.9554 19.2179 79.2049 19.0899C79.4625 18.9621 79.5511 18.7222 79.5269 18.4505C79.5028 18.1787 79.4465 17.9149 79.4384 17.6431C79.4143 17.1474 79.5994 16.8438 79.9777 16.6999C80.3399 16.564 80.7665 16.6839 81.0402 17.0036C81.3541 17.3633 81.3783 17.739 81.1288 18.1627C80.9435 18.1627 80.847 18.0827 80.8712 17.8829C80.8872 17.7471 80.8872 17.6111 80.8551 17.4832C80.7745 17.2034 80.4929 17.0435 80.2192 17.0916C79.9696 17.1395 79.8489 17.2913 79.857 17.6191C79.857 17.8589 79.9052 18.0908 79.9294 18.3305C80.0019 18.9381 79.7845 19.3538 79.2935 19.5297C78.7945 19.7135 78.2391 19.5136 77.9494 19.058C77.6595 18.5944 77.7239 18.1067 78.1505 17.6671L78.1666 17.659Z" fill="white"/>
<path d="M40.4084 14.8051C40.682 14.9329 40.7948 15.0289 40.6499 15.2047C40.513 15.3726 40.3601 15.5405 40.2072 15.7003C40.0945 15.8202 39.9738 15.9401 39.8288 16.0761C38.9434 15.2686 38.0902 14.4932 37.2129 13.7019C37.3095 13.5899 37.3739 13.502 37.4866 13.3821C38.2754 14.0936 39.0401 14.7891 39.8611 15.5324C40.0543 15.2767 40.2313 15.0448 40.4084 14.813V14.8051Z" fill="white"/>
<path d="M56.8766 5.46925C56.8605 6.09277 56.3776 6.54042 55.7417 6.51644C55.1461 6.49247 54.6792 5.99684 54.6953 5.42129C54.7114 4.84573 55.2105 4.3661 55.798 4.3661C56.4097 4.3661 56.8927 4.85372 56.8847 5.47724L56.8766 5.46925ZM56.6996 5.45327C56.6996 4.98962 56.3051 4.57395 55.8222 4.55796C55.3231 4.54197 54.8966 4.94965 54.8885 5.44527C54.8885 5.94089 55.307 6.35656 55.8061 6.34857C56.281 6.34057 56.6915 5.9249 56.6915 5.46125L56.6996 5.45327Z" fill="white"/>
<path d="M103.062 77.9722C103.046 78.324 103.03 78.6598 103.014 79.0194H102.386C102.322 78.0842 102.354 77.1569 102.362 76.1896C102.958 76.0458 103.537 76.0378 104.109 76.1417C104.423 76.1976 104.68 76.3814 104.753 76.7252C104.833 77.061 104.705 77.3247 104.415 77.5086C104.374 77.5326 104.334 77.5646 104.262 77.6045C104.713 77.9803 104.713 78.4919 104.849 78.9555C104.23 79.1393 104.157 79.0994 103.996 78.5318C103.827 77.9403 103.755 77.8923 103.055 77.9643L103.062 77.9722ZM103.111 76.6292V77.4287C103.352 77.3967 103.554 77.3888 103.739 77.3488C103.916 77.3007 104.028 77.1729 104.012 76.973C103.996 76.7812 103.867 76.6613 103.69 76.6373C103.513 76.6133 103.328 76.6373 103.111 76.6373V76.6292Z" fill="white"/>
<path d="M65.9723 12.8155C66.1896 12.5518 66.2218 12.8954 66.3909 12.9354C66.4392 12.7116 66.4874 12.4877 66.5518 12.2C66.7289 11.9761 66.9704 11.9842 67.2762 12.1281C71.7274 14.2705 75.092 17.5239 77.3538 21.8885C77.4503 22.0804 77.4986 22.3042 77.5147 22.52C77.5389 22.8717 77.5147 23.2315 77.4986 23.5912C77.4986 23.6792 77.4986 23.7991 77.4584 23.8391C77.0157 24.2148 77.2571 24.7583 77.1122 25.214C77.072 25.3419 77.1525 25.5018 77.1766 25.6536C77.2571 26.0694 77.3457 26.485 77.4021 26.9006C77.4261 27.0926 77.3779 27.2764 77.1364 27.2844C77.0076 26.6928 76.8708 26.1173 76.734 25.4858C76.6133 25.5736 76.5166 25.6376 76.3959 25.7256C76.3798 25.5578 76.3557 25.4139 76.3396 25.2699C76.3234 25.2699 76.2994 25.2619 76.2832 25.254C76.2429 25.3818 76.2108 25.5178 76.1706 25.6457C76.1062 25.8588 76.1839 26.0027 76.404 26.0773C76.7098 26.1812 76.7742 26.2851 76.5972 26.5569C76.3878 26.8687 76.404 27.1484 76.5247 27.5082C76.7823 28.2996 76.8869 29.123 76.581 29.9463C76.5166 30.1222 76.3234 30.3779 76.6937 30.4899C76.7179 30.4899 76.726 30.5858 76.7179 30.6338C76.6696 30.9135 76.6212 31.1854 76.573 31.4651C76.5408 31.4651 76.5005 31.4651 76.4684 31.4571C76.4522 31.2493 76.4442 31.0334 76.4281 30.8496C76.1545 31.0974 75.8647 31.3372 75.5991 31.609C75.5024 31.7049 75.4461 31.8569 75.4139 31.9927C75.3657 32.2005 75.3897 32.4324 75.1564 32.5523C74.778 32.2965 75.3254 32.0247 75.0839 31.7449C74.8102 31.8808 74.7458 32.1286 74.7458 32.4004C74.7458 32.5363 74.7861 32.6722 74.8344 32.8001C75.2448 33.7434 75.0034 34.5107 74.2388 35.1423C74.1341 34.8066 74.0295 34.4868 73.9249 34.159H73.7961C73.7397 34.2869 73.6431 34.4229 73.6512 34.5428C73.6673 34.9265 73.7075 35.3101 73.788 35.6859C73.8685 36.0297 73.7961 36.741 73.6592 37.1328C73.5948 37.3167 73.6592 37.5485 73.6914 37.7483C73.7075 37.8522 73.8121 37.9481 73.8363 37.9881C73.6914 38.2039 73.5706 38.3878 73.4418 38.5637C73.5868 38.7715 73.6673 38.9554 73.9329 38.9074C73.9812 38.8994 74.0939 38.9633 74.1019 39.0033C74.1583 39.451 74.5124 39.3231 74.77 39.355C74.939 39.379 75.1081 39.355 75.3657 39.355C75.1725 39.5469 75.0195 39.6988 74.8102 39.9066C74.8182 39.7308 74.8263 39.6348 74.8344 39.491C74.6895 39.5869 74.5848 39.6509 74.5285 39.6908C74.2307 39.5469 73.9651 39.419 73.6994 39.2831C73.4902 39.1792 73.3534 39.0593 73.2728 38.7795C73.144 38.3318 73.0556 37.9081 73.0394 37.4445C73.0233 37.0129 72.8865 36.5892 72.798 36.1575C72.7819 36.0776 72.7819 35.9976 72.7738 35.9017C73.2648 35.8377 73.1038 36.3574 73.4258 36.5253C73.3855 36.1255 73.3453 35.7659 73.3211 35.4061C73.313 35.2382 73.313 35.0704 73.3534 34.9105C73.5062 34.3269 73.5143 33.7353 73.458 33.1039C73.3211 33.1358 73.1923 33.1679 73.0233 33.2158C73.1279 32.5763 72.8945 32.0407 72.7094 31.4892C72.1863 31.5131 72.0252 31.9527 71.7676 32.2565C71.5262 32.5363 71.3089 32.8481 71.0835 33.1439C71.0513 33.1838 70.995 33.2237 70.995 33.2637C70.9869 33.7674 70.6891 34.239 70.8822 34.7585C70.9387 34.9184 70.9708 35.0944 70.9708 35.2542C70.9708 35.4381 70.9306 35.622 70.6891 35.7019C70.4637 35.51 70.5844 35.2622 70.5603 34.9984C70.4556 35.0304 70.3591 35.0623 70.1901 35.1104C69.9888 33.9832 69.699 32.872 69.6749 31.7289C69.3047 31.6889 69.2885 31.681 69.1436 31.4092C68.9746 31.0815 68.8137 30.7537 68.6607 30.4499C68.0651 30.394 67.5177 30.338 66.9302 30.274C66.8738 30.4419 66.9463 30.5539 67.1072 30.6578C67.5499 30.9535 67.5901 31.1214 67.3326 31.5691C67.1474 31.8808 67.0348 32.2246 66.7208 32.4643C66.1735 32.872 65.6262 33.2878 64.9822 33.5515C64.765 33.6395 64.5557 33.7274 64.3142 33.8234C64.3786 33.9672 64.4188 34.0711 64.4751 34.207C64.9178 34.1031 65.3444 34.0072 65.7871 33.9033C65.9159 34.159 65.8275 34.3989 65.7227 34.6227C65.3767 35.3421 65.0628 36.0696 64.3867 36.5812C64.0405 36.8449 63.791 37.2367 63.5174 37.5804C63.1551 38.0361 63.2194 38.5796 63.3403 39.0753C63.4449 39.5149 63.3402 39.9147 63.2598 40.3224C63.2275 40.4902 63.0102 40.626 62.8653 40.762C62.7044 40.9138 62.5193 41.0418 62.3501 41.1776C62.2214 41.2815 62.1812 41.4014 62.2134 41.5853C62.2778 41.9291 62.2697 42.2649 61.8753 42.4487C61.8028 42.4806 61.7546 42.6085 61.7304 42.6965C61.6016 43.1921 61.2636 43.5598 60.9416 43.9355C60.7484 44.1674 60.4908 44.2953 60.1769 44.2792C60.0642 44.2792 59.9435 44.3113 59.8228 44.3272C59.4445 44.3911 59.3639 44.3192 59.2674 43.9355C59.1869 43.5917 59.05 43.2721 58.9373 42.9362C58.8649 42.7284 58.8005 42.5206 58.7361 42.3128C58.5994 41.8971 58.535 41.4414 58.3256 41.0657C58.0519 40.5702 58.1244 40.1065 58.3095 39.6509C58.4142 39.395 58.4464 39.1872 58.3578 38.9314C58.2854 38.7235 58.3014 38.4917 58.237 38.2839C58.1324 37.9481 58.0037 37.6203 57.738 37.3486C57.5288 37.1328 57.4483 36.8609 57.5288 36.5492C57.5771 36.3493 57.5932 36.1495 57.6253 35.9497C57.5448 35.8777 57.4644 35.8058 57.3919 35.7259C57.3597 35.6939 57.3356 35.606 57.3275 35.6139C56.9331 35.6939 56.8124 35.4061 56.6353 35.1583C56.5709 35.0704 56.257 35.0704 56.1201 35.1503C55.7902 35.3261 55.4763 35.4381 55.106 35.3182C55.0497 35.3022 54.953 35.3022 54.9048 35.3342C54.5506 35.582 54.3413 35.3501 54.1239 35.1263C53.8423 34.8385 53.5122 34.5988 53.4238 34.159C53.3834 33.9672 53.1742 33.7994 53.0374 33.6314C52.7315 33.2558 52.6671 32.8481 52.7637 32.3604C52.8361 32.0087 52.7637 31.625 52.7475 31.2493C52.7475 31.1534 52.6671 31.0494 52.6831 30.9535C52.804 30.2421 53.0293 29.5626 53.5364 29.0351C53.7618 28.8032 53.9388 28.6033 53.9469 28.2597C53.955 27.9399 54.0435 27.6201 54.3413 27.4203C54.3815 27.3883 54.4219 27.3564 54.454 27.3164C54.8002 26.9246 54.6874 26.5329 54.1883 26.3571C54.1079 25.9974 54.0676 25.6456 54.2045 25.2699C54.2769 25.0701 54.2287 24.8303 54.2287 24.6144C54.2287 24.2547 54.3735 24.1269 54.7437 24.1748C54.9932 24.2067 55.2428 24.2467 55.5165 24.2787C55.6855 23.7591 55.7097 23.3274 55.2428 22.9837C55.0174 22.8158 55.0657 22.576 55.3314 22.56C55.5728 22.544 55.5728 22.3282 55.7258 22.2722C55.8706 22.2243 56.0155 22.2083 56.1524 22.1124C55.7579 22.0405 55.3877 22.2002 54.9288 22.3042C55.0818 22.0245 55.267 21.8325 55.1382 21.5847C55.2268 21.329 55.3233 21.0812 55.4119 20.8413C55.0576 20.9532 55.0094 21.0812 55.1462 21.5928C54.9611 21.4968 54.7921 21.5448 54.6149 21.6328C54.5345 21.6727 54.3655 21.6727 54.3413 21.6328C54.285 21.5528 54.2931 21.4169 54.3011 21.313C54.3171 21.1691 54.3494 21.0252 54.3896 20.8893C54.4219 20.7854 54.454 20.6654 54.5265 20.5855C54.6714 20.4257 54.8484 20.2977 55.0255 20.1299C54.8002 19.4904 55.114 19.1627 55.7579 19.0507C55.6533 19.3784 55.8546 19.6903 55.8062 20.058C55.766 20.3537 55.9673 20.7135 56.1524 20.9932C56.3133 21.233 56.41 21.4489 56.257 21.7526C56.3053 21.7526 56.3536 21.7606 56.4019 21.7686C56.5226 21.5847 56.6032 21.3609 56.7641 21.2251C56.9331 21.0731 57.1746 20.9932 57.4081 20.8733C57.4081 20.7854 57.4321 20.6815 57.4081 20.5855C57.2793 20.1619 57.3677 19.8101 57.7783 19.5864C57.9312 19.4983 57.9473 19.3944 57.8829 19.2026C57.6817 19.3305 57.4965 19.4504 57.2954 19.5783C56.8446 19.2586 56.9734 18.8029 56.925 18.4033C56.8606 17.8756 57.2631 17.5639 57.6092 17.3081C57.8427 17.1242 57.9715 16.9084 58.1083 16.6846C58.2935 16.3888 58.3981 16.037 58.551 15.6693C58.4785 15.6693 58.4062 15.6853 58.2532 15.7014C58.4383 15.4455 58.559 15.2137 58.7442 15.0378C59.0661 14.7261 59.4606 14.5102 59.8389 14.2624C60.1448 14.0625 60.6599 14.1585 60.9255 14.5022C61.0946 14.718 61.3038 14.806 61.5292 14.9179C61.8592 15.0857 62.165 15.3096 62.4468 15.5494C62.5595 15.6454 62.5837 15.8452 62.656 16.021C62.7125 16.021 62.809 16.021 62.9459 16.037C62.8815 15.7413 62.8251 15.4534 62.7688 15.1737C63.2436 15.1737 63.2598 15.1737 63.2598 15.7493C63.4851 15.5094 63.7025 15.2777 63.9278 15.0459C64.0485 14.9179 64.1935 14.83 64.3867 14.8939C64.62 14.9739 64.773 14.862 64.8938 14.6701C64.789 14.5262 64.6844 14.3903 64.5234 14.1745C64.7891 14.2624 64.9582 14.3184 65.1272 14.3663C65.2881 14.4143 65.4572 14.4463 65.6181 14.4862C65.5457 13.8547 65.4652 13.2073 65.3847 12.5118C65.6343 12.6476 65.7952 12.7356 65.9642 12.8235C65.9965 12.9275 66.0205 13.0314 66.0528 13.1353C66.093 13.1113 66.1333 13.0874 66.1735 13.0634C66.1011 12.9834 66.0286 12.9114 65.9563 12.8315L65.9723 12.8155ZM62.6077 26.9487C62.3824 26.9327 62.1409 27.0926 61.9397 26.8607C61.9155 26.8288 61.7948 26.8767 61.7144 26.9006C61.3038 27.0126 61.0865 26.9327 60.9416 26.5569C60.7967 26.1892 60.6921 25.7975 60.5633 25.4058C60.4184 25.5257 60.2976 25.6217 60.1769 25.7175C60.2896 25.9095 60.3862 26.0853 60.4747 26.2452C60.346 26.453 60.2332 26.6209 60.1206 26.7967C60.0562 26.7488 59.9756 26.7168 59.9516 26.6608C59.8389 26.429 59.694 26.2291 59.6135 25.9574C59.5331 25.6776 59.3881 25.4218 59.3559 25.102C59.3399 24.9662 59.1869 24.7982 59.0581 24.7264C58.8005 24.5985 58.5994 24.4465 58.4706 24.1908C58.4142 24.0869 58.3014 24.0149 58.1968 23.9189C58.1807 23.9989 58.1486 24.0469 58.1647 24.0628C58.382 24.3507 58.4383 24.7503 58.8166 24.9421C58.9856 25.0301 59.1144 25.214 59.2432 25.3739C59.3801 25.5337 59.3399 25.5897 59.0179 25.6536C59.1386 26.1173 58.7201 26.3411 58.5832 26.7328C58.3658 26.5649 58.1163 26.509 58.0761 26.1972C58.221 26.1733 58.3578 26.1652 58.4866 26.1252C58.7522 26.0533 58.8247 25.8855 58.6637 25.6696C58.3981 25.3019 58.0439 25.0221 57.6657 24.7503C57.4321 25.142 57.8749 25.6376 57.4 25.9414C57.1263 25.3658 57.239 24.7024 57.6415 24.4066C57.5181 24.2467 57.2926 24.292 56.9654 24.5425C56.8124 24.5105 56.6755 24.4865 56.4984 24.4465C56.4582 24.8063 56.3536 25.086 56.0638 25.2939C55.9269 25.3898 55.8546 25.5578 55.8706 25.7815C55.9029 26.1892 55.6211 26.469 55.1784 26.5489C55.0336 26.5729 54.9128 26.6129 54.9369 26.8288C55.2106 26.9167 55.4682 26.9646 55.7258 26.7407C55.9673 26.525 56.2731 26.4769 56.587 26.461C56.8929 26.445 57.1907 26.3971 57.4965 26.405C57.6173 26.405 57.8105 26.509 57.8427 26.6049C57.8991 26.7888 57.8829 26.9966 57.8587 27.1965C57.8266 27.5401 57.8829 27.6281 58.2049 27.732C58.3658 27.78 58.5994 27.8199 58.6557 27.9319C58.8247 28.2996 59.203 28.3315 59.5089 28.6114C59.525 28.4354 59.5089 28.3396 59.541 28.2516C59.5652 28.1397 59.5894 28.0038 59.6618 27.9319C59.8228 27.7639 60.024 27.7639 60.2252 27.8759C60.7403 28.1637 61.2475 28.5074 61.8914 28.2356C61.9316 28.2197 61.996 28.2356 62.0443 28.2516C62.487 28.3315 62.487 28.3315 62.5997 27.9478C62.656 27.772 62.7204 27.5882 62.7365 27.4043C62.7527 27.2204 62.7125 27.0285 62.6883 26.8447C62.6481 26.8607 62.6158 26.8687 62.5756 26.8846C62.5916 26.9087 62.6077 26.9327 62.6239 26.9566L62.6077 26.9487ZM61.7707 23.5593L61.6096 23.5753C61.4889 23.8789 61.3762 24.1987 61.2394 24.4946C61.1429 24.6943 61.0946 24.9021 61.2636 25.062C61.4487 25.23 61.666 25.19 61.8753 25.062C62.1811 24.8702 62.4951 24.8702 62.7848 25.086C63.0424 25.2699 63.308 25.3019 63.6058 25.2059C63.8715 24.7103 63.3563 24.5985 63.1712 24.3507C62.9136 24.0149 62.5595 23.9509 62.1892 24.2387C62.0362 23.9909 61.8995 23.775 61.7707 23.5593ZM58.5108 20.8653C58.8568 20.4416 59.3157 20.5615 59.7986 20.6415C59.5169 20.3458 59.5733 20.058 59.6618 19.7302C59.7423 19.4184 59.6859 19.0667 60.0965 18.8909C59.7182 18.731 59.525 18.5311 59.5813 18.1314C59.6135 17.9156 59.5169 17.6838 59.4847 17.444C58.9937 17.8117 58.9212 18.0674 59.1788 18.5232C59.2915 18.715 59.3479 18.9228 59.1949 19.0907C58.9856 19.3145 58.9615 19.5543 58.9776 19.8342C58.9776 19.962 58.8891 20.1299 58.7845 20.2098C58.6234 20.3377 58.4142 20.4097 58.221 20.5136C58.3176 20.6255 58.3981 20.7214 58.5188 20.8653H58.5108ZM65.7227 23.4953C65.7227 23.4953 65.6745 23.4154 65.6503 23.3754C65.5135 23.3994 65.3364 23.3754 65.2398 23.4554C65.0628 23.5992 64.9178 23.791 64.781 23.9749C64.7569 24.0149 64.781 24.1108 64.8132 24.1668C65.0224 24.6224 65.2318 25.0701 65.4732 25.5817C65.4491 25.8055 65.1674 26.1333 65.4572 26.429C65.6343 26.6129 65.8596 26.8288 66.2218 26.5569C65.9079 25.7735 65.8998 24.8542 65.28 24.1588C65.4491 23.911 65.5859 23.7031 65.7308 23.4873L65.7227 23.4953ZM64.2337 33.3676C64.1612 32.912 64.1854 32.5363 63.952 32.1926C63.7669 31.9208 63.5334 31.617 63.5012 31.3053C63.4288 30.6897 63.0264 30.2421 62.8332 29.6985C62.809 29.6266 62.7204 29.5706 62.656 29.5067C62.6239 29.5226 62.5917 29.5386 62.5595 29.5467C62.5997 29.7145 62.6158 29.8984 62.6721 30.0583C62.8734 30.6338 63.2598 31.1534 63.2436 31.8009C63.2436 31.8808 63.3403 31.9687 63.3886 32.0566C63.4449 32.1606 63.5254 32.2646 63.5414 32.3685C63.5898 32.7921 63.8876 33.0319 64.2337 33.3597V33.3676ZM66.0205 30.466C66.4794 30.4979 66.4794 30.4899 66.6484 30.0502C66.4069 29.8744 66.1816 29.7064 65.9401 29.5546C65.7067 29.4028 65.7952 28.987 65.3444 28.9312C65.4169 29.1469 65.4732 29.3148 65.5135 29.4747C65.6181 29.8344 66.0689 30.0023 66.0205 30.466ZM62.0283 16.5726C62.1731 16.6366 62.2858 16.6846 62.4065 16.7325V16.2848H61.6982C61.7223 16.4687 61.7465 16.6207 61.7788 16.8285C61.8753 16.7165 61.9397 16.6526 62.0283 16.5647V16.5726ZM60.0642 16.5726C59.8228 16.6046 59.6913 16.8391 59.6698 17.2761C59.9114 17.0923 60.0481 16.8924 60.0642 16.5726ZM60.4345 18.6511C60.5552 18.7949 60.684 18.9308 60.8209 18.6271C60.6598 18.635 60.5472 18.643 60.4345 18.6511ZM57.9956 20.0899C57.9956 20.0899 58.0761 20.0659 58.1163 20.0499C58.0761 19.962 58.0359 19.8661 57.9956 19.7782C57.9634 19.7942 57.9312 19.8021 57.8991 19.8181C57.9312 19.906 57.9634 20.002 57.9956 20.0899ZM66.9543 15.3895H66.9865V15.0698H66.9543V15.3895Z" fill="white"/>
<path d="M45.2381 19.5144C45.2381 19.7623 45.2139 19.9142 45.2381 20.066C45.2623 20.1859 45.3186 20.3298 45.4071 20.4018C45.5681 20.5217 45.6969 20.3618 45.7935 20.2579C45.9142 20.13 46.0028 19.9621 46.1235 19.7782C46.4534 20.066 46.687 20.4258 46.703 20.7775C46.7191 21.0652 46.8801 21.2412 47.0169 21.2891C47.2987 21.401 47.4999 21.5609 47.6609 21.8007C47.7011 21.8567 47.7977 21.8806 47.9425 21.9526C47.8138 22.1365 47.7253 22.3283 47.5884 22.4403C47.0813 22.8639 46.5582 23.2476 45.8337 23.1117C45.7693 23.0958 45.6969 23.1197 45.6325 23.1437C45.4313 23.2076 44.9886 23.6713 44.9 23.983C45.061 23.8231 45.2139 23.6553 45.3749 23.4954C45.5681 23.3115 45.7693 23.2156 46.0108 23.4714C45.9867 23.6873 45.7129 23.8871 45.9303 24.1748C46.043 24.1989 46.196 24.2308 46.373 24.2708C46.3408 24.3507 46.3006 24.4307 46.2683 24.5106C46.2844 24.5267 46.2925 24.5426 46.3086 24.5666C46.4534 24.4547 46.5984 24.3347 46.7754 24.1989C46.7996 24.2868 46.856 24.3747 46.8398 24.3987C46.534 24.7264 46.1316 24.8944 45.6325 25.0622C45.721 24.8703 45.7773 24.7584 45.8337 24.6385C45.8015 24.6385 45.7693 24.6146 45.7533 24.6225C45.4876 24.7824 45.2381 24.9583 44.9644 25.1022C44.6666 25.27 44.5539 25.4858 44.6666 25.8056C44.2883 26.0215 43.9261 26.2212 43.7731 26.653C43.7168 26.8209 43.58 27.2925 43.5316 27.4364C43.4592 27.6521 43.3626 27.9001 43.1936 28.0279C42.6623 28.4276 42.5255 28.9472 42.6141 29.5627C42.6462 29.7626 42.7026 29.9624 42.7187 30.1622C42.7348 30.3142 42.7187 30.474 42.7187 30.6899C42.3807 30.546 42.3403 30.2901 42.2599 30.0904C41.9862 29.4189 41.7528 29.251 41.0445 29.331C41.0123 29.331 40.9801 29.3549 40.9237 29.3708C40.9157 29.4588 40.9076 29.5547 40.8916 29.6506C40.8593 29.6506 40.8272 29.6827 40.803 29.6666C40.1832 29.3549 39.4025 29.7945 39.3864 30.474C39.3864 30.7619 39.3541 31.0496 39.3703 31.3374C39.3783 31.5372 39.4185 31.7451 39.4829 31.9369C39.6278 32.3925 39.7807 32.4885 40.2718 32.4964C40.3603 32.4964 40.4408 32.4964 40.5373 32.4805C40.6259 32.2967 40.6903 32.1047 40.8111 31.9529C40.8835 31.8649 41.0525 31.777 41.1492 31.801C41.2376 31.8249 41.3262 31.9929 41.3422 32.1047C41.3664 32.2646 41.3182 32.4405 41.294 32.6084C41.2699 32.7842 41.2296 32.968 41.1974 33.1839C41.4066 33.1839 41.5516 33.1839 41.7046 33.1839C42.1231 33.1839 42.3001 33.3438 42.3082 33.7674C42.3082 33.9354 42.2599 34.1032 42.2599 34.2711C42.2599 34.6628 42.4209 34.8147 42.8072 34.8547C43.0889 34.8866 43.3707 34.9266 43.6685 34.9665C43.9503 34.4949 44.1031 34.3431 44.578 34.0712C44.6183 34.2151 44.6666 34.359 44.739 34.6069C44.8517 34.415 44.9322 34.2871 45.0047 34.1672C45.222 34.3031 45.3507 34.423 45.5037 34.4709C45.721 34.5349 46.0349 34.6388 46.1798 34.5349C46.4615 34.335 46.6064 34.6467 46.8157 34.6069C46.9123 35.0145 47.4033 35.0225 47.5884 35.3663C47.6689 35.5181 47.8379 35.646 48.0874 35.6541C48.9648 35.686 49.5926 36.2456 49.4558 37.1568C49.5444 37.1568 49.657 37.1249 49.7214 37.1568C49.802 37.2049 49.8422 37.3088 49.9308 37.4367C50.3091 37.2688 50.6309 37.3647 50.8322 37.7644C51.5566 37.4846 52.1281 37.6524 52.603 38.252C53.0377 38.7956 53.0779 39.4111 52.6513 39.9947C52.4179 40.3224 52.3455 40.6581 52.3374 41.0418C52.3374 41.4335 52.2972 41.8253 52.2409 42.2089C52.2005 42.5048 52.0477 42.6886 51.7015 42.7126C51.283 42.7445 50.9932 43.0164 50.7357 43.3121C51.0173 44.3113 50.6309 44.9828 49.4639 45.4865C49.488 45.5744 49.5121 45.6623 49.5363 45.7502C49.6007 46.006 49.488 46.1978 49.2466 46.2698C48.9487 46.3498 48.6831 46.4297 48.5382 46.7415C48.514 46.7894 48.4175 46.7975 48.3208 46.8374C48.6107 47.2211 48.2806 47.5169 48.168 47.8446C48.4417 48.0738 48.4845 48.3296 48.2968 48.612C48.1357 48.8599 48.1599 49.0357 48.4014 49.2275C48.5221 49.3235 48.6589 49.3874 48.8521 49.4994C48.7153 49.5473 48.6268 49.6112 48.5543 49.5952C48.2887 49.5712 47.9426 49.5952 47.7896 49.4513C47.6287 49.2915 47.3871 49.1956 47.2825 49.0038C47.1537 48.7559 46.7514 48.644 46.8962 48.2523C46.9203 48.1963 46.7674 48.0764 46.695 47.9885C46.9123 47.7407 46.9203 47.3091 46.6547 47.0053C46.4213 46.7335 46.365 46.4377 46.3488 46.1099C46.3167 45.3106 46.2925 44.5112 46.2603 43.7118C46.2523 43.488 46.2442 43.2721 46.2362 43.0483C46.196 42.145 45.8337 41.4096 45.077 40.8819C44.5217 40.4903 44.0951 39.9947 43.8053 39.3711C43.749 39.2513 43.6846 39.1154 43.588 39.0275C43.2902 38.7476 43.1212 38.4519 43.3465 38.0442C43.3707 37.9962 43.3707 37.8843 43.3465 37.8523C43.0166 37.5406 43.258 37.2607 43.3868 36.973C43.4512 36.8372 43.5478 36.7092 43.6122 36.5733C43.8295 36.0776 43.6685 35.5981 43.4672 35.1504C43.3788 34.9426 43.1533 35.0145 42.936 35.3182C42.3968 35.1104 41.9701 34.7587 41.6723 34.2631C41.5435 34.0553 41.4066 33.9194 41.1492 33.8394C40.8997 33.7674 40.6903 33.5596 40.4649 33.4078C40.2718 33.2718 40.1269 33.096 39.8291 33.2319C39.6922 33.2878 39.4588 33.2079 39.2978 33.1279C38.6378 32.8002 38.1065 32.3366 37.7845 31.6571C37.5753 31.2094 37.366 30.7617 37.1407 30.3221C37.0119 30.0823 36.875 29.8345 36.706 29.6346C36.4967 29.3868 36.4565 29.139 36.4967 28.8352C37.0843 24.5346 38.7826 20.7375 41.6481 17.468C41.6965 17.4201 41.7448 17.3641 41.793 17.3241C41.8172 17.3002 41.8494 17.2922 41.8977 17.2602C41.9379 17.3482 41.9782 17.4361 42.0345 17.556C42.2116 17.3322 42.4611 17.1483 42.5255 16.9085C42.6946 16.2609 43.2177 15.9732 43.7087 15.6614C43.8938 15.5415 44.1433 15.5255 44.2077 15.2458C44.2239 15.1898 44.3365 15.1578 44.4251 15.1099C44.6022 15.3416 44.7632 15.5575 44.9403 15.7974C45.1012 15.8213 45.383 15.5975 45.4474 15.9652C45.4474 15.9892 45.5681 15.9892 45.6325 15.9972C46.1074 16.0771 46.1798 16.237 45.9061 16.6767C46.3006 16.8925 46.695 17.1003 47.1618 17.3482C46.9123 17.524 46.6789 17.6839 46.4455 17.8517C46.4696 17.8838 46.4938 17.9237 46.5178 17.9556C46.3408 17.8118 46.1718 17.6679 45.9705 17.5C45.7935 17.7718 45.9142 17.9077 46.0751 18.0596C46.4132 18.3794 46.4132 18.3873 46.196 18.795C46.0269 18.7391 45.8579 18.6831 45.6245 18.6032C45.7693 18.7791 45.8659 18.907 46.0269 19.0988C45.5118 19.0428 45.1093 19.0269 44.8436 18.6111C44.6264 18.2754 44.5861 18.2915 44.1595 18.3954C44.0226 18.4273 43.8697 18.3954 43.7329 18.3873C43.7248 18.3873 43.7007 18.2675 43.7087 18.2515C43.8295 18.1795 43.9663 18.0596 44.087 18.0676C44.409 18.0916 44.5458 17.9396 44.6264 17.6599C44.6827 17.468 44.8115 17.3002 44.9161 17.0923C44.6424 16.8685 44.3768 16.6447 44.1031 16.4289C44.0629 16.3969 44.0066 16.3649 43.9663 16.3729C43.6685 16.4208 43.3788 16.4848 43.0245 16.5487C43.2017 16.7406 43.3224 16.8845 43.1212 17.0923C43.0406 17.1802 43.081 17.3801 43.0568 17.564C42.7429 17.5321 42.5739 17.8198 42.2599 17.8598C42.0748 17.8838 41.938 18.2115 41.769 18.3873C41.616 18.5472 41.4228 18.6671 41.2859 18.835C40.9076 19.3147 40.3281 19.6743 40.3442 20.3858C40.3442 20.4978 40.3764 20.6096 40.4166 20.7135C40.481 20.8814 40.5696 21.0333 40.6661 21.2251C41.1008 21.2251 41.5516 21.2572 41.9057 21.6328C41.9943 21.7288 42.2196 21.6888 42.4128 21.7128C42.5658 22.1205 42.4772 22.6481 42.9762 23.0158C43.0166 22.6721 43.0648 22.3922 43.0729 22.1125C43.081 21.8806 43.1452 21.7048 43.3465 21.5449C43.7087 21.2572 43.7329 21.1212 43.5478 20.7056C43.427 20.4418 43.4109 20.2179 43.5316 19.9302C43.6283 19.7143 43.596 19.4425 43.6283 19.1388C44.2077 19.0588 44.7068 19.3386 45.2542 19.4825L45.2381 19.5144ZM42.759 24.9183C42.3163 24.6545 41.7206 24.6306 41.455 24.8384C41.2215 25.0222 41.1652 25.5178 41.3584 26.0294C41.4389 25.7096 41.5114 25.4779 41.5677 25.238C41.6321 24.9663 41.7769 24.8703 42.0426 24.9583C42.0855 25.1927 42.1848 25.3553 42.3403 25.446C42.4477 25.1954 42.5899 25.0196 42.767 24.9183H42.759ZM41.3503 23.7512C41.0686 23.999 40.8593 24.1829 40.6581 24.3668C41.0686 24.2628 41.4147 24.7505 41.8333 24.4147C41.6884 24.2148 41.5435 24.0151 41.3584 23.7512H41.3503Z" fill="white"/>
<path d="M50.5422 18.2343C50.2122 18.0984 50.0029 17.8666 49.7051 18.0344C49.6649 18.0584 49.5522 17.9705 49.4878 17.9225C49.0048 17.4748 48.6507 16.9313 48.4413 16.2998C48.369 16.0839 48.4173 15.932 48.5701 15.8042C48.7553 15.6522 48.86 15.4764 48.8679 15.1887C48.7151 15.1806 48.5782 15.1726 48.4333 15.1646C48.0551 15.1406 47.9342 14.9807 47.9826 14.6051C48.063 13.9816 47.5157 13.39 46.8959 13.4459C46.7431 13.4619 46.5981 13.4859 46.4211 13.5019C47.2742 12.4308 52.6752 10.3843 54.4782 10.4403C54.446 10.5522 54.4138 10.6481 54.3736 10.776C54.5587 10.8639 54.7519 10.9439 55.0175 11.0638C54.7438 11.1597 54.5426 11.2317 54.3092 11.3116C54.5346 11.4155 54.7036 11.4955 54.937 11.6074C54.7761 11.6953 54.6794 11.7513 54.599 11.7912C54.6311 11.8712 54.7117 12.0071 54.6955 12.0231C54.5426 12.143 54.7117 12.4547 54.4218 12.4866C54.269 12.5027 54.116 12.5266 53.9631 12.5426C53.7296 12.5586 53.7216 12.7185 53.6894 12.8784C53.9952 12.9663 54.2609 13.0463 54.5185 13.1182C54.5829 13.374 54.5104 13.4939 54.293 13.5179C54.1079 13.5339 53.9148 13.5339 53.7296 13.5658C53.6653 13.5739 53.6169 13.6697 53.6169 13.8217C53.8343 13.7737 54.0516 13.7257 54.277 13.6858C54.293 13.7178 54.3092 13.7497 54.3253 13.7817C53.8343 14.1014 53.3514 14.4532 52.8362 14.7329C52.6672 14.8289 52.5544 14.9168 52.4256 15.0607C52.144 15.3725 51.9508 15.8121 51.4275 15.8281C51.3632 15.8281 51.2747 15.9641 51.2345 16.052C51.009 16.5315 50.7595 17.0112 50.7354 17.5628C50.7274 17.7706 50.6226 17.9785 50.5422 18.2423V18.2343ZM48.3931 14.5731C48.2723 14.9488 48.4736 14.9168 48.7794 14.9009C48.6024 14.7489 48.4977 14.661 48.3931 14.5731Z" fill="white"/>
<path d="M71.4136 45.15C71.1721 45.0222 70.9226 44.9901 70.6489 45.1021C70.4476 45.182 70.4395 45.15 70.19 44.8623C70.5845 44.3906 70.6247 43.7991 70.7374 43.2236C70.8179 42.8398 70.9708 42.4642 71.1237 42.0964C71.2848 41.7046 71.6228 41.5528 72.0253 41.5528C72.484 41.5528 72.8544 41.4649 73.1843 41.0652C73.4178 40.7853 73.8604 40.6655 74.2308 40.4576C74.2951 40.5935 74.3434 40.6975 74.4078 40.8334C74.6895 40.5856 74.931 40.2658 75.4623 40.4417C75.5267 40.5136 75.6795 40.6735 75.8486 40.8573C75.6876 41.0333 75.5347 41.193 75.3656 41.3769C75.4623 41.7207 75.5507 42.0565 75.6555 42.4321C76.2993 42.2323 76.2912 41.4649 76.8467 41.1212C76.8225 41.273 76.8145 41.3769 76.7983 41.4808C76.7259 41.8726 76.6535 42.2643 76.565 42.656C76.5328 42.7999 76.4523 42.9437 76.3718 43.0716C75.4863 44.4706 74.4561 45.7576 73.2648 46.9166C73.2004 46.9806 73.1118 47.0366 73.0395 47.0926C73.0395 46.7808 73.0234 46.493 73.0395 46.2053C73.0474 46.0693 73.0636 45.9814 72.8946 45.9734C72.8704 45.9734 72.8382 45.8295 72.8463 45.7576C72.8865 45.4299 72.8463 45.1101 72.5243 44.9741C72.2104 44.8383 71.8563 44.8063 71.5584 45.0621C71.5182 45.0941 71.4699 45.118 71.4055 45.15H71.4136Z" fill="white"/>
<path d="M60.1772 10.4884C60.3945 10.5763 60.6199 10.6722 60.8695 10.7762C60.7809 11.1359 60.6763 11.4236 60.2174 11.3917C60.3704 11.6395 60.4911 11.8393 60.644 12.0951C60.5636 12.175 60.4831 12.3429 60.3785 12.367C60.0484 12.4228 60.2657 12.0312 60.0646 11.9352C59.9679 12.231 59.8794 12.5109 59.7667 12.8626C59.654 12.7187 59.5252 12.6307 59.5092 12.5188C59.4448 12.1191 59.0665 11.8473 59.1067 11.4077C59.1309 11.1359 59.1791 10.992 59.5011 10.928C59.7265 10.8881 59.9196 10.6642 60.1772 10.4884Z" fill="white"/>
<path d="M64.8056 39.5696C65.039 39.9532 64.9988 40.257 64.8862 40.5368C64.6526 41.1203 64.3871 41.696 64.1215 42.2635C64.0732 42.3754 63.9525 42.4793 63.8397 42.5353C63.6305 42.6392 63.4775 42.5512 63.4292 42.3274C63.4212 42.2795 63.4131 42.2235 63.4292 42.1756C63.5499 41.656 63.6787 41.1444 63.8075 40.6328C63.8156 40.5848 63.8477 40.5368 63.8881 40.5048C64.0651 40.3769 64.2743 40.289 64.4273 40.1371C64.5642 40.0013 64.6526 39.8093 64.8056 39.5696Z" fill="white"/>
<path d="M75.342 37.2197C75.2614 37.2916 75.1488 37.3475 75.0924 37.4435C74.9394 37.7232 74.8026 38.0111 74.6658 38.2989C74.0943 38.1069 74.0863 38.099 74.1507 37.5634C74.1909 37.2197 74.2875 36.9479 74.5773 36.692C74.9395 36.3803 75.2051 35.9566 75.5271 35.5649C75.5754 35.7168 75.6236 35.8847 75.68 36.0845C75.3902 36.3963 75.2614 36.788 75.3258 37.2357L75.342 37.2197Z" fill="white"/>
<path d="M77.5631 28.6276C77.4987 28.3558 77.3618 28.076 77.3778 27.8043C77.394 27.5165 77.4987 27.1967 77.6596 26.9489C77.8367 26.6691 77.8769 26.3654 77.9735 26.0696C78.1587 25.502 78.0379 24.9664 77.9816 24.4148C77.9493 24.0711 77.9091 23.7194 77.9413 23.3677C78.1506 23.5995 78.3036 23.8393 78.1989 24.175C78.1587 24.2949 78.1667 24.4469 78.1989 24.5668C78.4243 25.2781 78.3036 26.0216 78.368 26.7411C78.3759 26.877 78.2875 27.0288 78.215 27.1567C77.9493 27.6204 77.5791 28.0441 77.6838 28.6515C77.6435 28.6515 77.6033 28.6356 77.5631 28.6276Z" fill="white"/>
<path d="M64.6686 11.1379C64.0408 12.1371 63.582 13.0803 64.4512 14.1275C64.234 14.2955 64.0489 14.1835 63.8959 14.0636C63.7349 13.9357 63.4935 13.8557 63.5015 13.568C63.5176 13.0724 63.4935 12.5687 63.5498 12.0811C63.6061 11.6015 63.9039 11.2578 64.3547 11.0659C64.4272 11.0339 64.5318 11.1059 64.6606 11.1379H64.6686Z" fill="white"/>
<path d="M76.0661 38.3318C76.1064 38.1719 76.1385 38.0121 76.1787 37.8522C76.211 37.7323 76.2431 37.6203 76.2915 37.4684C76.6134 37.7828 76.8522 38.1799 77.0078 38.6595C77.0964 38.6116 77.1768 38.5637 77.2573 38.5156C77.3298 38.6355 77.2171 38.9473 77.0481 39.0272C76.7986 39.1392 76.6698 39.2671 76.7181 39.5708C76.7422 39.7067 76.6295 39.8666 76.5651 40.0504C76.4203 39.9065 76.2996 39.8186 76.219 39.7067C76.1143 39.5548 76.0499 39.3949 76.1708 39.1951C76.3638 38.8914 76.3236 38.5876 76.0741 38.3157L76.058 38.3318H76.0661Z" fill="white"/>
<path d="M54.6073 15.9726C54.728 16.6521 54.4865 17.0518 53.8989 17.2117C53.6092 17.2917 53.3999 17.1078 53.3274 16.788C53.255 16.4442 53.2067 16.1246 53.5448 15.9247C53.738 15.9647 53.915 16.0205 54.084 16.0286C54.2451 16.0366 54.4141 15.9966 54.5992 15.9726H54.6073Z" fill="white"/>
<path d="M76.5491 32.5355C76.5571 32.6474 76.6135 32.7833 76.5732 32.8712C76.3801 33.3109 76.5571 33.7186 76.6135 34.1503C76.6859 34.7098 76.6054 35.2614 76.4042 35.7969C76.3801 35.8529 76.3236 35.8929 76.2352 36.0049C76.1708 35.6851 76.0258 35.5012 76.219 35.1814C76.3559 34.9496 76.2513 34.5499 76.219 34.2302C76.1466 33.6387 76.195 33.0711 76.4364 32.5274H76.5491V32.5355Z" fill="white"/>
<path d="M47.6445 22.9669C47.8216 23.0708 48.0067 23.1747 48.1999 23.2866C48.2562 23.4704 48.3287 23.6784 48.4092 23.9262C47.9906 23.8781 47.5721 23.8302 47.1455 23.7902C47.1938 23.3825 47.218 23.3426 47.6445 22.9748V22.9669Z" fill="white"/>
<path d="M43.1532 18.7316C42.807 18.8115 42.5415 18.8755 42.2114 18.9554C42.1632 18.9234 42.0424 18.8434 41.9137 18.7555C42.0183 18.5077 42.139 18.252 42.4287 18.236C42.7668 18.22 42.96 18.4678 43.1613 18.7316H43.1532Z" fill="white"/>
<path d="M43.8782 32.0719C43.6608 32.1119 43.4918 32.104 43.2665 31.9201C42.9283 31.6482 42.5258 31.3446 42.0027 31.5043C42.2119 31.2246 42.4856 31.2166 42.7593 31.3446C43.1537 31.5284 43.532 31.7523 43.9103 31.952C43.8942 31.992 43.8862 32.032 43.8701 32.0719H43.8782Z" fill="white"/>
<path d="M75.398 37.4841C75.4624 37.524 75.5187 37.564 75.6073 37.628C75.5268 37.7798 75.4141 37.9317 75.3578 38.1075C75.2934 38.2914 75.2853 38.4913 75.2451 38.6991C75.0921 38.6991 74.9795 38.6911 74.8345 38.6832C75.0197 38.2595 74.8909 37.7319 75.406 37.5001V37.492L75.398 37.4841Z" fill="white"/>
<path d="M45.1332 32.4168C44.8112 32.5527 44.5214 32.6726 44.1834 32.5767C44.2316 32.4248 44.2799 32.2889 44.3363 32.1131C44.61 32.089 44.8997 32.0731 45.1332 32.4168Z" fill="white"/>
<path d="M36.7707 31.0087C36.5533 30.697 36.336 30.3932 36.4808 29.9376C36.6177 30.2733 36.7546 30.617 36.8914 30.9527C36.8511 30.9687 36.8109 30.9848 36.7626 31.0008L36.7707 31.0087Z" fill="white"/>
<path d="M44.3527 17.0286C44.3767 17.4044 44.3688 17.4124 43.9984 17.3324C44.0226 17.1166 44.1272 17.0127 44.3527 17.0286Z" fill="white"/>
<path d="M75.3258 37.2375C75.5109 37.1895 75.6879 37.1336 75.8731 37.0856C75.8892 37.1175 75.9053 37.1575 75.9213 37.1895C75.8329 37.2455 75.7523 37.3174 75.6639 37.3414C75.5591 37.3653 75.4143 37.2935 75.4063 37.4853C75.4063 37.4853 75.4063 37.4933 75.4143 37.5013C75.3902 37.4134 75.366 37.3174 75.3419 37.2295L75.3258 37.2455V37.2375Z" fill="white"/>
<path d="M72.8786 33.8152L72.7257 34.3189C72.7257 34.3189 72.6533 34.2949 72.6131 34.2869C72.6694 34.111 72.7257 33.9432 72.7821 33.7673L72.8786 33.8152Z" fill="white"/>
<path d="M76.0819 38.3147H75.5748C75.7895 38.1708 75.9531 38.1761 76.0659 38.3307L76.0819 38.3147Z" fill="white"/>
<path d="M63.7025 14.9185C63.606 14.9824 63.5496 15.0224 63.4933 15.0624C63.4611 14.9985 63.4047 14.9345 63.3967 14.8625C63.3967 14.8225 63.4933 14.7426 63.5093 14.7507C63.5737 14.7826 63.6221 14.8386 63.7025 14.9185Z" fill="white"/>
<path d="M46.4132 23.4154C46.3246 23.3834 46.2442 23.3434 46.1556 23.3115C46.1637 23.2795 46.1718 23.2556 46.1798 23.2235C46.2764 23.2475 46.365 23.2716 46.4615 23.2955C46.4454 23.3355 46.4294 23.3755 46.4132 23.4154Z" fill="white"/>
<path d="M72.7419 35.1013C72.7499 35.1972 72.758 35.3011 72.7661 35.3971L72.7178 35.4211C72.6936 35.3731 72.6534 35.3251 72.6453 35.2772C72.6373 35.2212 72.6534 35.1652 72.6615 35.1093C72.6855 35.1093 72.7097 35.1093 72.7419 35.1093V35.1013Z" fill="white"/>
<path d="M76.066 37.285C76.0983 37.189 76.1385 37.0851 76.1706 36.9892C76.1948 36.9892 76.227 37.0052 76.2511 37.0131C76.219 37.117 76.1948 37.2211 76.1626 37.325C76.1304 37.3089 76.0983 37.3009 76.066 37.285Z" fill="white"/>
<path d="M60.7726 11.5453C60.8532 11.4894 60.9336 11.4334 61.0141 11.3774C61.0302 11.4014 61.0462 11.4254 61.0624 11.4494C60.9818 11.4974 60.9014 11.5533 60.8209 11.6013C60.8048 11.5773 60.7888 11.5613 60.7726 11.5373V11.5453Z" fill="white"/>
<path d="M42.6301 19.2984C42.5738 19.2505 42.5415 19.2185 42.5094 19.1866C42.5657 19.1466 42.622 19.0987 42.6784 19.0587C42.7025 19.0906 42.7669 19.1386 42.7589 19.1626C42.7347 19.2105 42.6864 19.2505 42.6381 19.3065L42.6301 19.2984Z" fill="white"/>
<path d="M56.1931 5.97985C56.0322 5.82797 55.8711 5.67608 55.6539 5.46825C55.6136 5.68408 55.5895 5.84396 55.5572 5.99584C55.3238 5.65211 55.3963 5.28439 55.348 4.89269C55.686 4.84473 55.9999 4.70884 56.2414 4.98062C56.4427 5.21245 56.1931 5.36433 56.0643 5.51621C56.1368 5.6681 56.2012 5.80399 56.2656 5.93988C56.2414 5.95587 56.2173 5.97186 56.1931 5.97985ZM56.1045 5.14849C55.9194 4.97262 55.7504 5.02859 55.5492 5.11652C55.6834 5.26041 55.8685 5.27106 56.1045 5.14849Z" fill="white"/>
<path d="M62.6081 26.9497C62.5518 27.0855 62.5195 27.2375 62.431 27.3574C62.3827 27.4213 62.2539 27.4213 62.1573 27.4293C62.1332 27.4293 62.0607 27.3414 62.0688 27.3254C62.1091 27.2454 62.1574 27.1495 62.2298 27.1095C62.3425 27.0376 62.4793 27.0056 62.6001 26.9497H62.6081Z" fill="white"/>
<path d="M60.7563 27.277C60.6194 27.245 60.4825 27.205 60.3457 27.173C60.3457 27.133 60.3618 27.0931 60.3699 27.0532C60.5147 27.0691 60.6515 27.0851 60.7965 27.1091C60.7884 27.1651 60.7723 27.2211 60.7642 27.277H60.7563Z" fill="white"/>
<path d="M56.2412 25.6061C56.3377 25.5582 56.4344 25.5101 56.5309 25.4622C56.547 25.4862 56.5632 25.5101 56.5792 25.5421L56.3137 25.726C56.3137 25.726 56.2653 25.6461 56.2412 25.6061Z" fill="white"/>
</g>
<defs>
<clipPath id="clip0_14447_9944">
<rect width="115.2" height="115.2" fill="white" transform="translate(0.400009 0.399994)"/>
</clipPath>
</defs>
</svg>
